<svg width="552" height="458" fill="none" xmlns="http://www.w3.org/2000/svg"><mask id="a" maskUnits="userSpaceOnUse" x="0" y="0" width="552" height="458"><path fill="#C4C4C4" d="M0 0h552v458H0z"/></mask><g opacity=".25" mask="url(#a)"><path d="M354.238 307.728l19.152 11.913 100.281-77.384-119.433 65.471z" fill="url(#paint0_linear)"/><path d="M345.564 253.96l-6.783 19.791 12.079 14.428-16.14 7.424-6.242 36.846 148.536-92.173-131.45 13.684z" fill="url(#paint1_linear)"/><path d="M350.86 288.179l-12.079-14.428 88.695-19.427-76.616 33.855z" fill="url(#paint2_linear)"/><path fill-rule="evenodd" clip-rule="evenodd" d="M530.791 396.787l-80.945-21.689c-10.045-2.692-20.43 3.222-23.244 13.339l-11.181 41.728c-2.718 10.142 3.293 20.552 13.435 23.27l8.983 2.407-4.503 16.807 23.506-11.612 52.933 14.183c10.142 2.718 20.552-3.292 23.27-13.435l11.181-41.728c2.717-10.142-3.293-20.552-13.435-23.27zm-18.695 22.633l-57.376-15.374c-1.256-.337-2.033-1.684-1.697-2.94.337-1.255 1.684-2.033 2.939-1.697l57.376 15.374c1.256.337 2.034 1.684 1.698 2.94-.337 1.255-1.684 2.033-2.94 1.697zm-61.465-.113l57.376 15.374c1.256.337 2.603-.441 2.939-1.697.337-1.256-.441-2.603-1.697-2.939l-57.376-15.374c-1.256-.337-2.603.441-2.939 1.697-.337 1.256.441 2.603 1.697 2.939zm53.26 30.733l-8.403-2.252c-1.256-.336-2.034-1.684-1.697-2.939.336-1.256 1.684-2.034 2.939-1.697l8.404 2.251c1.256.337 2.033 1.684 1.697 2.94-.337 1.255-1.684 2.033-2.94 1.697zm-27.528-7.377l8.403 2.252c1.256.337 2.603-.441 2.94-1.697.336-1.256-.442-2.603-1.697-2.939l-8.404-2.252c-1.256-.337-2.603.441-2.939 1.697-.337 1.256.441 2.603 1.697 2.939zm-10.722-2.873l-19.125-5.124c-1.256-.337-2.034-1.684-1.698-2.94.337-1.255 1.684-2.033 2.94-1.697l19.125 5.125c1.256.337 2.034 1.684 1.697 2.939-.336 1.256-1.683 2.034-2.939 1.697z" fill="url(#paint3_linear)"/><path d="M127.833 26.613L52.571 70.065l24.643 42.683 75.262-43.453-24.643-42.682z" fill="url(#paint4_linear)"/><path d="M100.949 76.146l-23.735 36.602-24.643-42.683 48.378 6.08z" fill="url(#paint5_linear)"/><path d="M108.495 71.79l43.775-2.376-24.643-42.682-19.132 45.057z" fill="url(#paint6_linear)"/><path d="M152.27 69.414l-74.742 43.401 23.421-36.67a7.556 7.556 0 017.546-4.356l43.775-2.375z" fill="url(#paint7_linear)"/><path d="M126.759 26.657L52.528 69.514l45.695 1.91c3.37.655 6.429-1.111 7.545-4.357l20.991-40.41z" fill="url(#paint8_linear)"/><path d="M386.605 67.947c-18.363-5.93-36.515-.844-40.45 11.344-1.049 3.25.869 6.203 3.459 5.962l9.982-.904c2.427-.293 4.347-2.903 4.211-5.818l-.193-3.293s15.144 8.12 37.214 12.016l-2.344 3.37c-1.437 2.228-1.464 5.09.009 6.643l7.091 7.493c1.745 1.82 4.655 1.144 6.087-1.623.425-.76.687-1.573.95-2.386 4.26-12.083-7.49-26.823-26.016-32.804z" fill="url(#paint9_linear)"/><path d="M394.208 123.877l-46.315-14.954 13.751-19.247c2.612-3.643 7.242-5.199 11.467-3.835l13.976 4.513c4.225 1.364 7.071 5.333 7.059 9.816l.062 23.707z" fill="url(#paint10_linear)"/><path fill-rule="evenodd" clip-rule="evenodd" d="M98.84 313.257l-65.444 37.785c-6.432 3.713-8.633 11.926-4.92 18.359l21.81 37.776c3.537 6.126 11.224 8.358 17.543 5.391l-.788 29.995 22.9-42.626 44.208-25.523c6.432-3.714 8.633-11.927 4.919-18.359l-21.81-37.776c-3.611-6.492-11.985-8.735-18.418-5.022zm-11.658 42.599a8.96 8.96 0 10-17.31-4.638 8.96 8.96 0 0017.31 4.638zm-11.98 34.349l36.652-21.162c-3.713-6.432-11.985-8.735-18.52-4.962l-13.17 7.604c-6.432 3.714-8.735 11.986-4.963 18.52z" fill="url(#paint11_linear)"/></g><defs><linearGradient id="paint0_linear" x1="409.771" y1="259.379" x2="425.178" y2="316.877" gradientUnits="userSpaceOnUse"><stop stop-color="#57B6FF"/><stop offset="1" stop-color="#57B6FF" stop-opacity="0"/></linearGradient><linearGradient id="paint1_linear" x1="390.815" y1="241.835" x2="413.358" y2="325.966" gradientUnits="userSpaceOnUse"><stop stop-color="#57B6FF"/><stop offset="1" stop-color="#57B6FF" stop-opacity="0"/></linearGradient><linearGradient id="paint2_linear" x1="382.586" y1="262.014" x2="387.974" y2="282.121" gradientUnits="userSpaceOnUse"><stop stop-color="#57B6FF"/><stop offset="1" stop-color="#57B6FF" stop-opacity="0"/></linearGradient><linearGradient id="paint3_linear" x1="490.319" y1="385.943" x2="459.216" y2="502.018" gradientUnits="userSpaceOnUse"><stop stop-color="#57B6FF"/><stop offset="1" stop-color="#57B6FF" stop-opacity="0"/></linearGradient><linearGradient id="paint4_linear" x1="89.953" y1="47.907" x2="120.453" y2="100.734" gradientUnits="userSpaceOnUse"><stop stop-color="#57B6FF"/><stop offset="1" stop-color="#57B6FF" stop-opacity="0"/></linearGradient><linearGradient id="paint5_linear" x1="89.953" y1="47.907" x2="120.453" y2="100.734" gradientUnits="userSpaceOnUse"><stop stop-color="#57B6FF"/><stop offset="1" stop-color="#57B6FF" stop-opacity="0"/></linearGradient><linearGradient id="paint6_linear" x1="89.953" y1="47.907" x2="120.453" y2="100.734" gradientUnits="userSpaceOnUse"><stop stop-color="#57B6FF"/><stop offset="1" stop-color="#57B6FF" stop-opacity="0"/></linearGradient><linearGradient id="paint7_linear" x1="89.953" y1="47.907" x2="120.453" y2="100.734" gradientUnits="userSpaceOnUse"><stop stop-color="#57B6FF"/><stop offset="1" stop-color="#57B6FF" stop-opacity="0"/></linearGradient><linearGradient id="paint8_linear" x1="89.953" y1="47.907" x2="120.453" y2="100.734" gradientUnits="userSpaceOnUse"><stop stop-color="#57B6FF"/><stop offset="1" stop-color="#57B6FF" stop-opacity="0"/></linearGradient><linearGradient id="paint9_linear" x1="386.526" y1="67.921" x2="367.451" y2="127.003" gradientUnits="userSpaceOnUse"><stop stop-color="#57B6FF"/><stop offset="1" stop-color="#57B6FF" stop-opacity="0"/></linearGradient><linearGradient id="paint10_linear" x1="386.526" y1="67.921" x2="367.451" y2="127.003" gradientUnits="userSpaceOnUse"><stop stop-color="#57B6FF"/><stop offset="1" stop-color="#57B6FF" stop-opacity="0"/></linearGradient><linearGradient id="paint11_linear" x1="64.74" y1="332.945" x2="123.351" y2="434.461" gradientUnits="userSpaceOnUse"><stop stop-color="#57B6FF"/><stop offset="1" stop-color="#57B6FF" stop-opacity="0"/></linearGradient></defs></svg>