<svg width="189" height="189" viewBox="0 0 189 189" fill="none" xmlns="http://www.w3.org/2000/svg">
<path d="M15 15H21.075V174H15V15Z" fill="white"/>
<path d="M174 167.924V174H15L15 167.924H174Z" fill="white"/>
<path d="M21.075 27.1529H27.15V33.2293H21.075V27.1529Z" fill="white"/>
<path d="M21.075 39.3057H27.15V45.3822H21.075V39.3057Z" fill="white"/>
<path d="M33.225 39.3057H39.3V45.3822H33.225V39.3057Z" fill="white"/>
<path d="M39.3 45.3822H45.375V51.4586H39.3V45.3822Z" fill="white"/>
<path d="M39.3 15H45.375V21.0764H39.3V15Z" fill="white"/>
<path d="M39.3 33.2293H45.375V39.3057H39.3V33.2293Z" fill="white"/>
<path d="M21.075 51.4586H27.15V57.535H21.075V51.4586Z" fill="white"/>
<path d="M33.225 51.4586H39.3V57.535H33.225V51.4586Z" fill="white"/>
<path d="M33.225 88.9299H39.3V95.0064H33.225V88.9299Z" fill="white"/>
<path d="M39.3 57.535H45.375V63.6115H39.3V57.535Z" fill="white"/>
<path d="M39.3 82.8535H45.375V88.9299H39.3V82.8535Z" fill="white"/>
<path d="M51.45 95.0064H57.525V101.083H51.45V95.0064Z" fill="white"/>
<path d="M57.525 88.9299H63.6V95.0064H57.525V88.9299Z" fill="white"/>
<path d="M57.525 82.8535H69.675V88.9299H57.525V82.8535Z" fill="white"/>
<path d="M39.3 107.159H45.375V113.236H39.3V107.159Z" fill="white"/>
<path d="M81.825 113.236H87.9V119.312H81.825V113.236Z" fill="white"/>
<path d="M81.825 95.0064H87.9V101.083H81.825V95.0064Z" fill="white"/>
<path d="M87.9 101.083H93.975V107.159H87.9V101.083Z" fill="white"/>
<path d="M106.125 101.083H112.2V107.159H106.125V101.083Z" fill="white"/>
<path d="M100.05 119.312H106.125V125.389H100.05V119.312Z" fill="white"/>
<path d="M93.975 119.312H100.05V131.465H93.975V119.312Z" fill="white"/>
<path d="M93.975 107.159H100.05V113.236H93.975V107.159Z" fill="white"/>
<path d="M100.05 107.159H112.2V113.236H100.05V107.159Z" fill="white"/>
<path d="M137.513 107.159H156.75V113.236H137.513V107.159Z" fill="white"/>
<path d="M130.425 113.236H142.575V119.312H130.425V113.236Z" fill="white"/>
<path d="M118.275 101.083H137.513V107.159H118.275V101.083Z" fill="white"/>
<path d="M118.275 107.159H124.35V113.236H118.275V107.159Z" fill="white"/>
<path d="M118.275 88.9299H137.513V95.0064H118.275V88.9299Z" fill="white"/>
<path d="M154.725 88.9299H173.963V95.0064H154.725V88.9299Z" fill="white"/>
<path d="M154.725 82.8535H166.875V88.9299H154.725V82.8535Z" fill="white"/>
<path d="M161.812 95.0064H173.963V101.083H161.812V95.0064Z" fill="white"/>
<path d="M161.812 107.159H173.963V113.236H161.812V107.159Z" fill="white"/>
<path d="M100.05 113.236H112.2V119.312H100.05V113.236Z" fill="white"/>
<path d="M93.975 95.0064H100.05V101.083H93.975V95.0064Z" fill="white"/>
<path d="M87.9 57.535H93.975V63.6115H87.9V57.535Z" fill="white"/>
<path d="M93.975 51.4586H100.05V57.535H93.975V51.4586Z" fill="white"/>
<path d="M100.05 57.535H106.125V69.6879H100.05V57.535Z" fill="white"/>
<path d="M112.2 57.535H118.275V69.6879H112.2V57.535Z" fill="white"/>
<path d="M124.35 63.6115V69.6879H112.2V63.6115H124.35Z" fill="white"/>
<path d="M118.275 76.7771V82.8535H112.2V76.7771H118.275Z" fill="white"/>
<path d="M124.35 51.4586V57.535H118.275V51.4586H124.35Z" fill="white"/>
<path d="M124.35 27.1529V33.2293H118.275V27.1529H124.35Z" fill="white"/>
<path d="M130.425 15V21.0764L124.35 21.0764V15L130.425 15Z" fill="white"/>
<path d="M136.5 21.0764V27.1529H130.425V21.0764L136.5 21.0764Z" fill="white"/>
<path d="M142.575 15V21.0764L136.5 21.0764V15L142.575 15Z" fill="white"/>
<path d="M148.65 21.0764V33.2293H142.575V21.0764L148.65 21.0764Z" fill="white"/>
<path d="M154.725 15V27.1529H148.65V15L154.725 15Z" fill="white"/>
<path d="M166.875 15V27.1529H160.8V15L166.875 15Z" fill="white"/>
<path d="M172.95 27.1529H160.8V21.0764L172.95 21.0764V27.1529Z" fill="white"/>
<path d="M160.8 33.2293H154.725V27.1529H160.8V33.2293Z" fill="white"/>
<path d="M172.95 39.3057H160.8V33.2293H172.95V39.3057Z" fill="white"/>
<path d="M166.875 45.3822H160.8V39.3057H166.875V45.3822Z" fill="white"/>
<path d="M172.95 51.4586H166.875V45.3822H172.95V51.4586Z" fill="white"/>
<path d="M154.725 51.4586H148.65V45.3822H154.725V51.4586Z" fill="white"/>
<path d="M148.65 45.3822H142.575V39.3057H148.65V45.3822Z" fill="white"/>
<path d="M142.575 45.3822H136.5V39.3057H142.575V45.3822Z" fill="white"/>
<path d="M136.5 45.3822H130.425V39.3057H136.5V45.3822Z" fill="white"/>
<path d="M142.575 57.535H130.425V51.4586H142.575V57.535Z" fill="white"/>
<path d="M136.5 39.3057H130.425V33.2293H136.5V39.3057Z" fill="white"/>
<path d="M136.5 33.2293H130.425V27.1529H136.5V33.2293Z" fill="white"/>
<path d="M154.725 45.3822H148.65V39.3057H154.725V45.3822Z" fill="white"/>
<path d="M100.05 88.9299H106.125V101.083H100.05V88.9299Z" fill="white"/>
<path d="M93.975 69.6879H100.05V82.8535H93.975V69.6879Z" fill="white"/>
<path d="M87.9 82.8535H93.975V88.9299H87.9V82.8535Z" fill="white"/>
<path d="M93.975 82.8535H106.125V88.9299H93.975V82.8535Z" fill="white"/>
<path d="M87.9 33.2293H93.975V39.3057H87.9V33.2293Z" fill="white"/>
<path d="M148.65 58.5478H154.725V64.6242H148.65V58.5478Z" fill="white"/>
<path d="M166.875 58.5478H172.95V82.8535H166.875V58.5478Z" fill="white"/>
<path d="M148.65 70.7006H154.725V76.7771H148.65V70.7006Z" fill="white"/>
<path d="M160.8 70.7006H166.875V76.7771H160.8V70.7006Z" fill="white"/>
<path d="M87.9 15H93.975V21.0764H87.9V15Z" fill="white"/>
<path d="M93.975 21.0764H100.05V27.1529H93.975V21.0764Z" fill="white"/>
<path d="M75.75 15H81.825V21.0764H75.75V15Z" fill="white"/>
<path d="M81.825 125.389H87.9V131.465H81.825V125.389Z" fill="white"/>
<path d="M69.675 125.389H75.75V131.465H69.675V125.389Z" fill="white"/>
<path d="M63.6 107.159H69.675V113.236H63.6V107.159Z" fill="white"/>
<path d="M63.6 95.0064H69.675V107.159H63.6V95.0064Z" fill="white"/>
<path d="M69.675 88.9299H75.75V101.083H69.675V88.9299Z" fill="white"/>
<path d="M69.675 76.7771H75.75V82.8535H69.675V76.7771Z" fill="white"/>
<path d="M57.525 51.4586H63.6V57.535H57.525V51.4586Z" fill="white"/>
<path d="M81.825 63.6115H87.9V82.8535H81.825V63.6115Z" fill="white"/>
<path d="M75.75 45.3822H81.825V63.6115H75.75V45.3822Z" fill="white"/>
<path d="M136.5 69.6879H142.575V87.9172H136.5V69.6879Z" fill="white"/>
<path d="M106.125 39.3057H112.2V57.535H106.125V39.3057Z" fill="white"/>
<path d="M112.2 15H118.275V39.3057H112.2V15Z" fill="white"/>
<path d="M81.825 27.1529H87.9V45.3822H81.825V27.1529Z" fill="white"/>
<path d="M142.575 51.4586H148.65V69.6879H142.575V51.4586Z" fill="white"/>
<path d="M100.05 15H106.125V39.3057H100.05V15Z" fill="white"/>
<path d="M87.9 51.4586V57.535H69.675V51.4586H87.9Z" fill="white"/>
<path d="M148.65 75.7643V81.8408H130.425V75.7643H148.65Z" fill="white"/>
<path d="M118.275 45.3822V51.4586H100.05V45.3822H118.275Z" fill="white"/>
<path d="M57.525 63.6115H81.825V69.6879H57.525V63.6115Z" fill="white"/>
<path d="M75.75 82.8535H81.825V88.9299H75.75V82.8535Z" fill="white"/>
<path d="M63.6 57.535H69.675V63.6115H63.6V57.535Z" fill="white"/>
<path d="M51.45 57.535H57.525V63.6115H51.45V57.535Z" fill="white"/>
<path d="M63.6 45.3822H69.675V51.4586H63.6V45.3822Z" fill="white"/>
<path d="M51.45 45.3822H57.525V51.4586H51.45V45.3822Z" fill="white"/>
<path d="M51.45 39.3057H63.6V45.3822H51.45V39.3057Z" fill="white"/>
<path d="M63.6 33.2293H75.75V39.3057H63.6V33.2293Z" fill="white"/>
<path d="M69.675 27.1529H75.75V33.2293H69.675V27.1529Z" fill="white"/>
<path d="M57.525 27.1529H63.6V33.2293H57.525V27.1529Z" fill="white"/>
<path d="M51.45 15H57.525V27.1529H51.45V15Z" fill="white"/>
<path d="M63.6 15H69.675V27.1529H63.6V15Z" fill="white"/>
<path d="M33.225 149.694H39.3V155.771H33.225V149.694Z" fill="white"/>
<path d="M27.15 143.618H33.225V149.694H27.15V143.618Z" fill="white"/>
<path d="M27.15 155.771H33.225V161.847H27.15V155.771Z" fill="white"/>
<path d="M21.075 161.847H27.15V167.924H21.075V161.847Z" fill="white"/>
<path d="M33.225 161.847H39.3V167.924H33.225V161.847Z" fill="white"/>
<path d="M45.375 161.847H51.45V167.924H45.375V161.847Z" fill="white"/>
<path d="M51.45 149.694H57.525V155.771H51.45V149.694Z" fill="white"/>
<path d="M87.9 149.694H93.975V155.771H87.9V149.694Z" fill="white"/>
<path d="M87.9 137.541H93.975V143.618H87.9V137.541Z" fill="white"/>
<path d="M93.975 137.541H100.05V143.618H93.975V137.541Z" fill="white"/>
<path d="M100.05 137.541H106.125V143.618H100.05V137.541Z" fill="white"/>
<path d="M106.125 125.389H112.2V143.618H106.125V125.389Z" fill="white"/>
<path d="M112.2 125.389H118.275V131.465H112.2V125.389Z" fill="white"/>
<path d="M112.2 119.312H124.35V125.389H112.2V119.312Z" fill="white"/>
<path d="M81.825 161.847H87.9V167.924H81.825V161.847Z" fill="white"/>
<path d="M93.975 155.771H100.05V161.847H93.975V155.771Z" fill="white"/>
<path d="M143.588 161.847H149.663V167.924H143.588V161.847Z" fill="white"/>
<path d="M155.738 161.847H161.812V167.924H155.738V161.847Z" fill="white"/>
<path d="M161.812 149.694H167.888V155.771H161.812V149.694Z" fill="white"/>
<path d="M167.888 155.771H173.963V161.847H167.888V155.771Z" fill="white"/>
<path d="M167.888 143.618H173.963V149.694H167.888V143.618Z" fill="white"/>
<path d="M161.812 113.236H167.888V119.312H161.812V113.236Z" fill="white"/>
<path d="M161.812 125.389H167.888V131.465H161.812V125.389Z" fill="white"/>
<path d="M136.5 125.389H142.575V131.465H136.5V125.389Z" fill="white"/>
<path d="M142.575 125.389H148.65V137.541H142.575V125.389Z" fill="white"/>
<path d="M148.65 137.541H154.725V149.694H148.65V137.541Z" fill="white"/>
<path d="M154.725 137.541H167.888V143.618H154.725V137.541Z" fill="white"/>
<path d="M161.812 131.465H173.963V137.541H161.812V131.465Z" fill="white"/>
<path d="M130.425 119.312H173.963V125.389H130.425V119.312Z" fill="white"/>
<path d="M125.363 161.847H137.513V167.924H125.363V161.847Z" fill="white"/>
<path d="M125.363 149.694H137.513V155.771H125.363V149.694Z" fill="white"/>
<path d="M118.275 137.541H130.425V143.618H118.275V137.541Z" fill="white"/>
<path d="M124.35 137.541V125.389H130.425V137.541H124.35Z" fill="white"/>
<path d="M130.425 143.618V131.465H136.5V143.618H130.425Z" fill="white"/>
<path d="M137.513 155.771V143.618H143.588V155.771H137.513Z" fill="white"/>
<path d="M143.588 161.847V149.694H161.812V161.847H143.588Z" fill="white"/>
<path d="M75.75 137.541H81.825V143.618H75.75V137.541Z" fill="white"/>
<path d="M57.525 137.541H63.6V149.694H57.525V137.541Z" fill="white"/>
<path d="M63.6 143.618H69.675V155.771H63.6V143.618Z" fill="white"/>
<path d="M69.675 143.618H118.275V149.694H69.675V143.618Z" fill="white"/>
<path d="M57.525 161.847H69.675V167.924H57.525V161.847Z" fill="white"/>
<path d="M39.3 119.312H45.375V131.465H39.3V119.312Z" fill="white"/>
<path d="M51.45 119.312H63.6V131.465H51.45V119.312Z" fill="white"/>
<path d="M63.6 113.236H81.825V125.389H63.6V113.236Z" fill="white"/>
<path d="M39.3 137.541H45.375V149.694H39.3V137.541Z" fill="white"/>
<path d="M39.3 149.694H45.375V161.847H39.3V149.694Z" fill="white"/>
<path d="M45.375 155.771H81.825V161.847H45.375V155.771Z" fill="white"/>
<path d="M33.225 131.465H39.3V143.618H33.225V131.465Z" fill="white"/>
<path d="M45.375 107.159H51.45V137.541H45.375V107.159Z" fill="white"/>
<path d="M39.3 51.4586H45.375V57.535H39.3V51.4586Z" fill="white"/>
<path d="M45.375 51.4586H51.45V57.535H45.375V51.4586Z" fill="white"/>
<path d="M21.075 76.7771H27.15V82.8535H21.075V76.7771Z" fill="white"/>
<path d="M27.15 82.8535H33.225V88.9299H27.15V82.8535Z" fill="white"/>
<path d="M27.15 33.2293H33.225V51.4586H27.15V33.2293Z" fill="white"/>
<path d="M27.15 15H33.225V27.1529H27.15V15Z" fill="white"/>
<path d="M33.225 21.0764H39.3V33.2293H33.225V21.0764Z" fill="white"/>
<path d="M45.375 27.1529H51.45V39.3057H45.375V27.1529Z" fill="white"/>
<path d="M33.225 64.6242H39.3V82.8535H33.225V64.6242Z" fill="white"/>
<path d="M45.375 69.6879H51.45V95.0064H45.375V69.6879Z" fill="white"/>
<path d="M51.45 69.6879H57.525V88.9299H51.45V69.6879Z" fill="white"/>
<path d="M33.225 107.159H39.3V120.325H33.225V107.159Z" fill="white"/>
<path d="M21.075 88.9299H27.15V107.159H21.075V88.9299Z" fill="white"/>
<path d="M21.075 125.389H27.15V131.465H21.075V125.389Z" fill="white"/>
<path d="M27.15 95.0064H33.225V131.465H27.15V95.0064Z" fill="white"/>
<path d="M107.137 149.694H125.363V167.924H107.137V149.694Z" fill="white"/>
<path d="M48.8772 3H9C5.68629 3 3 5.68629 3 8.99999V48.8772" stroke="white" stroke-width="5" stroke-linecap="round"/>
<path d="M48.8772 186.415H9C5.68629 186.415 3 183.728 3 180.415V140.537" stroke="white" stroke-width="5" stroke-linecap="round"/>
<path d="M140.123 3H180C183.314 3 186 5.68629 186 8.99999V48.8772" stroke="white" stroke-width="5" stroke-linecap="round"/>
<path d="M140.123 186.415H180C183.314 186.415 186 183.728 186 180.415V140.537" stroke="white" stroke-width="5" stroke-linecap="round"/>
</svg>
