<svg width="643" height="472" viewBox="0 0 643 472" fill="none" xmlns="http://www.w3.org/2000/svg">
<path d="M368.57 392.383C252.706 392.383 153.645 397.215 113.74 404.06C118.99 409.563 124.416 414.797 130.192 419.898C177.097 425.535 266.358 429.293 368.57 429.293C519.613 429.293 642.128 420.971 642.128 410.771C642.128 400.57 519.613 392.383 368.57 392.383Z" fill="#338CD2"/>
<g opacity="0.3">
<path d="M570.061 159.944H456.364V46.2471H329.722V159.944H215.85V286.586H329.722V400.458H456.364V286.586H570.061V159.944Z" fill="url(#paint0_linear)"/>
<path d="M333.745 134.406C332.346 134.406 331.297 133.707 330.597 132.482L322.026 117.089L313.98 132.482C313.28 133.707 312.055 134.406 310.831 134.406C309.432 134.406 308.207 133.707 307.682 132.482L288.616 95.7491L267.626 132.482C266.926 133.532 265.702 134.231 264.477 134.231H243.662C241.738 134.231 239.989 132.657 239.989 130.558C239.989 128.634 241.563 126.885 243.662 126.885H262.204L285.293 86.1286C285.993 85.0791 287.217 84.3794 288.441 84.3794C289.841 84.3794 290.89 85.0791 291.59 86.3035L310.656 122.687L318.702 107.469C319.402 106.244 320.626 105.545 321.851 105.545C323.075 105.545 324.475 106.244 324.999 107.469L333.396 122.512L345.465 96.9736C346.165 95.7491 347.389 94.8745 348.788 94.8745C350.188 94.8745 351.412 95.7491 352.112 97.1485L364.531 126.885H380.624C382.548 126.885 384.297 128.459 384.297 130.558C384.297 132.482 382.723 134.231 380.624 134.231H362.082C360.683 134.231 359.284 133.357 358.759 131.957L348.439 107.469L336.719 131.957C336.369 133.532 335.145 134.406 333.745 134.406Z" fill="#4DD0E1"/>
<path d="M178.242 208.747V190.73H142.384V208.747C142.384 214.17 138.011 218.542 132.588 218.542C127.166 218.542 122.793 222.915 122.793 228.338V383.666C122.793 392.937 130.314 400.283 139.41 400.283H180.866C190.137 400.283 197.483 392.762 197.483 383.666V228.338C197.483 222.915 193.11 218.542 187.688 218.542C182.615 218.542 178.242 214.17 178.242 208.747Z" fill="#4DD0E1"/>
<path d="M197.658 249.153H132.588V306.177H197.658V249.153Z" fill="white"/>
<path d="M188.038 218.542C182.616 218.542 178.243 214.17 178.243 208.747V190.73H164.949V208.747C164.949 214.17 169.322 218.542 174.744 218.542C180.167 218.542 184.54 222.915 184.54 228.338V383.666C184.54 392.937 177.018 400.283 167.922 400.283H181.216C190.487 400.283 197.834 392.762 197.834 383.666V228.338C197.834 222.915 193.461 218.542 188.038 218.542Z" fill="url(#paint1_linear)"/>
<path d="M178.242 190.73H142.383V206.998H178.242V190.73Z" fill="url(#paint2_linear)"/>
<path d="M179.292 199.826H141.509C138.536 199.826 136.262 197.377 136.262 194.579V181.285C136.262 178.311 138.711 176.037 141.509 176.037H179.292C182.265 176.037 184.539 178.486 184.539 181.285V194.579C184.539 197.377 182.091 199.826 179.292 199.826Z" fill="white"/>
<path d="M160.4 148.75C154.628 148.75 149.905 153.473 149.905 159.245V175.687H170.896V159.245C170.896 153.473 166.173 148.75 160.4 148.75Z" fill="white"/>
<path d="M163.374 159.245V175.687H170.896V159.245C170.896 153.473 166.173 148.75 160.401 148.75C159.001 148.75 157.777 149.1 156.728 149.449C160.576 151.024 163.374 154.872 163.374 159.245Z" fill="url(#paint3_linear)"/>
<path d="M179.293 175.687H171.771C174.745 175.687 177.019 178.136 177.019 180.935V194.229C177.019 197.202 174.57 199.476 171.771 199.476H179.293C182.266 199.476 184.54 197.027 184.54 194.229V180.935C184.54 178.136 182.091 175.687 179.293 175.687Z" fill="url(#paint4_linear)"/>
<path opacity="0.3" d="M137.486 314.398C134.862 314.398 132.588 312.299 132.588 309.5V236.034C132.588 233.411 134.687 231.137 137.486 231.137C140.11 231.137 142.384 233.236 142.384 236.034V309.5C142.384 312.299 140.285 314.398 137.486 314.398Z" fill="white"/>
<path opacity="0.3" d="M137.486 343.435C134.862 343.435 132.588 341.336 132.588 338.537V331.89C132.588 329.266 134.687 326.992 137.486 326.992C140.11 326.992 142.384 329.091 142.384 331.89V338.537C142.384 341.336 140.285 343.435 137.486 343.435Z" fill="white"/>
<path d="M559.216 288.51H365.406C361.383 288.51 358.234 291.659 358.234 295.682V395.036C358.234 399.059 361.383 402.207 365.406 402.207H559.216C563.24 402.207 566.388 399.059 566.388 395.036V295.682C566.388 291.659 563.24 288.51 559.216 288.51Z" fill="#4DD0E1"/>
<path d="M408.324 336.002C414.745 329.581 414.745 319.17 408.324 312.749C401.903 306.328 391.492 306.328 385.071 312.749C378.65 319.17 378.65 329.581 385.071 336.002C391.492 342.423 401.903 342.423 408.324 336.002Z" fill="#28BBC6"/>
<path d="M408.291 387.092C414.712 380.671 414.712 370.26 408.291 363.839C401.87 357.418 391.459 357.418 385.038 363.839C378.617 370.26 378.617 380.671 385.038 387.092C391.459 393.513 401.87 393.513 408.291 387.092Z" fill="#28BBC6"/>
<path d="M449.692 339.604C458.09 336.149 462.097 326.54 458.641 318.142C455.186 309.744 445.577 305.737 437.179 309.192C428.781 312.648 424.774 322.257 428.229 330.655C431.685 339.053 441.294 343.059 449.692 339.604Z" fill="#28BBC6"/>
<path d="M449.674 390.685C458.072 387.23 462.079 377.621 458.624 369.223C455.168 360.825 445.559 356.818 437.161 360.273C428.763 363.729 424.757 373.338 428.212 381.736C431.667 390.134 441.276 394.14 449.674 390.685Z" fill="#28BBC6"/>
<path d="M496.562 339.557C504.96 336.102 508.967 326.493 505.511 318.095C502.056 309.697 492.447 305.69 484.049 309.145C475.651 312.6 471.644 322.209 475.1 330.607C478.555 339.005 488.164 343.012 496.562 339.557Z" fill="#28BBC6"/>
<path d="M496.544 390.638C504.942 387.183 508.949 377.574 505.493 369.176C502.038 360.778 492.429 356.771 484.031 360.226C475.633 363.681 471.626 373.29 475.082 381.688C478.537 390.086 488.146 394.093 496.544 390.638Z" fill="#28BBC6"/>
<path d="M543.27 339.576C551.668 336.121 555.675 326.512 552.219 318.114C548.764 309.716 539.155 305.709 530.757 309.164C522.359 312.62 518.352 322.229 521.808 330.627C525.263 339.025 534.872 343.032 543.27 339.576Z" fill="#28BBC6"/>
<path d="M543.252 390.657C551.65 387.202 555.657 377.593 552.202 369.195C548.747 360.797 539.138 356.79 530.74 360.245C522.342 363.701 518.335 373.309 521.79 381.707C525.245 390.105 534.854 394.112 543.252 390.657Z" fill="#28BBC6"/>
<path d="M409.219 322.647C410.674 313.683 404.587 305.237 395.623 303.783C386.659 302.328 378.213 308.415 376.759 317.379C375.304 326.343 381.391 334.788 390.355 336.243C399.319 337.698 407.764 331.611 409.219 322.647Z" fill="white"/>
<path d="M389.37 336.088C390.594 336.438 391.818 336.438 393.043 336.438C394.267 336.438 395.492 336.263 396.716 336.088V304.078C395.492 303.728 394.267 303.728 393.043 303.728C391.818 303.728 390.594 303.903 389.37 304.078V336.088Z" fill="#E7EDF4"/>
<path d="M399.34 385.728C407.729 382.253 411.714 372.634 408.238 364.245C404.763 355.855 395.144 351.871 386.755 355.346C378.365 358.821 374.381 368.44 377.856 376.83C381.331 385.219 390.95 389.204 399.34 385.728Z" fill="white"/>
<path d="M389.37 386.64C390.594 386.989 391.818 386.989 393.043 386.989C394.267 386.989 395.492 386.814 396.716 386.64V354.629C395.492 354.28 394.267 354.28 393.043 354.28C391.818 354.28 390.594 354.454 389.37 354.629V386.64Z" fill="#E7EDF4"/>
<path d="M455.983 322.684C457.401 313.715 451.28 305.294 442.311 303.876C433.342 302.458 424.921 308.579 423.502 317.548C422.084 326.517 428.205 334.938 437.174 336.356C446.143 337.775 454.564 331.654 455.983 322.684Z" fill="white"/>
<path d="M436.073 336.088C437.297 336.438 438.522 336.438 439.746 336.438C440.97 336.438 442.195 336.263 443.419 336.088V304.078C442.195 303.728 440.97 303.728 439.746 303.728C438.522 303.728 437.297 303.903 436.073 304.078V336.088Z" fill="#E7EDF4"/>
<path d="M445.757 385.856C454.215 382.55 458.391 373.013 455.085 364.555C451.778 356.097 442.242 351.921 433.784 355.227C425.326 358.534 421.15 368.071 424.456 376.529C427.762 384.986 437.299 389.163 445.757 385.856Z" fill="white"/>
<path d="M436.073 386.64C437.297 386.99 438.522 386.99 439.746 386.99C440.97 386.99 442.195 386.815 443.419 386.64V354.63C442.195 354.28 440.97 354.28 439.746 354.28C438.522 354.28 437.297 354.455 436.073 354.63V386.64Z" fill="#E7EDF4"/>
<path d="M498.051 331.694C504.472 325.273 504.472 314.863 498.051 308.442C491.63 302.02 481.219 302.02 474.798 308.442C468.377 314.863 468.377 325.273 474.798 331.694C481.219 338.115 491.63 338.115 498.051 331.694Z" fill="white"/>
<path d="M482.777 336.088C484.001 336.438 485.226 336.438 486.45 336.438C487.675 336.438 488.899 336.263 490.123 336.088V304.078C488.899 303.728 487.675 303.728 486.45 303.728C485.226 303.728 484.001 303.903 482.777 304.078V336.088Z" fill="#E7EDF4"/>
<path d="M502.462 374.489C504.556 365.653 499.092 356.792 490.256 354.697C481.421 352.602 472.56 358.066 470.465 366.902C468.37 375.738 473.834 384.599 482.67 386.694C491.506 388.789 500.367 383.324 502.462 374.489Z" fill="white"/>
<path d="M482.776 386.64C484.001 386.989 485.225 386.989 486.45 386.989C487.674 386.989 488.899 386.814 490.123 386.64V354.629C488.899 354.28 487.674 354.28 486.45 354.28C485.225 354.28 484.001 354.454 482.776 354.629V386.64Z" fill="#E7EDF4"/>
<path d="M549.466 322.576C550.916 313.611 544.825 305.168 535.86 303.718C526.895 302.267 518.453 308.359 517.002 317.324C515.552 326.288 521.644 334.731 530.608 336.182C539.573 337.632 548.016 331.54 549.466 322.576Z" fill="white"/>
<path d="M529.655 336.088C530.88 336.438 532.104 336.438 533.329 336.438C534.553 336.438 535.777 336.263 537.002 336.088V304.078C535.777 303.728 534.553 303.728 533.329 303.728C532.104 303.728 530.88 303.903 529.655 304.078V336.088Z" fill="#E7EDF4"/>
<path d="M539.58 385.748C547.978 382.293 551.985 372.684 548.53 364.286C545.075 355.888 535.466 351.881 527.068 355.337C518.67 358.792 514.663 368.401 518.118 376.799C521.573 385.197 531.182 389.204 539.58 385.748Z" fill="white"/>
<path d="M529.655 386.64C530.879 386.989 532.104 386.989 533.328 386.989C534.552 386.989 535.777 386.814 537.001 386.64V354.629C535.777 354.28 534.552 354.28 533.328 354.28C532.104 354.28 530.879 354.454 529.655 354.629V386.64Z" fill="#E7EDF4"/>
<path d="M196.609 145.076C193.811 145.076 191.537 142.802 191.537 140.004V121.637C191.537 118.838 193.811 116.564 196.609 116.564C199.408 116.564 201.682 118.838 201.682 121.637V140.004C201.682 142.802 199.408 145.076 196.609 145.076Z" fill="#235196"/>
<path d="M182.266 130.733C182.266 127.934 184.54 125.66 187.338 125.66H205.705C208.504 125.66 210.777 127.934 210.777 130.733C210.777 133.532 208.504 135.805 205.705 135.805H187.338C184.54 135.98 182.266 133.706 182.266 130.733Z" fill="#235196"/>
<path d="M14.3436 414.627C11.5449 414.627 9.271 412.353 9.271 409.554V391.188C9.271 388.389 11.5449 386.115 14.3436 386.115C17.1423 386.115 19.4163 388.389 19.4163 391.188V409.554C19.4163 412.353 17.1423 414.627 14.3436 414.627Z" fill="#E7EDF4"/>
<path d="M0 400.458C0 397.659 2.27394 395.385 5.07264 395.385H23.4391C26.2378 395.385 28.5118 397.659 28.5118 400.458C28.5118 403.257 26.2378 405.531 23.4391 405.531H5.07264C2.27394 405.531 0 403.257 0 400.458Z" fill="#E7EDF4"/>
<path d="M96.9056 472C94.1069 472 91.833 469.726 91.833 466.927V448.561C91.833 445.762 94.1069 443.488 96.9056 443.488C99.7044 443.488 101.978 445.762 101.978 448.561V466.927C101.978 469.726 99.7044 472 96.9056 472Z" fill="#E7EDF4"/>
<path d="M82.562 457.657C82.562 454.858 84.836 452.584 87.6347 452.584H106.001C108.8 452.584 111.074 454.858 111.074 457.657C111.074 460.455 108.8 462.729 106.001 462.729H87.6347C84.836 462.904 82.562 460.455 82.562 457.657Z" fill="#E7EDF4"/>
<path d="M69.2685 28.7552C66.4698 28.7552 64.1958 26.4813 64.1958 23.6826V5.31606C64.1958 2.51736 66.4698 0.243408 69.2685 0.243408C72.0672 0.243408 74.3411 2.51736 74.3411 5.31606V23.6826C74.5161 26.4813 72.2421 28.7552 69.2685 28.7552Z" fill="#E7EDF4"/>
<path d="M54.9248 14.5868C54.9248 11.7881 57.1987 9.51416 59.9974 9.51416H78.5389C81.3376 9.51416 83.6115 11.7881 83.6115 14.5868C83.6115 17.3855 81.3376 19.6595 78.5389 19.6595H60.1724C57.3737 19.6595 54.9248 17.3855 54.9248 14.5868Z" fill="#E7EDF4"/>
<path d="M550.296 145.076C547.497 145.076 545.223 142.802 545.223 140.004V121.637C545.223 118.838 547.497 116.564 550.296 116.564C553.095 116.564 555.368 118.838 555.368 121.637V140.004C555.368 142.802 553.095 145.076 550.296 145.076Z" fill="#235196"/>
<path d="M535.952 130.733C535.952 127.934 538.226 125.66 541.025 125.66H559.566C562.365 125.66 564.639 127.934 564.639 130.733C564.639 133.532 562.365 135.805 559.566 135.805H541.2C538.226 135.98 535.952 133.706 535.952 130.733Z" fill="#235196"/>
<path d="M506.741 89.2772C503.942 89.2772 501.668 87.0032 501.668 84.2045V65.838C501.668 63.0393 503.942 60.7654 506.741 60.7654C509.539 60.7654 511.813 63.0393 511.813 65.838V84.2045C511.813 87.0032 509.539 89.2772 506.741 89.2772Z" fill="#235196"/>
<path d="M492.397 74.9337C492.397 72.135 494.671 69.8611 497.47 69.8611H515.836C518.635 69.8611 520.909 72.135 520.909 74.9337C520.909 77.7324 518.635 80.0064 515.836 80.0064H497.47C494.671 80.0064 492.397 77.7324 492.397 74.9337Z" fill="#235196"/>
<path d="M596.999 242.156V223.965H503.592V242.156C503.592 246.529 500.093 250.028 495.72 250.028C491.348 250.028 487.849 253.526 487.849 257.899V397.31C487.849 405.006 493.971 411.128 501.668 411.128H598.923C606.619 411.128 612.741 405.006 612.741 397.31V257.899C612.741 253.526 609.243 250.028 604.87 250.028C600.497 250.203 596.999 246.529 596.999 242.156Z" fill="#235196"/>
<path d="M598.748 283.612H502.018V351.656H598.748V283.612Z" fill="#E7EDF4"/>
<path opacity="0.3" d="M516.361 397.31V257.899C516.361 253.526 519.859 250.028 524.232 250.028C528.605 250.028 532.104 246.529 532.104 242.156V223.965H517.585V242.156C517.585 246.529 514.087 250.028 509.714 250.028C505.341 250.028 501.843 253.526 501.843 257.899V397.31C501.843 405.006 507.965 411.128 515.661 411.128H530.18C522.658 411.128 516.361 405.006 516.361 397.31Z" fill="white"/>
<path d="M596.998 242.156V223.965H503.592V242.156C503.592 246.529 500.093 250.028 495.72 250.028H604.87C600.497 250.203 596.998 246.529 596.998 242.156Z" fill="url(#paint5_linear)"/>
<path d="M604.17 234.635H496.595C492.747 234.635 489.598 231.486 489.598 227.638V219.942C489.598 216.093 492.747 212.945 496.595 212.945H604.17C608.018 212.945 611.167 216.093 611.167 219.942V227.638C610.992 231.486 608.018 234.635 604.17 234.635Z" fill="#4DD0E1"/>
<path d="M604.87 250.203C600.497 250.203 596.998 246.704 596.998 242.331V234.81H604.17C608.018 234.81 611.167 231.661 611.167 227.813V220.117C611.167 216.268 608.018 213.12 604.17 213.12H570.935C574.784 213.12 577.932 216.268 577.932 220.117V227.813C577.932 231.661 574.784 234.81 570.935 234.81H563.764V242.331C563.764 246.704 567.262 250.203 571.635 250.203C576.008 250.203 579.506 253.701 579.506 258.074V397.485C579.506 405.181 573.384 411.303 565.688 411.303H598.922C606.619 411.303 612.741 405.181 612.741 397.485V258.074C612.741 253.701 609.243 250.203 604.87 250.203Z" fill="url(#paint6_linear)"/>
<path d="M264.827 359.359H257.655V361.108C252.233 363.732 248.385 369.329 248.385 375.801C248.385 382.273 252.058 387.871 257.655 390.494V392.244H264.827C273.923 392.244 281.27 384.897 281.27 375.801C281.27 366.705 273.923 359.359 264.827 359.359Z" fill="#D1DDE8"/>
<path d="M257.656 392.244C266.737 392.244 274.098 384.882 274.098 375.801C274.098 366.72 266.737 359.359 257.656 359.359C248.575 359.359 241.213 366.72 241.213 375.801C241.213 384.882 248.575 392.244 257.656 392.244Z" fill="white"/>
<path d="M253.807 391.719C255.032 392.069 256.256 392.069 257.48 392.069C258.705 392.069 259.929 391.894 261.154 391.719V359.709C259.929 359.359 258.705 359.359 257.48 359.359C256.256 359.359 255.032 359.534 253.807 359.709V391.719Z" fill="#E7EDF4"/>
<path d="M211.173 359.359H204.001V361.108C198.579 363.732 194.73 369.329 194.73 375.801C194.73 382.273 198.404 387.871 204.001 390.494V392.244H211.173C220.269 392.244 227.615 384.897 227.615 375.801C227.615 366.705 220.269 359.359 211.173 359.359Z" fill="#D1DDE8"/>
<path d="M204.001 392.244C213.082 392.244 220.443 384.882 220.443 375.801C220.443 366.72 213.082 359.359 204.001 359.359C194.92 359.359 187.559 366.72 187.559 375.801C187.559 384.882 194.92 392.244 204.001 392.244Z" fill="white"/>
<path d="M200.328 391.719C201.552 392.069 202.777 392.069 204.001 392.069C205.225 392.069 206.45 391.894 207.674 391.719V359.709C206.45 359.359 205.225 359.359 204.001 359.359C202.777 359.359 201.552 359.534 200.328 359.709V391.719Z" fill="#E7EDF4"/>
<path d="M114.922 363.725L81.6872 386.989C75.5651 391.188 74.1657 399.584 78.3638 405.531C82.5618 411.653 90.958 413.052 96.9052 408.854L130.14 385.59C136.262 381.392 137.661 372.996 133.463 367.049C129.265 360.927 120.869 359.527 114.922 363.725Z" fill="#E7EDF4"/>
<path d="M114.922 363.725L98.3047 375.27L113.523 397.135L130.14 385.59C136.262 381.392 137.661 372.996 133.463 367.049C129.265 360.927 120.869 359.527 114.922 363.725Z" fill="#235196"/>
<path d="M129.265 373.696L86.4101 403.782C84.1362 405.356 81.6873 406.056 79.0635 406.231C83.4365 411.653 91.3078 412.878 97.0802 408.854L130.315 385.59C136.087 381.567 137.661 373.696 133.988 367.748C132.939 370.022 131.364 372.121 129.265 373.696Z" fill="url(#paint7_linear)"/>
<path d="M174.414 372.957H133.832C126.486 372.957 120.539 378.904 120.539 386.251C120.539 393.598 126.486 399.545 133.832 399.545H174.414C181.76 399.545 187.707 393.598 187.707 386.251C187.882 378.904 181.935 372.957 174.414 372.957Z" fill="white"/>
<path d="M174.414 372.957H154.298V399.72H174.589C181.936 399.72 187.883 393.772 187.883 386.426C187.883 378.904 181.936 372.957 174.414 372.957Z" fill="#235196"/>
<path d="M180.361 389.4H127.885C125.086 389.4 122.638 388.525 120.539 387.126C121.063 394.122 126.836 399.545 133.832 399.545H174.414C181.41 399.545 187.183 394.122 187.707 387.126C185.608 388.525 183.16 389.4 180.361 389.4Z" fill="url(#paint8_linear)"/>
</g>
<g filter="url(#filter0_d)">
<path d="M330.677 400.458H246.716C240.594 400.458 235.696 395.56 235.696 389.438V254.401H341.872V389.438C341.697 395.385 336.799 400.458 330.677 400.458Z" fill="#10E2BA"/>
<path d="M343.272 270.494H234.122C230.799 270.494 228 267.695 228 264.372V234.111C228 230.787 230.799 227.989 234.122 227.989H343.272C346.595 227.989 349.394 230.787 349.394 234.111V264.372C349.394 267.695 346.595 270.494 343.272 270.494Z" fill="#E7EDF4"/>
<path d="M343.272 270.494H234.122C230.799 270.494 228 267.695 228 264.372V234.111C228 230.787 230.799 227.989 234.122 227.989H343.272C346.595 227.989 349.394 230.787 349.394 234.111V264.372C349.394 267.695 346.595 270.494 343.272 270.494Z" fill="url(#paint9_linear)"/>
<path d="M237.796 234.81C236.746 234.81 235.872 235.685 235.872 236.734V270.493H239.72V236.734C239.72 235.685 238.845 234.81 237.796 234.81Z" fill="#E2EEEC"/>
<path d="M252.314 234.81C251.265 234.81 250.39 235.685 250.39 236.734V270.493H254.238V236.734C254.238 235.685 253.364 234.81 252.314 234.81Z" fill="#F4F4F4"/>
<path d="M267.007 234.81C265.958 234.81 265.083 235.685 265.083 236.734V270.493H268.931V236.734C268.931 235.685 268.057 234.81 267.007 234.81Z" fill="#F9F4F4"/>
<path d="M281.526 234.81C280.476 234.81 279.602 235.685 279.602 236.734V270.493H283.45V236.734C283.45 235.685 282.575 234.81 281.526 234.81Z" fill="white"/>
<path d="M296.044 234.81C294.994 234.81 294.12 235.685 294.12 236.734V270.493H297.968V236.734C297.968 235.685 297.093 234.81 296.044 234.81Z" fill="white"/>
<path d="M310.737 234.81C309.687 234.81 308.812 235.685 308.812 236.734V270.493H312.661V236.734C312.486 235.685 311.786 234.81 310.737 234.81Z" fill="#F9F4F4"/>
<path d="M325.255 234.81C324.206 234.81 323.331 235.685 323.331 236.734V270.493H327.179V236.734C327.179 235.685 326.305 234.81 325.255 234.81Z" fill="#F4F4F4"/>
<path d="M339.773 234.81C338.724 234.81 337.849 235.685 337.849 236.734V270.493H341.697V236.734C341.697 235.685 340.823 234.81 339.773 234.81Z" fill="#ECECEC"/>
<path opacity="0.1" d="M268.757 270.493H250.39V400.458H268.757V270.493Z" fill="white"/>
<path opacity="0.5" d="M343.272 227.813H322.558C325.882 227.813 328.681 230.612 328.681 233.935V264.196C328.681 267.52 325.882 270.318 322.558 270.318H320.984V389.088C320.984 395.211 316.087 400.108 309.964 400.108H330.677C336.8 400.108 341.697 395.211 341.697 389.088V270.318H343.272C346.595 270.318 349.394 267.52 349.394 264.196V233.935C349.394 230.612 346.595 227.813 343.272 227.813Z" fill="url(#paint10_linear)"/>
<path d="M341.426 296H235.426V375H341.426V296Z" fill="url(#paint11_linear)"/>
</g>
<path d="M259.426 307H261.601V364H259.426V307Z" fill="#81828E"/>
<path d="M317.426 361.822V364H259.426L259.426 361.822H317.426Z" fill="#81828E"/>
<path d="M261.601 311.357H263.776V313.535H261.601V311.357Z" fill="#81828E"/>
<path d="M261.601 315.713H263.776V317.892H261.601V315.713Z" fill="#81828E"/>
<path d="M265.951 315.713H268.126V317.892H265.951V315.713Z" fill="#81828E"/>
<path d="M268.126 317.892H270.301V320.07H268.126V317.892Z" fill="#81828E"/>
<path d="M268.126 307H270.301V309.178H268.126V307Z" fill="#81828E"/>
<path d="M268.126 313.535H270.301V315.713H268.126V313.535Z" fill="#81828E"/>
<path d="M261.601 320.07H263.776V322.248H261.601V320.07Z" fill="#81828E"/>
<path d="M265.951 320.07H268.126V322.248H265.951V320.07Z" fill="#81828E"/>
<path d="M265.951 333.503H268.126V335.682H265.951V333.503Z" fill="#81828E"/>
<path d="M268.126 322.248H270.301V324.427H268.126V322.248Z" fill="#81828E"/>
<path d="M268.126 331.325H270.301V333.503H268.126V331.325Z" fill="#81828E"/>
<path d="M272.476 335.682H274.651V337.86H272.476V335.682Z" fill="#81828E"/>
<path d="M274.651 333.503H276.826V335.682H274.651V333.503Z" fill="#81828E"/>
<path d="M274.651 331.325H279.001V333.503H274.651V331.325Z" fill="#81828E"/>
<path d="M268.126 340.038H270.301V342.217H268.126V340.038Z" fill="#81828E"/>
<path d="M283.351 342.217H285.526V344.395H283.351V342.217Z" fill="#81828E"/>
<path d="M283.351 335.682H285.526V337.86H283.351V335.682Z" fill="#81828E"/>
<path d="M285.526 337.86H287.701V340.038H285.526V337.86Z" fill="#81828E"/>
<path d="M292.051 337.86H294.226V340.038H292.051V337.86Z" fill="#81828E"/>
<path d="M289.876 344.395H292.051V346.573H289.876V344.395Z" fill="#81828E"/>
<path d="M287.701 344.395H289.876V348.752H287.701V344.395Z" fill="#81828E"/>
<path d="M287.701 340.038H289.876V342.217H287.701V340.038Z" fill="#81828E"/>
<path d="M289.876 340.038H294.226V342.217H289.876V340.038Z" fill="#81828E"/>
<path d="M303.288 340.038H310.176V342.217H303.288V340.038Z" fill="#81828E"/>
<path d="M300.751 342.217H305.101V344.395H300.751V342.217Z" fill="#81828E"/>
<path d="M296.401 337.86H303.288V340.038H296.401V337.86Z" fill="#81828E"/>
<path d="M296.401 340.038H298.576V342.217H296.401V340.038Z" fill="#81828E"/>
<path d="M296.401 333.503H303.288V335.682H296.401V333.503Z" fill="#81828E"/>
<path d="M309.451 333.503H316.338V335.682H309.451V333.503Z" fill="#81828E"/>
<path d="M309.451 331.325H313.801V333.503H309.451V331.325Z" fill="#81828E"/>
<path d="M311.988 335.682H316.338V337.86H311.988V335.682Z" fill="#81828E"/>
<path d="M311.988 340.038H316.338V342.217H311.988V340.038Z" fill="#81828E"/>
<path d="M289.876 342.217H294.226V344.395H289.876V342.217Z" fill="#81828E"/>
<path d="M287.701 335.682H289.876V337.86H287.701V335.682Z" fill="#81828E"/>
<path d="M285.526 322.248H287.701V324.427H285.526V322.248Z" fill="#81828E"/>
<path d="M287.701 320.07H289.876V322.248H287.701V320.07Z" fill="#81828E"/>
<path d="M289.876 322.248H292.051V326.605H289.876V322.248Z" fill="#81828E"/>
<path d="M294.226 322.248H296.401V326.605H294.226V322.248Z" fill="#81828E"/>
<path d="M298.576 324.427V326.605H294.226V324.427H298.576Z" fill="#81828E"/>
<path d="M296.401 329.146V331.325H294.226V329.146H296.401Z" fill="#81828E"/>
<path d="M298.576 320.07V322.248H296.401V320.07H298.576Z" fill="#81828E"/>
<path d="M298.576 311.357V313.535H296.401V311.357H298.576Z" fill="#81828E"/>
<path d="M300.751 307V309.178L298.576 309.178V307L300.751 307Z" fill="#81828E"/>
<path d="M302.926 309.178V311.357H300.751V309.178L302.926 309.178Z" fill="#81828E"/>
<path d="M305.101 307V309.178L302.926 309.178V307L305.101 307Z" fill="#81828E"/>
<path d="M307.276 309.178V313.535H305.101V309.178L307.276 309.178Z" fill="#81828E"/>
<path d="M309.451 307V311.357H307.276V307L309.451 307Z" fill="#81828E"/>
<path d="M313.801 307V311.357H311.626V307L313.801 307Z" fill="#81828E"/>
<path d="M315.976 311.357H311.626V309.178L315.976 309.178V311.357Z" fill="#81828E"/>
<path d="M311.626 313.535H309.451V311.357H311.626V313.535Z" fill="#81828E"/>
<path d="M315.976 315.713H311.626V313.535H315.976V315.713Z" fill="#81828E"/>
<path d="M313.801 317.892H311.626V315.713H313.801V317.892Z" fill="#81828E"/>
<path d="M315.976 320.07H313.801V317.892H315.976V320.07Z" fill="#81828E"/>
<path d="M309.451 320.07H307.276V317.892H309.451V320.07Z" fill="#81828E"/>
<path d="M307.276 317.892H305.101V315.713H307.276V317.892Z" fill="#81828E"/>
<path d="M305.101 317.892H302.926V315.713H305.101V317.892Z" fill="#81828E"/>
<path d="M302.926 317.892H300.751V315.713H302.926V317.892Z" fill="#81828E"/>
<path d="M305.101 322.248H300.751V320.07H305.101V322.248Z" fill="#81828E"/>
<path d="M302.926 315.713H300.751V313.535H302.926V315.713Z" fill="#81828E"/>
<path d="M302.926 313.535H300.751V311.357H302.926V313.535Z" fill="#81828E"/>
<path d="M309.451 317.892H307.276V315.713H309.451V317.892Z" fill="#81828E"/>
<path d="M289.876 333.503H292.051V337.86H289.876V333.503Z" fill="#81828E"/>
<path d="M287.701 326.605H289.876V331.325H287.701V326.605Z" fill="#81828E"/>
<path d="M285.526 331.325H287.701V333.503H285.526V331.325Z" fill="#81828E"/>
<path d="M287.701 331.325H292.051V333.503H287.701V331.325Z" fill="#81828E"/>
<path d="M285.526 313.535H287.701V315.713H285.526V313.535Z" fill="#81828E"/>
<path d="M307.276 322.611H309.451V324.79H307.276V322.611Z" fill="#81828E"/>
<path d="M313.801 322.611H315.976V331.325H313.801V322.611Z" fill="#81828E"/>
<path d="M307.276 326.968H309.451V329.146H307.276V326.968Z" fill="#81828E"/>
<path d="M311.626 326.968H313.801V329.146H311.626V326.968Z" fill="#81828E"/>
<path d="M285.526 307H287.701V309.178H285.526V307Z" fill="#81828E"/>
<path d="M287.701 309.178H289.876V311.357H287.701V309.178Z" fill="#81828E"/>
<path d="M281.176 307H283.351V309.178H281.176V307Z" fill="#81828E"/>
<path d="M283.351 346.573H285.526V348.752H283.351V346.573Z" fill="#81828E"/>
<path d="M279.001 346.573H281.176V348.752H279.001V346.573Z" fill="#81828E"/>
<path d="M276.826 340.038H279.001V342.217H276.826V340.038Z" fill="#81828E"/>
<path d="M276.826 335.682H279.001V340.038H276.826V335.682Z" fill="#81828E"/>
<path d="M279.001 333.503H281.176V337.86H279.001V333.503Z" fill="#81828E"/>
<path d="M279.001 329.146H281.176V331.325H279.001V329.146Z" fill="#81828E"/>
<path d="M274.651 320.07H276.826V322.248H274.651V320.07Z" fill="#81828E"/>
<path d="M283.351 324.427H285.526V331.325H283.351V324.427Z" fill="#81828E"/>
<path d="M281.176 317.892H283.351V324.427H281.176V317.892Z" fill="#81828E"/>
<path d="M302.926 326.605H305.101V333.14H302.926V326.605Z" fill="#81828E"/>
<path d="M292.051 315.713H294.226V322.248H292.051V315.713Z" fill="#81828E"/>
<path d="M294.226 307H296.401V315.713H294.226V307Z" fill="#81828E"/>
<path d="M283.351 311.357H285.526V317.892H283.351V311.357Z" fill="#81828E"/>
<path d="M305.101 320.07H307.276V326.605H305.101V320.07Z" fill="#81828E"/>
<path d="M289.876 307H292.051V315.713H289.876V307Z" fill="#81828E"/>
<path d="M285.526 320.07V322.248H279.001V320.07H285.526Z" fill="#81828E"/>
<path d="M307.276 328.783V330.962H300.751V328.783H307.276Z" fill="#81828E"/>
<path d="M296.401 317.892V320.07H289.876V317.892H296.401Z" fill="#81828E"/>
<path d="M274.651 324.427H283.351V326.605H274.651V324.427Z" fill="#81828E"/>
<path d="M281.176 331.325H283.351V333.503H281.176V331.325Z" fill="#81828E"/>
<path d="M276.826 322.248H279.001V324.427H276.826V322.248Z" fill="#81828E"/>
<path d="M272.476 322.248H274.651V324.427H272.476V322.248Z" fill="#81828E"/>
<path d="M276.826 317.892H279.001V320.07H276.826V317.892Z" fill="#81828E"/>
<path d="M272.476 317.892H274.651V320.07H272.476V317.892Z" fill="#81828E"/>
<path d="M272.476 315.713H276.826V317.892H272.476V315.713Z" fill="#81828E"/>
<path d="M276.826 313.535H281.176V315.713H276.826V313.535Z" fill="#81828E"/>
<path d="M279.001 311.357H281.176V313.535H279.001V311.357Z" fill="#81828E"/>
<path d="M274.651 311.357H276.826V313.535H274.651V311.357Z" fill="#81828E"/>
<path d="M272.476 307H274.651V311.357H272.476V307Z" fill="#81828E"/>
<path d="M276.826 307H279.001V311.357H276.826V307Z" fill="#81828E"/>
<path d="M265.951 355.287H268.126V357.465H265.951V355.287Z" fill="#81828E"/>
<path d="M263.776 353.108H265.951V355.287H263.776V353.108Z" fill="#81828E"/>
<path d="M263.776 357.465H265.951V359.643H263.776V357.465Z" fill="#81828E"/>
<path d="M261.601 359.643H263.776V361.822H261.601V359.643Z" fill="#81828E"/>
<path d="M265.951 359.643H268.126V361.822H265.951V359.643Z" fill="#81828E"/>
<path d="M270.301 359.643H272.476V361.822H270.301V359.643Z" fill="#81828E"/>
<path d="M272.476 355.287H274.651V357.465H272.476V355.287Z" fill="#81828E"/>
<path d="M285.526 355.287H287.701V357.465H285.526V355.287Z" fill="#81828E"/>
<path d="M285.526 350.93H287.701V353.108H285.526V350.93Z" fill="#81828E"/>
<path d="M287.701 350.93H289.876V353.108H287.701V350.93Z" fill="#81828E"/>
<path d="M289.876 350.93H292.051V353.108H289.876V350.93Z" fill="#81828E"/>
<path d="M292.051 346.573H294.226V353.108H292.051V346.573Z" fill="#81828E"/>
<path d="M294.226 346.573H296.401V348.752H294.226V346.573Z" fill="#81828E"/>
<path d="M294.226 344.395H298.576V346.573H294.226V344.395Z" fill="#81828E"/>
<path d="M283.351 359.643H285.526V361.822H283.351V359.643Z" fill="#81828E"/>
<path d="M287.701 357.465H289.876V359.643H287.701V357.465Z" fill="#81828E"/>
<path d="M305.463 359.643H307.638V361.822H305.463V359.643Z" fill="#81828E"/>
<path d="M309.813 359.643H311.988V361.822H309.813V359.643Z" fill="#81828E"/>
<path d="M311.988 355.287H314.163V357.465H311.988V355.287Z" fill="#81828E"/>
<path d="M314.163 357.465H316.338V359.643H314.163V357.465Z" fill="#81828E"/>
<path d="M314.163 353.108H316.338V355.287H314.163V353.108Z" fill="#81828E"/>
<path d="M311.988 342.217H314.163V344.395H311.988V342.217Z" fill="#81828E"/>
<path d="M311.988 346.573H314.163V348.752H311.988V346.573Z" fill="#81828E"/>
<path d="M302.926 346.573H305.101V348.752H302.926V346.573Z" fill="#81828E"/>
<path d="M305.101 346.573H307.276V350.93H305.101V346.573Z" fill="#81828E"/>
<path d="M307.276 350.93H309.451V355.287H307.276V350.93Z" fill="#81828E"/>
<path d="M309.451 350.93H314.163V353.108H309.451V350.93Z" fill="#81828E"/>
<path d="M311.988 348.752H316.338V350.93H311.988V348.752Z" fill="#81828E"/>
<path d="M300.751 344.395H316.338V346.573H300.751V344.395Z" fill="#81828E"/>
<path d="M298.938 359.643H303.288V361.822H298.938V359.643Z" fill="#81828E"/>
<path d="M298.938 355.287H303.288V357.465H298.938V355.287Z" fill="#81828E"/>
<path d="M296.401 350.93H300.751V353.108H296.401V350.93Z" fill="#81828E"/>
<path d="M298.576 350.93V346.573H300.751V350.93H298.576Z" fill="#81828E"/>
<path d="M300.751 353.108V348.752H302.926V353.108H300.751Z" fill="#81828E"/>
<path d="M303.288 357.465V353.108H305.463V357.465H303.288Z" fill="#81828E"/>
<path d="M305.463 359.643V355.287H311.988V359.643H305.463Z" fill="#81828E"/>
<path d="M281.176 350.93H283.351V353.108H281.176V350.93Z" fill="#81828E"/>
<path d="M274.651 350.93H276.826V355.287H274.651V350.93Z" fill="#81828E"/>
<path d="M276.826 353.108H279.001V357.465H276.826V353.108Z" fill="#81828E"/>
<path d="M279.001 353.108H296.401V355.287H279.001V353.108Z" fill="#81828E"/>
<path d="M274.651 359.643H279.001V361.822H274.651V359.643Z" fill="#81828E"/>
<path d="M268.126 344.395H270.301V348.752H268.126V344.395Z" fill="#81828E"/>
<path d="M272.476 344.395H276.826V348.752H272.476V344.395Z" fill="#81828E"/>
<path d="M276.826 342.217H283.351V346.573H276.826V342.217Z" fill="#81828E"/>
<path d="M268.126 350.93H270.301V355.287H268.126V350.93Z" fill="#81828E"/>
<path d="M268.126 355.287H270.301V359.643H268.126V355.287Z" fill="#81828E"/>
<path d="M270.301 357.465H283.351V359.643H270.301V357.465Z" fill="#81828E"/>
<path d="M265.951 348.752H268.126V353.108H265.951V348.752Z" fill="#81828E"/>
<path d="M270.301 340.038H272.476V350.93H270.301V340.038Z" fill="#81828E"/>
<path d="M268.126 320.07H270.301V322.248H268.126V320.07Z" fill="#81828E"/>
<path d="M270.301 320.07H272.476V322.248H270.301V320.07Z" fill="#81828E"/>
<path d="M261.601 329.146H263.776V331.325H261.601V329.146Z" fill="#81828E"/>
<path d="M263.776 331.325H265.951V333.503H263.776V331.325Z" fill="#81828E"/>
<path d="M263.776 313.535H265.951V320.07H263.776V313.535Z" fill="#81828E"/>
<path d="M263.776 307H265.951V311.357H263.776V307Z" fill="#81828E"/>
<path d="M265.951 309.178H268.126V313.535H265.951V309.178Z" fill="#81828E"/>
<path d="M270.301 311.357H272.476V315.713H270.301V311.357Z" fill="#81828E"/>
<path d="M265.951 324.79H268.126V331.325H265.951V324.79Z" fill="#81828E"/>
<path d="M270.301 326.605H272.476V335.682H270.301V326.605Z" fill="#81828E"/>
<path d="M272.476 326.605H274.651V333.503H272.476V326.605Z" fill="#81828E"/>
<path d="M265.951 340.038H268.126V344.758H265.951V340.038Z" fill="#81828E"/>
<path d="M261.601 333.503H263.776V340.038H261.601V333.503Z" fill="#81828E"/>
<path d="M261.601 346.573H263.776V348.752H261.601V346.573Z" fill="#81828E"/>
<path d="M263.776 335.682H265.951V348.752H263.776V335.682Z" fill="#81828E"/>
<path d="M292.413 355.287H298.938V361.822H292.413V355.287Z" fill="#81828E"/>
<path d="M259.278 355.832C258.326 357.155 259.272 359 260.902 359H316.499C316.828 359 317.152 358.919 317.442 358.764L559.951 229.264C561.787 228.284 561.09 225.5 559.009 225.5H354.025C353.382 225.5 352.777 225.81 352.401 226.332L259.278 355.832Z" fill="url(#paint12_linear)"/>
<g filter="url(#filter1_d)">
<g filter="url(#filter2_b)">
<rect x="352" y="99" width="253" height="253" rx="32" fill="#00D476" fill-opacity="0.3"/>
</g>
<path d="M399 146H405.075V305H399V146Z" fill="white"/>
<path d="M558 298.924V305H399L399 298.924H558Z" fill="white"/>
<path d="M405.075 158.153H411.15V164.229H405.075V158.153Z" fill="white"/>
<path d="M405.075 170.306H411.15V176.382H405.075V170.306Z" fill="white"/>
<path d="M417.225 170.306H423.3V176.382H417.225V170.306Z" fill="white"/>
<path d="M423.3 176.382H429.375V182.459H423.3V176.382Z" fill="white"/>
<path d="M423.3 146H429.375V152.076H423.3V146Z" fill="white"/>
<path d="M423.3 164.229H429.375V170.306H423.3V164.229Z" fill="white"/>
<path d="M405.075 182.459H411.15V188.535H405.075V182.459Z" fill="white"/>
<path d="M417.225 182.459H423.3V188.535H417.225V182.459Z" fill="white"/>
<path d="M417.225 219.93H423.3V226.006H417.225V219.93Z" fill="white"/>
<path d="M423.3 188.535H429.375V194.611H423.3V188.535Z" fill="white"/>
<path d="M423.3 213.854H429.375V219.93H423.3V213.854Z" fill="white"/>
<path d="M435.45 226.006H441.525V232.083H435.45V226.006Z" fill="white"/>
<path d="M441.525 219.93H447.6V226.006H441.525V219.93Z" fill="white"/>
<path d="M441.525 213.854H453.675V219.93H441.525V213.854Z" fill="white"/>
<path d="M423.3 238.159H429.375V244.236H423.3V238.159Z" fill="white"/>
<path d="M465.825 244.236H471.9V250.312H465.825V244.236Z" fill="white"/>
<path d="M465.825 226.006H471.9V232.083H465.825V226.006Z" fill="white"/>
<path d="M471.9 232.083H477.975V238.159H471.9V232.083Z" fill="white"/>
<path d="M490.125 232.083H496.2V238.159H490.125V232.083Z" fill="white"/>
<path d="M484.05 250.312H490.125V256.389H484.05V250.312Z" fill="white"/>
<path d="M477.975 250.312H484.05V262.465H477.975V250.312Z" fill="white"/>
<path d="M477.975 238.159H484.05V244.236H477.975V238.159Z" fill="white"/>
<path d="M484.05 238.159H496.2V244.236H484.05V238.159Z" fill="white"/>
<path d="M521.513 238.159H540.75V244.236H521.513V238.159Z" fill="white"/>
<path d="M514.425 244.236H526.575V250.312H514.425V244.236Z" fill="white"/>
<path d="M502.275 232.083H521.513V238.159H502.275V232.083Z" fill="white"/>
<path d="M502.275 238.159H508.35V244.236H502.275V238.159Z" fill="white"/>
<path d="M502.275 219.93H521.513V226.006H502.275V219.93Z" fill="white"/>
<path d="M538.725 219.93H557.963V226.006H538.725V219.93Z" fill="white"/>
<path d="M538.725 213.854H550.875V219.93H538.725V213.854Z" fill="white"/>
<path d="M545.812 226.006H557.963V232.083H545.812V226.006Z" fill="white"/>
<path d="M545.812 238.159H557.963V244.236H545.812V238.159Z" fill="white"/>
<path d="M484.05 244.236H496.2V250.312H484.05V244.236Z" fill="white"/>
<path d="M477.975 226.006H484.05V232.083H477.975V226.006Z" fill="white"/>
<path d="M471.9 188.535H477.975V194.611H471.9V188.535Z" fill="white"/>
<path d="M477.975 182.459H484.05V188.535H477.975V182.459Z" fill="white"/>
<path d="M484.05 188.535H490.125V200.688H484.05V188.535Z" fill="white"/>
<path d="M496.2 188.535H502.275V200.688H496.2V188.535Z" fill="white"/>
<path d="M508.35 194.611V200.688H496.2V194.611H508.35Z" fill="white"/>
<path d="M502.275 207.777V213.854H496.2V207.777H502.275Z" fill="white"/>
<path d="M508.35 182.459V188.535H502.275V182.459H508.35Z" fill="white"/>
<path d="M508.35 158.153V164.229H502.275V158.153H508.35Z" fill="white"/>
<path d="M514.425 146V152.076L508.35 152.076V146L514.425 146Z" fill="white"/>
<path d="M520.5 152.076V158.153H514.425V152.076L520.5 152.076Z" fill="white"/>
<path d="M526.575 146V152.076L520.5 152.076V146L526.575 146Z" fill="white"/>
<path d="M532.65 152.076V164.229H526.575V152.076L532.65 152.076Z" fill="white"/>
<path d="M538.725 146V158.153H532.65V146L538.725 146Z" fill="white"/>
<path d="M550.875 146V158.153H544.8V146L550.875 146Z" fill="white"/>
<path d="M556.95 158.153H544.8V152.076L556.95 152.076V158.153Z" fill="white"/>
<path d="M544.8 164.229H538.725V158.153H544.8V164.229Z" fill="white"/>
<path d="M556.95 170.306H544.8V164.229H556.95V170.306Z" fill="white"/>
<path d="M550.875 176.382H544.8V170.306H550.875V176.382Z" fill="white"/>
<path d="M556.95 182.459H550.875V176.382H556.95V182.459Z" fill="white"/>
<path d="M538.725 182.459H532.65V176.382H538.725V182.459Z" fill="white"/>
<path d="M532.65 176.382H526.575V170.306H532.65V176.382Z" fill="white"/>
<path d="M526.575 176.382H520.5V170.306H526.575V176.382Z" fill="white"/>
<path d="M520.5 176.382H514.425V170.306H520.5V176.382Z" fill="white"/>
<path d="M526.575 188.535H514.425V182.459H526.575V188.535Z" fill="white"/>
<path d="M520.5 170.306H514.425V164.229H520.5V170.306Z" fill="white"/>
<path d="M520.5 164.229H514.425V158.153H520.5V164.229Z" fill="white"/>
<path d="M538.725 176.382H532.65V170.306H538.725V176.382Z" fill="white"/>
<path d="M484.05 219.93H490.125V232.083H484.05V219.93Z" fill="white"/>
<path d="M477.975 200.688H484.05V213.854H477.975V200.688Z" fill="white"/>
<path d="M471.9 213.854H477.975V219.93H471.9V213.854Z" fill="white"/>
<path d="M477.975 213.854H490.125V219.93H477.975V213.854Z" fill="white"/>
<path d="M471.9 164.229H477.975V170.306H471.9V164.229Z" fill="white"/>
<path d="M532.65 189.548H538.725V195.624H532.65V189.548Z" fill="white"/>
<path d="M550.875 189.548H556.95V213.854H550.875V189.548Z" fill="white"/>
<path d="M532.65 201.701H538.725V207.777H532.65V201.701Z" fill="white"/>
<path d="M544.8 201.701H550.875V207.777H544.8V201.701Z" fill="white"/>
<path d="M471.9 146H477.975V152.076H471.9V146Z" fill="white"/>
<path d="M477.975 152.076H484.05V158.153H477.975V152.076Z" fill="white"/>
<path d="M459.75 146H465.825V152.076H459.75V146Z" fill="white"/>
<path d="M465.825 256.389H471.9V262.465H465.825V256.389Z" fill="white"/>
<path d="M453.675 256.389H459.75V262.465H453.675V256.389Z" fill="white"/>
<path d="M447.6 238.159H453.675V244.236H447.6V238.159Z" fill="white"/>
<path d="M447.6 226.006H453.675V238.159H447.6V226.006Z" fill="white"/>
<path d="M453.675 219.93H459.75V232.083H453.675V219.93Z" fill="white"/>
<path d="M453.675 207.777H459.75V213.854H453.675V207.777Z" fill="white"/>
<path d="M441.525 182.459H447.6V188.535H441.525V182.459Z" fill="white"/>
<path d="M465.825 194.611H471.9V213.854H465.825V194.611Z" fill="white"/>
<path d="M459.75 176.382H465.825V194.611H459.75V176.382Z" fill="white"/>
<path d="M520.5 200.688H526.575V218.917H520.5V200.688Z" fill="white"/>
<path d="M490.125 170.306H496.2V188.535H490.125V170.306Z" fill="white"/>
<path d="M496.2 146H502.275V170.306H496.2V146Z" fill="white"/>
<path d="M465.825 158.153H471.9V176.382H465.825V158.153Z" fill="white"/>
<path d="M526.575 182.459H532.65V200.688H526.575V182.459Z" fill="white"/>
<path d="M484.05 146H490.125V170.306H484.05V146Z" fill="white"/>
<path d="M471.9 182.459V188.535H453.675V182.459H471.9Z" fill="white"/>
<path d="M532.65 206.764V212.841H514.425V206.764H532.65Z" fill="white"/>
<path d="M502.275 176.382V182.459H484.05V176.382H502.275Z" fill="white"/>
<path d="M441.525 194.611H465.825V200.688H441.525V194.611Z" fill="white"/>
<path d="M459.75 213.854H465.825V219.93H459.75V213.854Z" fill="white"/>
<path d="M447.6 188.535H453.675V194.611H447.6V188.535Z" fill="white"/>
<path d="M435.45 188.535H441.525V194.611H435.45V188.535Z" fill="white"/>
<path d="M447.6 176.382H453.675V182.459H447.6V176.382Z" fill="white"/>
<path d="M435.45 176.382H441.525V182.459H435.45V176.382Z" fill="white"/>
<path d="M435.45 170.306H447.6V176.382H435.45V170.306Z" fill="white"/>
<path d="M447.6 164.229H459.75V170.306H447.6V164.229Z" fill="white"/>
<path d="M453.675 158.153H459.75V164.229H453.675V158.153Z" fill="white"/>
<path d="M441.525 158.153H447.6V164.229H441.525V158.153Z" fill="white"/>
<path d="M435.45 146H441.525V158.153H435.45V146Z" fill="white"/>
<path d="M447.6 146H453.675V158.153H447.6V146Z" fill="white"/>
<path d="M417.225 280.694H423.3V286.771H417.225V280.694Z" fill="white"/>
<path d="M411.15 274.618H417.225V280.694H411.15V274.618Z" fill="white"/>
<path d="M411.15 286.771H417.225V292.847H411.15V286.771Z" fill="white"/>
<path d="M405.075 292.847H411.15V298.924H405.075V292.847Z" fill="white"/>
<path d="M417.225 292.847H423.3V298.924H417.225V292.847Z" fill="white"/>
<path d="M429.375 292.847H435.45V298.924H429.375V292.847Z" fill="white"/>
<path d="M435.45 280.694H441.525V286.771H435.45V280.694Z" fill="white"/>
<path d="M471.9 280.694H477.975V286.771H471.9V280.694Z" fill="white"/>
<path d="M471.9 268.541H477.975V274.618H471.9V268.541Z" fill="white"/>
<path d="M477.975 268.541H484.05V274.618H477.975V268.541Z" fill="white"/>
<path d="M484.05 268.541H490.125V274.618H484.05V268.541Z" fill="white"/>
<path d="M490.125 256.389H496.2V274.618H490.125V256.389Z" fill="white"/>
<path d="M496.2 256.389H502.275V262.465H496.2V256.389Z" fill="white"/>
<path d="M496.2 250.312H508.35V256.389H496.2V250.312Z" fill="white"/>
<path d="M465.825 292.847H471.9V298.924H465.825V292.847Z" fill="white"/>
<path d="M477.975 286.771H484.05V292.847H477.975V286.771Z" fill="white"/>
<path d="M527.588 292.847H533.663V298.924H527.588V292.847Z" fill="white"/>
<path d="M539.738 292.847H545.812V298.924H539.738V292.847Z" fill="white"/>
<path d="M545.812 280.694H551.888V286.771H545.812V280.694Z" fill="white"/>
<path d="M551.888 286.771H557.963V292.847H551.888V286.771Z" fill="white"/>
<path d="M551.888 274.618H557.963V280.694H551.888V274.618Z" fill="white"/>
<path d="M545.812 244.236H551.888V250.312H545.812V244.236Z" fill="white"/>
<path d="M545.812 256.389H551.888V262.465H545.812V256.389Z" fill="white"/>
<path d="M520.5 256.389H526.575V262.465H520.5V256.389Z" fill="white"/>
<path d="M526.575 256.389H532.65V268.541H526.575V256.389Z" fill="white"/>
<path d="M532.65 268.541H538.725V280.694H532.65V268.541Z" fill="white"/>
<path d="M538.725 268.541H551.888V274.618H538.725V268.541Z" fill="white"/>
<path d="M545.812 262.465H557.963V268.541H545.812V262.465Z" fill="white"/>
<path d="M514.425 250.312H557.963V256.389H514.425V250.312Z" fill="white"/>
<path d="M509.363 292.847H521.513V298.924H509.363V292.847Z" fill="white"/>
<path d="M509.363 280.694H521.513V286.771H509.363V280.694Z" fill="white"/>
<path d="M502.275 268.541H514.425V274.618H502.275V268.541Z" fill="white"/>
<path d="M508.35 268.541V256.389H514.425V268.541H508.35Z" fill="white"/>
<path d="M514.425 274.618V262.465H520.5V274.618H514.425Z" fill="white"/>
<path d="M521.513 286.771V274.618H527.588V286.771H521.513Z" fill="white"/>
<path d="M527.588 292.847V280.694H545.812V292.847H527.588Z" fill="white"/>
<path d="M459.75 268.541H465.825V274.618H459.75V268.541Z" fill="white"/>
<path d="M441.525 268.541H447.6V280.694H441.525V268.541Z" fill="white"/>
<path d="M447.6 274.618H453.675V286.771H447.6V274.618Z" fill="white"/>
<path d="M453.675 274.618H502.275V280.694H453.675V274.618Z" fill="white"/>
<path d="M441.525 292.847H453.675V298.924H441.525V292.847Z" fill="white"/>
<path d="M423.3 250.312H429.375V262.465H423.3V250.312Z" fill="white"/>
<path d="M435.45 250.312H447.6V262.465H435.45V250.312Z" fill="white"/>
<path d="M447.6 244.236H465.825V256.389H447.6V244.236Z" fill="white"/>
<path d="M423.3 268.541H429.375V280.694H423.3V268.541Z" fill="white"/>
<path d="M423.3 280.694H429.375V292.847H423.3V280.694Z" fill="white"/>
<path d="M429.375 286.771H465.825V292.847H429.375V286.771Z" fill="white"/>
<path d="M417.225 262.465H423.3V274.618H417.225V262.465Z" fill="white"/>
<path d="M429.375 238.159H435.45V268.541H429.375V238.159Z" fill="white"/>
<path d="M423.3 182.459H429.375V188.535H423.3V182.459Z" fill="white"/>
<path d="M429.375 182.459H435.45V188.535H429.375V182.459Z" fill="white"/>
<path d="M405.075 207.777H411.15V213.854H405.075V207.777Z" fill="white"/>
<path d="M411.15 213.854H417.225V219.93H411.15V213.854Z" fill="white"/>
<path d="M411.15 164.229H417.225V182.459H411.15V164.229Z" fill="white"/>
<path d="M411.15 146H417.225V158.153H411.15V146Z" fill="white"/>
<path d="M417.225 152.076H423.3V164.229H417.225V152.076Z" fill="white"/>
<path d="M429.375 158.153H435.45V170.306H429.375V158.153Z" fill="white"/>
<path d="M417.225 195.624H423.3V213.854H417.225V195.624Z" fill="white"/>
<path d="M429.375 200.688H435.45V226.006H429.375V200.688Z" fill="white"/>
<path d="M435.45 200.688H441.525V219.93H435.45V200.688Z" fill="white"/>
<path d="M417.225 238.159H423.3V251.325H417.225V238.159Z" fill="white"/>
<path d="M405.075 219.93H411.15V238.159H405.075V219.93Z" fill="white"/>
<path d="M405.075 256.389H411.15V262.465H405.075V256.389Z" fill="white"/>
<path d="M411.15 226.006H417.225V262.465H411.15V226.006Z" fill="white"/>
<path d="M491.137 280.694H509.363V298.924H491.137V280.694Z" fill="white"/>
<path d="M432.877 134H393C389.686 134 387 136.686 387 140V179.877" stroke="white" stroke-width="5" stroke-linecap="round"/>
<path d="M432.877 317.415H393C389.686 317.415 387 314.728 387 311.415V271.537" stroke="white" stroke-width="5" stroke-linecap="round"/>
<path d="M524.123 134H564C567.314 134 570 136.686 570 140V179.877" stroke="white" stroke-width="5" stroke-linecap="round"/>
<path d="M524.123 317.415H564C567.314 317.415 570 314.728 570 311.415V271.537" stroke="white" stroke-width="5" stroke-linecap="round"/>
</g>
<defs>
<filter id="filter0_d" x="172" y="195.813" width="209.394" height="260.645" filterUnits="userSpaceOnUse" color-interpolation-filters="sRGB">
<feFlood flood-opacity="0" result="BackgroundImageFix"/>
<feColorMatrix in="SourceAlpha" type="matrix" values="0 0 0 0 0 0 0 0 0 0 0 0 0 0 0 0 0 0 127 0"/>
<feOffset dx="-12" dy="12"/>
<feGaussianBlur stdDeviation="22"/>
<feColorMatrix type="matrix" values="0 0 0 0 0 0 0 0 0 0 0 0 0 0 0 0 0 0 0.2 0"/>
<feBlend mode="normal" in2="BackgroundImageFix" result="effect1_dropShadow"/>
<feBlend mode="normal" in="SourceGraphic" in2="effect1_dropShadow" result="shape"/>
</filter>
<filter id="filter1_d" x="300" y="79" width="325" height="325" filterUnits="userSpaceOnUse" color-interpolation-filters="sRGB">
<feFlood flood-opacity="0" result="BackgroundImageFix"/>
<feColorMatrix in="SourceAlpha" type="matrix" values="0 0 0 0 0 0 0 0 0 0 0 0 0 0 0 0 0 0 127 0"/>
<feOffset dx="-16" dy="16"/>
<feGaussianBlur stdDeviation="18"/>
<feColorMatrix type="matrix" values="0 0 0 0 0 0 0 0 0 0 0 0 0 0 0 0 0 0 0.21 0"/>
<feBlend mode="normal" in2="BackgroundImageFix" result="effect1_dropShadow"/>
<feBlend mode="normal" in="SourceGraphic" in2="effect1_dropShadow" result="shape"/>
</filter>
<filter id="filter2_b" x="328" y="75" width="301" height="301" filterUnits="userSpaceOnUse" color-interpolation-filters="sRGB">
<feFlood flood-opacity="0" result="BackgroundImageFix"/>
<feGaussianBlur in="BackgroundImage" stdDeviation="12"/>
<feComposite in2="SourceAlpha" operator="in" result="effect1_backgroundBlur"/>
<feBlend mode="normal" in="SourceGraphic" in2="effect1_backgroundBlur" result="shape"/>
</filter>
<linearGradient id="paint0_linear" x1="392.956" y1="46.2471" x2="392.956" y2="400.458" gradientUnits="userSpaceOnUse">
<stop stop-color="white"/>
<stop offset="0.752299" stop-color="white" stop-opacity="0"/>
</linearGradient>
<linearGradient id="paint1_linear" x1="63.7135" y1="247.734" x2="316.449" y2="358.216" gradientUnits="userSpaceOnUse">
<stop offset="0.00195313" stop-color="white" stop-opacity="0"/>
<stop offset="1" stop-color="#235196"/>
</linearGradient>
<linearGradient id="paint2_linear" x1="115.125" y1="174.627" x2="217.663" y2="229.507" gradientUnits="userSpaceOnUse">
<stop offset="0.00195313" stop-color="white" stop-opacity="0"/>
<stop offset="1" stop-color="#235196"/>
</linearGradient>
<linearGradient id="paint3_linear" x1="113.51" y1="142.254" x2="262.985" y2="202.91" gradientUnits="userSpaceOnUse">
<stop offset="0.00195313" stop-color="white" stop-opacity="0"/>
<stop offset="1" stop-color="#235196"/>
</linearGradient>
<linearGradient id="paint4_linear" x1="106.492" y1="159.55" x2="255.966" y2="220.207" gradientUnits="userSpaceOnUse">
<stop offset="0.00195313" stop-color="white" stop-opacity="0"/>
<stop offset="1" stop-color="#235196"/>
</linearGradient>
<linearGradient id="paint5_linear" x1="490.832" y1="283.819" x2="600.591" y2="202.944" gradientUnits="userSpaceOnUse">
<stop offset="0.00195313" stop-color="white" stop-opacity="0"/>
<stop offset="1" stop-color="#235196"/>
</linearGradient>
<linearGradient id="paint6_linear" x1="460.075" y1="263.799" x2="679.593" y2="348.284" gradientUnits="userSpaceOnUse">
<stop offset="0.00195313" stop-color="white" stop-opacity="0"/>
<stop offset="1" stop-color="#235196"/>
</linearGradient>
<linearGradient id="paint7_linear" x1="71.065" y1="372.035" x2="144.988" y2="404.91" gradientUnits="userSpaceOnUse">
<stop offset="0.00195313" stop-color="white" stop-opacity="0"/>
<stop offset="1" stop-color="#235196"/>
</linearGradient>
<linearGradient id="paint8_linear" x1="133.79" y1="354.644" x2="175.491" y2="423.966" gradientUnits="userSpaceOnUse">
<stop offset="0.00195313" stop-color="white" stop-opacity="0"/>
<stop offset="1" stop-color="#235196"/>
</linearGradient>
<linearGradient id="paint9_linear" x1="228" y1="248.972" x2="349.394" y2="248.972" gradientUnits="userSpaceOnUse">
<stop stop-color="#9BD1D8"/>
<stop offset="0.140625" stop-color="#C1EAEF"/>
<stop offset="0.505208" stop-color="#EDF6F8"/>
<stop offset="0.853205" stop-color="#C5E4E8"/>
<stop offset="1" stop-color="#9BD1D8"/>
</linearGradient>
<linearGradient id="paint10_linear" x1="242.69" y1="263.676" x2="405.163" y2="363.327" gradientUnits="userSpaceOnUse">
<stop offset="0.00195313" stop-color="white" stop-opacity="0"/>
<stop offset="1" stop-color="#55EDC9"/>
</linearGradient>
<linearGradient id="paint11_linear" x1="235.426" y1="335" x2="341.426" y2="335" gradientUnits="userSpaceOnUse">
<stop stop-color="#9BD1D8"/>
<stop offset="0.140625" stop-color="#C1EAEF"/>
<stop offset="0.505208" stop-color="#EDF6F8"/>
<stop offset="0.853205" stop-color="#C5E4E8"/>
<stop offset="1" stop-color="#9BD1D8"/>
</linearGradient>
<linearGradient id="paint12_linear" x1="306.5" y1="320" x2="352" y2="235" gradientUnits="userSpaceOnUse">
<stop stop-color="#FF4539" stop-opacity="0.4"/>
<stop offset="0.178378" stop-color="#FF4539" stop-opacity="0.1"/>
<stop offset="1" stop-color="#FF4539" stop-opacity="0"/>
</linearGradient>
</defs>
</svg>
