<svg width="132" height="132" viewBox="0 0 132 132" fill="none" xmlns="http://www.w3.org/2000/svg">
<path d="M124.5 65.8336C121.186 65.8336 118.535 68.5288 118.159 71.8211C116.813 83.5853 111.53 94.6194 103.074 103.075C93.1974 112.951 79.8014 118.5 65.8333 118.5C51.8653 118.5 38.4693 112.951 28.5924 103.075C18.7155 93.1977 13.1667 79.8017 13.1667 65.8336C13.1667 51.8656 18.7155 38.4696 28.5924 28.5927C38.4693 18.7158 51.8653 13.167 65.8333 13.167C69.6139 13.167 73.3192 13.5804 76.8926 14.3505C79.0227 14.8096 81.2723 14.2522 82.813 12.7114L84.289 11.2355C87.3163 8.20815 86.2665 3.09949 82.1199 2.03409C76.8112 0.670141 71.3387 -0.0163567 65.8333 0.000295824C57.188 0.000295824 48.6273 1.70313 40.64 5.01156C32.6527 8.31999 25.3953 13.1692 19.2821 19.2824C6.93599 31.6286 0 48.3735 0 65.8336C0 83.2937 6.93599 100.039 19.2821 112.385C25.3953 118.498 32.6527 123.347 40.64 126.656C48.6273 129.964 57.188 131.667 65.8333 131.667C83.2934 131.667 100.038 124.731 112.385 112.385C123.31 101.459 129.999 87.0884 131.394 71.8258C131.695 68.5259 128.98 65.8336 125.667 65.8336H124.5ZM43.1652 57.4513C40.8162 55.1023 37.0056 55.109 34.6649 57.4663L33.8377 58.2994C31.5087 60.6449 31.5154 64.4323 33.8527 66.7696L55.0074 87.9243C57.3505 90.2675 61.1495 90.2675 63.4926 87.9243L120.856 30.5613C123.193 28.224 123.2 24.4366 120.871 22.091L120.043 21.258C117.703 18.9007 113.892 18.8939 111.543 21.243L63.4926 69.2935C61.1495 71.6366 57.3505 71.6366 55.0074 69.2935L43.1652 57.4513Z" fill="url(#paint0_linear)"/>
<defs>
<linearGradient id="paint0_linear" x1="65.8333" y1="0" x2="65.8333" y2="160.634" gradientUnits="userSpaceOnUse">
<stop stop-color="white"/>
<stop offset="1" stop-color="white" stop-opacity="0"/>
</linearGradient>
</defs>
</svg>
