<svg width="18" height="19" fill="none" xmlns="http://www.w3.org/2000/svg"><path fill-rule="evenodd" clip-rule="evenodd" d="M12.902.5H5.099C2.05.5 0 2.64 0 5.825v7.35C0 16.362 2.05 18.5 5.1 18.5h7.8c3.05 0 5.1-2.14 5.1-5.324v-7.35C18 2.64 15.95.5 12.902.5z" fill="#00D476"/><path d="M13.664 8.355l-5.103 4.827a1.175 1.175 0 01-.812.318c-.307 0-.595-.113-.812-.318l-2.6-2.46A1.05 1.05 0 014 9.953c0-.29.12-.563.336-.768.217-.205.506-.318.813-.318.306 0 .595.113.812.318l1.788 1.692 4.29-4.059a1.18 1.18 0 01.813-.318c.307 0 .595.113.812.318a1.047 1.047 0 010 1.537z" fill="#fff"/></svg>