<svg width="70" height="24" fill="none" xmlns="http://www.w3.org/2000/svg"><path d="M38.553 11.847h2.61l-3.613 4.386 4.297 4.948H38.93l-3.876-4.523v4.523h-2.336v-9.334h2.337v4.306l3.499-4.306zm9.517 9.334h-2.418l4.076-9.334h2.465l4.111 9.334h-2.407l-2.925-7.04-.921 2.236-1.98 4.804zm19.728-9.334H70v9.334h-1.983l-4.957-5.798v5.798h-2.19v-9.334h1.95l4.98 5.821v-5.82zM18.403 23.514H0L12.402.181l12.466 23.333h-6.465zm-8.667-5.451h5.211l-2.601-5.613-2.61 5.613zM37.477 7.36l-.007-3.015-1.479 2.484h-.524l-1.472-2.42V7.36h-1.091V2.334h.962l1.88 3.124L37.6 2.334h.955l.014 5.026h-1.09zm5.953-1.077h-2.334l-.445 1.077h-1.192l2.24-5.026h1.149l2.247 5.026h-1.22l-.446-1.077zm-.367-.883l-.797-1.924L41.47 5.4h1.594zm2.912-3.066h2.284c.545 0 1.026.106 1.443.316.42.206.746.498.976.876.235.378.352.819.352 1.321 0 .503-.117.943-.352 1.321-.23.378-.555.673-.976.883-.417.206-.898.31-1.443.31h-2.284V2.333zm2.226 4.071c.503 0 .902-.139 1.2-.416.3-.283.451-.663.451-1.142 0-.478-.15-.856-.452-1.134-.297-.282-.696-.424-1.199-.424H47.14v3.116h1.06zm7.956.022v.933h-3.891V2.334h3.798v.934h-2.642v1.091h2.333v.905h-2.333v1.163h2.735zm7.367-1.68c.287.09.512.244.675.46.163.21.244.47.244.782 0 .44-.172.78-.517 1.02-.34.234-.837.351-1.493.351h-2.6V2.334h2.456c.613 0 1.082.118 1.407.352.33.235.496.553.496.955 0 .244-.06.462-.18.653a1.207 1.207 0 01-.488.453zM60.99 3.21v1.185h1.156c.287 0 .505-.05.653-.15a.503.503 0 00.223-.446.487.487 0 00-.223-.438c-.148-.1-.366-.15-.653-.15H60.99zm1.357 3.274c.306 0 .536-.05.689-.15.158-.101.237-.257.237-.467 0-.417-.309-.625-.926-.625H60.99v1.242h1.357zm5.643-.904v1.78h-1.163V5.565l-1.946-3.23h1.235l1.343 2.232L68.8 2.334h1.142L67.99 5.58z" fill="#B1B1B1"/></svg>