<svg width="18" height="19" fill="none" xmlns="http://www.w3.org/2000/svg"><g clip-path="url(#clip0)"><path d="M9 .93c-3.317 0-6 2.583-6 5.776 0 4.33 6 10.725 6 10.725s6-6.394 6-10.725C15 3.513 12.317.93 9 .93zm0 7.838a2.186 2.186 0 01-1.515-.604 2.024 2.024 0 01-.628-1.458c0-.547.226-1.072.628-1.459A2.186 2.186 0 019 4.643c.568 0 1.113.217 1.515.604.402.387.628.912.628 1.459s-.226 1.071-.628 1.458A2.186 2.186 0 019 8.768z" fill="#fff"/></g><defs><clipPath id="clip0"><path fill="#fff" transform="translate(0 .18)" d="M0 0h18v18H0z"/></clipPath></defs></svg>