<svg width="166" height="16" fill="none" xmlns="http://www.w3.org/2000/svg"><path d="M7.887 16h3.401V.64H.426V16h3.401V3.712h4.06V16zm8.448 0h3.401v-5.705h7.022V.64H16.335V16zm3.401-12.288h3.62v3.51h-3.62v-3.51zM31.365 16h10.862V.64H31.365V16zm3.401-12.288h4.06v9.216h-4.06V3.712zm12.507 9.874h5.925V16h3.401v-2.414h5.925V2.396h-5.925V.64h-3.401v1.755h-5.925v11.191zM56.6 5.248h2.524v5.486H56.6V5.248zm-5.924 0h2.523v5.486h-2.523V5.248zM75.642.64h-9.216v3.072h5.815v2.852h-3.62v3.072h3.62v3.292h-5.815V16h9.216V.64zM88.158 16h3.401V6.564h-2.633L92.218.64h-3.62l-3.073 5.924H84.1V.64h-3.401V16h3.4V9.636h4.06V16zm8.448 0h9.436v-3.072h-6.035V3.712h6.035V.64h-9.436V16zm21.398 0h3.401V.64h-10.862V16h3.402V3.712h4.059V16zm8.448 0h9.216v-3.072h-5.815V9.636h3.621V6.564h-3.621V3.712h5.815V.64h-9.216V16zm13.723 0h3.401v-5.705h7.022V.64h-10.423V16zm3.401-12.288h3.621v3.51h-3.621v-3.51zm10.532 0h3.949V16h3.402V3.712h3.949V.64h-11.3v3.072z" fill="#444"/></svg>