<svg width="18" height="19" fill="none" xmlns="http://www.w3.org/2000/svg"><path d="M15.171 2.752H2.83c-.85 0-1.536.723-1.536 1.607l-.007 9.643c0 .884.694 1.607 1.542 1.607h12.343c.849 0 1.543-.723 1.543-1.607V4.36c0-.884-.694-1.607-1.543-1.607zm-.308 3.415L9.409 9.72a.754.754 0 01-.818 0L3.137 6.167a.695.695 0 01-.327-.7.701.701 0 01.274-.456.643.643 0 01.505-.109c.087.019.17.055.242.108L9 8.377l5.168-3.367a.642.642 0 01.506-.107c.087.018.17.055.242.108a.674.674 0 01.274.456.71.71 0 01-.128.52.665.665 0 01-.2.18z" fill="#fff"/></svg>