<svg width="32" height="32" fill="none" xmlns="http://www.w3.org/2000/svg"><path fill-rule="evenodd" clip-rule="evenodd" d="M22.514 19.382a.975.975 0 00.976-.975v-2.408a.975.975 0 00-.976-.975h-7.4c-.421-1.387-1.698-2.407-3.222-2.407A3.386 3.386 0 008.511 16a3.386 3.386 0 003.382 3.383c1.523 0 2.8-1.02 3.221-2.408h2.746v1.433a.975.975 0 001.95 0v-1.433h1.73v1.433c0 .538.436.975.974.975zM10.364 2.998h11.271c4.405 0 7.366 3.091 7.366 7.692v10.618C29 25.91 26.04 29 21.634 29h-11.27C5.96 29 3 25.91 3 21.308V10.691c0-4.602 2.96-7.693 7.366-7.693zM10.319 16c0-.81.66-1.47 1.47-1.47.81 0 1.47.66 1.47 1.47 0 .81-.66 1.468-1.47 1.468A1.47 1.47 0 0110.318 16z" fill="#0D7CE0"/></svg>