<svg width="32" height="32" fill="none" xmlns="http://www.w3.org/2000/svg"><path fill-rule="evenodd" clip-rule="evenodd" d="M10.804 2.91c.61 0 1.107.486 1.107 1.086 0 .6-.495 1.085-1.107 1.085l-2.37.002c-1.966.003-3.566 1.573-3.566 3.503v2.704a1.1 1.1 0 01-1.108 1.087 1.098 1.098 0 01-1.107-1.087V8.586c0-3.127 2.593-5.673 5.78-5.675l2.37-.002zm10.433 0h2.317c3.196 0 5.794 2.547 5.794 5.68v2.7c0 .6-.495 1.088-1.107 1.088a1.098 1.098 0 01-1.107-1.087v-2.7c0-1.936-1.606-3.51-3.58-3.51h-2.317c-.61 0-1.107-.486-1.107-1.085 0-.6.496-1.086 1.107-1.086zm-1.219 5.443h-8.035c-1.838.019-3.316 1.492-3.3 3.296v1.812a.404.404 0 00.393.39h13.847a.407.407 0 00.397-.39v-1.812a3.297 3.297 0 00-.962-2.332 3.305 3.305 0 00-2.34-.964zM1.108 16.06h29.785c.611 0 1.107.487 1.107 1.087 0 .599-.496 1.084-1.107 1.084h-1.545v5.177c0 3.136-2.599 5.683-5.793 5.683h-2.317a1.097 1.097 0 01-1.108-1.087c0-.599.495-1.085 1.108-1.085h2.317c1.974 0 3.58-1.573 3.58-3.51V18.23h-3.816v1.442c.015 1.804-1.461 3.28-3.302 3.296h-8.034c-1.839-.017-3.315-1.492-3.3-3.296V18.23H4.866v5.183c0 1.93 1.601 3.5 3.57 3.503l2.367.002c.611 0 1.107.486 1.107 1.085a1.098 1.098 0 01-1.108 1.087l-2.37-.001c-3.186-.003-5.781-2.55-5.781-5.676V18.23H1.108C.498 18.23 0 17.745 0 17.146c0-.6.497-1.087 1.108-1.087z" fill="#0D7CE0"/></svg>