<svg width="18" height="19" viewBox="0 0 18 19" fill="none" xmlns="http://www.w3.org/2000/svg">
<path fill-rule="evenodd" clip-rule="evenodd" d="M12.9015 0.5H5.0994C2.0493 0.5 0 2.6402 0 5.8253V13.1756C0 16.3607 2.0493 18.5 5.0994 18.5H12.9006C15.9507 18.5 18 16.3607 18 13.1756V5.8253C18 2.6402 15.9507 0.5 12.9015 0.5Z" fill="#00D476"/>
<path d="M13.6641 8.35487L8.56146 13.1818C8.34449 13.387 8.05608 13.5 7.74928 13.5C7.44247 13.5 7.15406 13.387 6.93709 13.1818L4.33647 10.7217C4.1195 10.5165 4 10.2436 4 9.95342C4 9.66312 4.1195 9.39029 4.33647 9.18505C4.55335 8.97981 4.84176 8.86677 5.14865 8.86677C5.45545 8.86677 5.74395 8.97981 5.96083 9.18513L7.74919 10.8768L12.0396 6.8182C12.2566 6.61296 12.545 6.5 12.8518 6.5C13.1586 6.5 13.447 6.61296 13.664 6.8182C14.112 7.24199 14.112 7.93124 13.6641 8.35487Z" fill="white"/>
</svg>
