<svg width="32" height="32" viewBox="0 0 32 32" fill="none" xmlns="http://www.w3.org/2000/svg">
<path d="M21.8851 20H10.1137C4 20 4 19 4 13.5627V10.4373C4 5 4 4 10.1137 4H21.8863C28 4 28 5 28 10.4373V13.5627C28 19 28 20 21.8851 20Z" fill="#0D7CE0"/>
<path d="M17.7331 24H14.2665C12 24 12 24 12 23.2111V22.7889C12 22 12 22 14.2665 22H17.7335C20 22 20 22 20 22.7889V23.2111C20 24 20 24 17.7331 24Z" fill="#0D7CE0"/>
<path d="M20.3328 29H11.6662C7 29 6 29 6 27.8167V27.1833C6 26 7 26 11.6662 26H20.3338C25 26 26 26 26 27.1833V27.8167C26 29 25 29 20.3328 29Z" fill="#0D7CE0"/>
</svg>
