<svg width="70" height="24" viewBox="0 0 70 24" fill="none" xmlns="http://www.w3.org/2000/svg">
<path d="M38.553 11.8474H41.1633L37.5499 16.2331L41.8472 21.1814H38.9291L35.0535 16.6579V21.1814H32.7168V11.8474H35.0535V16.1527L38.553 11.8474Z" fill="#B1B1B1"/>
<path d="M48.0702 21.1814H45.6519L49.7285 11.8474H52.1929L56.304 21.1814H53.8972L50.9722 14.1408L50.0509 16.3768L48.0702 21.1814Z" fill="#B1B1B1"/>
<path d="M67.7982 11.8474H69.9991V21.1814H68.0161L63.0586 15.3835V21.1814H60.8687V11.8474H62.8189L67.7982 17.6682V11.8474Z" fill="#B1B1B1"/>
<path d="M18.4027 23.514H17.4831H7.19945H6.59563H0L12.4016 0.180664L24.8683 23.514H18.4027ZM9.73552 18.0629H14.947L12.3459 12.4504L9.73552 18.0629Z" fill="#B1B1B1"/>
<path d="M37.4771 7.36011L37.47 4.34473L35.991 6.82883H35.4669L33.9951 4.40934V7.36011H32.9038V2.33447H33.8659L35.7469 5.45755L37.5992 2.33447H38.5541L38.5684 7.36011H37.4771Z" fill="#B1B1B1"/>
<path d="M43.4295 6.28319H41.0962L40.651 7.36011H39.4592L41.6992 2.33447H42.848L45.0951 7.36011H43.8746L43.4295 6.28319ZM43.0633 5.40011L42.2664 3.47601L41.4695 5.40011H43.0633Z" fill="#B1B1B1"/>
<path d="M45.9755 2.33447H48.2586C48.8042 2.33447 49.2853 2.43977 49.7017 2.65037C50.1229 2.85618 50.4483 3.14815 50.6781 3.52627C50.9126 3.90439 51.0299 4.34473 51.0299 4.84729C51.0299 5.34986 50.9126 5.7902 50.6781 6.16832C50.4483 6.54644 50.1229 6.8408 49.7017 7.0514C49.2853 7.25721 48.8042 7.36011 48.2586 7.36011H45.9755V2.33447ZM48.2012 6.40524C48.7037 6.40524 49.1034 6.26644 49.4001 5.98883C49.7017 5.70644 49.8524 5.32593 49.8524 4.84729C49.8524 4.36866 49.7017 3.99054 49.4001 3.71293C49.1034 3.43054 48.7037 3.28934 48.2012 3.28934H47.1386V6.40524H48.2012Z" fill="#B1B1B1"/>
<path d="M56.1573 6.42678V7.36011H52.266V2.33447H56.0639V3.26781H53.4219V4.35909H55.7552V5.2637H53.4219V6.42678H56.1573Z" fill="#B1B1B1"/>
<path d="M63.5242 4.74678C63.8113 4.83772 64.0363 4.99088 64.199 5.20627C64.3618 5.41687 64.4431 5.67772 64.4431 5.98883C64.4431 6.42917 64.2708 6.769 63.9262 7.00832C63.5864 7.24285 63.0886 7.36011 62.4329 7.36011H59.8339V2.33447H62.2893C62.9019 2.33447 63.371 2.45174 63.6965 2.68627C64.0267 2.9208 64.1918 3.23909 64.1918 3.64114C64.1918 3.88524 64.132 4.10302 64.0124 4.29447C63.8975 4.48593 63.7348 4.6367 63.5242 4.74678ZM60.9898 3.21037V4.39499H62.1457C62.4329 4.39499 62.6507 4.34473 62.799 4.24422C62.9474 4.1437 63.0216 3.99533 63.0216 3.79909C63.0216 3.60285 62.9474 3.45687 62.799 3.36114C62.6507 3.26063 62.4329 3.21037 62.1457 3.21037H60.9898ZM62.3467 6.48422C62.653 6.48422 62.8828 6.43396 63.0359 6.33345C63.1939 6.23293 63.2729 6.07738 63.2729 5.86678C63.2729 5.45037 62.9642 5.24217 62.3467 5.24217H60.9898V6.48422H62.3467Z" fill="#B1B1B1"/>
<path d="M67.9898 5.5796V7.36011H66.8267V5.56524L64.8811 2.33447H66.1159L67.4585 4.56729L68.8011 2.33447H69.9426L67.9898 5.5796Z" fill="#B1B1B1"/>
</svg>
