<svg width="18" height="19" viewBox="0 0 18 19" fill="none" xmlns="http://www.w3.org/2000/svg">
<g clip-path="url(#clip0)">
<path d="M9 0.930664C5.68286 0.930664 3 3.51291 3 6.70566C3 11.0369 9 17.4307 9 17.4307C9 17.4307 15 11.0369 15 6.70566C15 3.51291 12.3171 0.930664 9 0.930664ZM9 8.76816C8.43168 8.76816 7.88663 8.55087 7.48477 8.16407C7.08291 7.77728 6.85714 7.25267 6.85714 6.70566C6.85714 6.15866 7.08291 5.63405 7.48477 5.24726C7.88663 4.86046 8.43168 4.64316 9 4.64316C9.56832 4.64316 10.1134 4.86046 10.5152 5.24726C10.9171 5.63405 11.1429 6.15866 11.1429 6.70566C11.1429 7.25267 10.9171 7.77728 10.5152 8.16407C10.1134 8.55087 9.56832 8.76816 9 8.76816Z" fill="white"/>
</g>
<defs>
<clipPath id="clip0">
<rect width="18" height="18" fill="white" transform="translate(0 0.180664)"/>
</clipPath>
</defs>
</svg>
