<svg width="166" height="16" viewBox="0 0 166 16" fill="none" xmlns="http://www.w3.org/2000/svg">
<path d="M7.88684 15.9999H11.288V0.639893H0.42627V15.9999H3.82741V3.71189H7.88684V15.9999Z" fill="#444444"/>
<path d="M16.3348 15.9999H19.736V10.2948H26.7577V0.639893H16.3348V15.9999ZM19.736 3.71189H23.3566V7.22275H19.736V3.71189Z" fill="#444444"/>
<path d="M31.3648 15.9999H42.2266V0.639893H31.3648V15.9999ZM34.766 3.71189H38.8254V12.9279H34.766V3.71189Z" fill="#444444"/>
<path d="M47.2734 13.5862H53.198V15.9999H56.5991V13.5862H62.5237V2.39532H56.5991V0.639893H53.198V2.39532H47.2734V13.5862ZM56.5991 5.24789H59.1226V10.7336H56.5991V5.24789ZM50.6746 5.24789H53.198V10.7336H50.6746V5.24789Z" fill="#444444"/>
<path d="M75.6423 0.639893H66.4263V3.71189H72.2411V6.56446H68.6206V9.63647H72.2411V12.9279H66.4263V15.9999H75.6423V0.639893Z" fill="#444444"/>
<path d="M88.1583 15.9999H91.5594V6.56446H88.9263L92.2177 0.639893H88.5971L85.5251 6.56446H84.0988V0.639893H80.6977V15.9999H84.0988V9.63647H88.1583V15.9999Z" fill="#444444"/>
<path d="M96.6063 15.9999H106.042V12.9279H100.007V3.71189H106.042V0.639893H96.6063V15.9999Z" fill="#444444"/>
<path d="M118.004 15.9999H121.405V0.639893H110.543V15.9999H113.945V3.71189H118.004V15.9999Z" fill="#444444"/>
<path d="M126.452 15.9999H135.668V12.9279H129.853V9.63647H133.474V6.56446H129.853V3.71189H135.668V0.639893H126.452V15.9999Z" fill="#444444"/>
<path d="M140.175 15.9999H143.576V10.2948H150.598V0.639893H140.175V15.9999ZM143.576 3.71189H147.197V7.22275H143.576V3.71189Z" fill="#444444"/>
<path d="M154.108 3.71189H158.057V15.9999H161.459V3.71189H165.408V0.639893H154.108V3.71189Z" fill="#444444"/>
</svg>
