<svg width="18" height="19" viewBox="0 0 18 19" fill="none" xmlns="http://www.w3.org/2000/svg">
<path d="M15.1714 2.75208H2.8285C1.97993 2.75208 1.29336 3.47529 1.29336 4.35922L1.28564 14.0021C1.28564 14.886 1.97993 15.6092 2.8285 15.6092H15.1714C16.0199 15.6092 16.7142 14.886 16.7142 14.0021V4.35922C16.7142 3.47529 16.0199 2.75208 15.1714 2.75208ZM14.8628 6.16725L9.40879 9.71904C9.16193 9.87975 8.83793 9.87975 8.59107 9.71904L3.13707 6.16725C3.05972 6.12202 2.99198 6.06091 2.93796 5.98762C2.88394 5.91433 2.84475 5.83038 2.82277 5.74086C2.8008 5.65133 2.79649 5.55809 2.81011 5.46679C2.82373 5.37548 2.85499 5.288 2.902 5.20964C2.94902 5.13128 3.01081 5.06367 3.08363 5.01091C3.15646 4.95815 3.2388 4.92133 3.32568 4.90267C3.41257 4.88402 3.50218 4.88392 3.5891 4.90239C3.67601 4.92086 3.75843 4.9575 3.83136 5.01011L8.99993 8.37708L14.1685 5.01011C14.2414 4.9575 14.3238 4.92086 14.4108 4.90239C14.4977 4.88392 14.5873 4.88402 14.6742 4.90267C14.7611 4.92133 14.8434 4.95815 14.9162 5.01091C14.989 5.06367 15.0508 5.13128 15.0979 5.20964C15.1449 5.288 15.1761 5.37548 15.1898 5.46679C15.2034 5.55809 15.1991 5.65133 15.1771 5.74086C15.1551 5.83038 15.1159 5.91433 15.0619 5.98762C15.0079 6.06091 14.9401 6.12202 14.8628 6.16725Z" fill="white"/>
</svg>
