<svg width="32" height="32" viewBox="0 0 32 32" fill="none" xmlns="http://www.w3.org/2000/svg">
<path fill-rule="evenodd" clip-rule="evenodd" d="M22.5144 19.3817C23.0526 19.3817 23.4895 18.9449 23.4895 18.4066V15.9988C23.4895 15.4606 23.0526 15.0238 22.5144 15.0238H15.1142C14.693 13.6366 13.4163 12.6173 11.8925 12.6173C10.0282 12.6173 8.51097 14.1345 8.51097 15.9988C8.51097 17.8645 10.0282 19.3817 11.8925 19.3817C13.4163 19.3817 14.693 18.3624 15.1142 16.9739H17.86V18.4066C17.86 18.9449 18.2969 19.3817 18.8351 19.3817C19.3733 19.3817 19.8102 18.9449 19.8102 18.4066V16.9739H21.5393V18.4066C21.5393 18.9449 21.9762 19.3817 22.5144 19.3817ZM10.3649 2.9978H21.6355C26.0403 2.9978 29.0006 6.08945 29.0006 10.6905V21.3085C29.0006 25.9095 26.0403 28.9999 21.6342 28.9999H10.3649C5.95887 28.9999 2.99854 25.9095 2.99854 21.3085V10.6905C2.99854 6.08945 5.95887 2.9978 10.3649 2.9978ZM10.3184 16C10.3184 15.1894 10.9784 14.5307 11.7877 14.5307C12.5971 14.5307 13.2571 15.1894 13.2571 16C13.2571 16.8094 12.5971 17.468 11.7877 17.468C10.9784 17.468 10.3184 16.8094 10.3184 16Z" fill="#0D7CE0"/>
</svg>
