<svg width="13" height="13" viewBox="0 0 13 13" fill="none" xmlns="http://www.w3.org/2000/svg">
<path d="M12.629 9.18634L9.78529 7.96759C9.66381 7.91582 9.5288 7.90491 9.40058 7.93651C9.27236 7.9681 9.15787 8.0405 9.07436 8.14279L7.81498 9.68146C5.83851 8.74957 4.2479 7.15897 3.31602 5.18249L4.85469 3.92312C4.95718 3.83976 5.02973 3.72527 5.06134 3.59699C5.09295 3.46871 5.08191 3.33362 5.02988 3.21218L3.81113 0.368432C3.75403 0.23752 3.65304 0.130635 3.52558 0.0662069C3.39811 0.00177904 3.25216 -0.0161532 3.11289 0.0155022L0.472266 0.624877C0.337992 0.655884 0.218193 0.731487 0.132421 0.839348C0.046649 0.947208 -3.09311e-05 1.08096 1.53771e-08 1.21876C1.53771e-08 7.73146 5.27871 13 11.7812 13C11.9191 13.0001 12.0529 12.9534 12.1608 12.8677C12.2687 12.7819 12.3444 12.6621 12.3754 12.5277L12.9848 9.88712C13.0162 9.74718 12.9979 9.60064 12.933 9.47274C12.8681 9.34483 12.7606 9.24356 12.629 9.18634Z" fill="#444444"/>
</svg>
