<svg width="32" height="32" viewBox="0 0 32 32" fill="none" xmlns="http://www.w3.org/2000/svg">
<path fill-rule="evenodd" clip-rule="evenodd" d="M10.8039 2.90918C11.4149 2.90918 11.9109 3.39556 11.9109 3.99604C11.9109 4.5951 11.4163 5.08148 10.8039 5.08148L8.43449 5.0829C6.46795 5.08576 4.86795 6.65614 4.86795 8.58597V11.2903C4.86795 11.8893 4.37049 12.3771 3.75958 12.3771C3.14867 12.3771 2.65267 11.8893 2.65267 11.2903V8.58597C2.65267 5.45945 5.24613 2.91346 8.43304 2.91061L10.8025 2.90918H10.8039ZM21.2372 2.90951H23.5543C26.75 2.90951 29.3478 5.45693 29.3478 8.59058V11.2906C29.3478 11.8897 28.8532 12.3775 28.2409 12.3775C27.63 12.3775 27.134 11.8897 27.134 11.2906V8.59058C27.134 6.65505 25.5281 5.08038 23.5543 5.08038H21.2372C20.6263 5.08038 20.1303 4.59543 20.1303 3.99637C20.1303 3.39589 20.6263 2.90951 21.2372 2.90951ZM20.0181 8.35307H11.9832C10.1447 8.37161 8.66687 9.84501 8.68287 11.6493V13.4608C8.68724 13.6718 8.86033 13.8444 9.0756 13.8516H22.9229C23.1396 13.8459 23.3127 13.6733 23.32 13.4608V11.6493C23.3214 10.7778 22.9781 9.94057 22.3585 9.31727C21.7432 8.69967 20.8981 8.35307 20.0181 8.35307ZM1.10836 16.0601H30.8931C31.504 16.0601 32 16.5465 32 17.1469C32 17.746 31.504 18.231 30.8931 18.231H29.3484V23.4085C29.3484 26.5436 26.7491 29.091 23.5549 29.091H21.2378C20.6255 29.091 20.1295 28.6046 20.1295 28.0041C20.1295 27.4051 20.6255 26.9187 21.2378 26.9187H23.5549C25.5287 26.9187 27.1345 25.3455 27.1345 23.4085V18.231H23.3193V19.673C23.3338 21.4773 21.8575 22.9521 20.0175 22.9692H11.9825C10.144 22.9521 8.66763 21.4773 8.68218 19.673V18.231H4.86691V23.4142C4.86691 25.344 6.46836 26.9144 8.43636 26.9173L10.8044 26.9187C11.4153 26.9187 11.9113 27.4051 11.9113 28.0041C11.9098 28.6046 11.4153 29.091 10.8029 29.091L8.43345 29.0896C5.24654 29.0867 2.65164 26.5407 2.65164 23.4142V18.231H1.10836C0.497455 18.231 0 17.746 0 17.1469C0 16.5465 0.497455 16.0601 1.10836 16.0601Z" fill="#0D7CE0"/>
</svg>
