<svg width="448" height="303" viewBox="0 0 448 303" fill="none" xmlns="http://www.w3.org/2000/svg">
<path d="M393.661 119.48C321.575 77.5068 205.116 77.5068 133.466 119.48C61.8158 161.452 62.2523 229.548 134.339 271.52C206.425 313.493 322.884 313.493 394.534 271.52C466.184 229.548 465.748 161.452 393.661 119.48Z" fill="url(#paint0_linear)"/>
<g clip-path="url(#clip0)">
<path d="M276.193 86.614C288.486 86.5097 300.432 89.2048 311.099 95.3751C315.769 98.058 319.837 100.663 322.575 105.429C325.545 110.57 325.33 116.323 326.36 121.966C326.66 123.851 326.96 125.736 326.598 127.614C326.236 129.492 325.206 131.297 323.492 132.109C322.161 132.754 320.569 132.698 319.096 132.5C313.819 131.914 308.694 130.063 303.712 128.331C298.319 126.437 292.812 124.752 287.791 121.836C282.978 119.034 279.242 114.95 276.438 110.19C274.097 106.18 272.455 101.843 271.004 97.4241C270.53 95.8184 270.057 94.2126 269.977 92.5718C269.885 88.5591 272.358 86.6254 276.193 86.614Z" fill="url(#paint1_radial)"/>
<path d="M276.193 86.614C288.486 86.5097 300.432 89.2048 311.099 95.3751C315.769 98.058 319.837 100.663 322.575 105.429C325.545 110.57 325.33 116.323 326.36 121.966C326.66 123.851 326.96 125.736 326.598 127.614C326.236 129.492 325.206 131.297 323.492 132.109C322.161 132.754 320.569 132.698 319.096 132.5C313.819 131.914 308.694 130.063 303.712 128.331C298.319 126.437 292.812 124.752 287.791 121.836C282.978 119.034 279.242 114.95 276.438 110.19C274.097 106.18 272.455 101.843 271.004 97.4241C270.53 95.8184 270.057 94.2126 269.977 92.5718C269.885 88.5591 272.358 86.6254 276.193 86.614Z" fill="#DFE7E7"/>
<path d="M321.091 112.548C320.495 107.327 317.072 104.534 317.072 104.534C313.199 100.396 307.008 97.7164 301.806 95.7401C296.264 93.6621 290.404 92.4694 284.429 92.2097C282.699 92.0998 278.65 91.9325 276.584 93.2368C276.022 93.6163 275.598 94.0496 275.453 94.6556C275.05 96.0757 275.804 97.8543 276.319 99.1927C276.936 100.918 277.618 102.637 278.365 104.35C279.783 107.652 281.392 110.87 283.628 113.703C286.53 117.334 290.916 119.054 295.147 120.523C300.261 122.244 305.368 123.899 310.421 125.691L313.95 126.695C317.478 127.7 319.651 126.848 319.651 126.848C322.833 125.444 322.083 122.215 322.083 122.215L321.091 112.548Z" fill="url(#paint2_radial)"/>
<path d="M314.278 116.252C316.727 117.022 319.248 117.853 321.698 118.624L321.086 112.482C320.489 107.262 317.066 104.468 317.066 104.468C313.193 100.331 307.002 97.6511 301.8 95.6748C296.67 93.758 291.275 92.5898 285.818 92.218C286.637 93.9908 287.462 95.829 288.281 97.6019C289.599 100.517 290.677 103.717 292.436 106.395C294.576 109.632 298.353 111.208 301.893 112.343C305.988 113.759 310.195 114.967 314.278 116.252Z" fill="url(#paint3_radial)"/>
<path d="M336.975 104.478C336.898 104.353 336.88 104.157 336.803 104.032C334.558 97.3762 331.035 91.2297 326.467 85.9671C322.267 81.1332 316.267 78.3709 310.073 77.1419C303.069 75.7213 295.787 75.6437 288.959 77.7009C285.48 78.7354 282.529 80.5137 279.382 82.3096C277.082 83.9643 274.788 85.6843 272.565 87.4639C273.575 86.9128 274.744 86.677 276.194 86.614C288.486 86.5098 300.432 89.2048 311.099 95.3752C315.769 98.058 319.837 100.663 322.575 105.429C325.546 110.57 325.33 116.323 326.361 121.966C326.66 123.851 326.96 125.736 326.598 127.614C326.29 129.355 325.38 131.018 323.875 131.943L338.903 124.674C339.93 121.353 339.539 117.697 339.171 114.302C338.809 110.972 337.982 107.618 336.975 104.478Z" fill="url(#paint4_radial)"/>
<path d="M336.975 104.478C336.898 104.353 336.88 104.157 336.803 104.032C334.558 97.3762 331.035 91.2297 326.467 85.9671C322.267 81.1332 316.267 78.3709 310.073 77.1419C303.069 75.7213 295.787 75.6437 288.959 77.7009C285.48 78.7354 282.529 80.5137 279.382 82.3096C277.082 83.9643 274.788 85.6843 272.565 87.4639C273.575 86.9128 274.744 86.677 276.194 86.614C288.486 86.5098 300.432 89.2048 311.099 95.3752C315.769 98.058 319.837 100.663 322.575 105.429C325.546 110.57 325.33 116.323 326.361 121.966C326.66 123.851 326.96 125.736 326.598 127.614C326.29 129.355 325.38 131.018 323.875 131.943L338.903 124.674C339.93 121.353 339.539 117.697 339.171 114.302C338.809 110.972 337.982 107.618 336.975 104.478Z" fill="#BDCACA"/>
<path d="M403.076 166.56C401.426 160.642 399.387 154.825 397.027 149.102C392.246 137.729 386.193 126.929 379.208 116.806C374.803 110.409 369.645 102.232 372.394 94.4734C374.987 87.1899 371.408 79.6642 365.634 74.9703C351.733 63.6822 331.516 63.1728 314.773 66.7708C308.346 68.1332 302.264 70.3879 296.37 73.2848C293.773 74.5704 291.176 75.856 288.584 77.207C288.268 77.3669 287.587 77.8889 286.834 78.3513C287.538 78.0909 288.243 77.8306 288.947 77.5702C295.775 75.513 303.128 75.6501 310.061 77.0111C316.255 78.2401 322.189 81.0083 326.455 85.8364C331.089 91.0931 334.617 97.305 336.791 103.901C336.868 104.026 336.886 104.222 336.963 104.347C337.146 104.924 337.33 105.501 337.508 106.013C340.306 105.5 343.189 104.453 345.171 103.683C350.925 101.458 356.566 99.4402 362.8 98.8859C363.981 98.7809 365.234 98.7354 366.222 99.4385C367.842 100.547 367.723 102.93 367.432 104.868C366.537 110.418 371.051 115.818 373.647 120.465C377.265 126.932 381.079 133.382 385.078 139.684C391.472 149.86 396.919 159.79 398.979 171.802C399.903 176.993 400.94 182.701 398.52 187.464C395.764 192.917 392.365 197.833 389.055 203.005C387.14 206.01 388.848 207.374 388.848 207.374L390.36 208.756C390.288 208.696 397.904 198.395 398.431 197.623C401.668 193.117 405.171 189.378 406.115 183.625C406.987 177.813 404.572 172.227 403.076 166.56Z" fill="url(#paint5_radial)"/>
<path d="M403.076 166.56C401.426 160.642 399.387 154.825 397.027 149.102C392.246 137.729 386.193 126.929 379.208 116.806C374.803 110.409 369.645 102.232 372.394 94.4734C374.987 87.1899 371.408 79.6642 365.634 74.9703C351.733 63.6822 331.516 63.1728 314.773 66.7708C308.346 68.1332 302.264 70.3879 296.37 73.2848C293.773 74.5704 291.176 75.856 288.584 77.207C288.268 77.3669 287.587 77.8889 286.834 78.3513C287.538 78.0909 288.243 77.8306 288.947 77.5702C295.775 75.513 303.128 75.6501 310.061 77.0111C316.255 78.2401 322.189 81.0083 326.455 85.8364C331.089 91.0931 334.617 97.305 336.791 103.901C336.868 104.026 336.886 104.222 336.963 104.347C337.146 104.924 337.33 105.501 337.508 106.013C340.306 105.5 343.189 104.453 345.171 103.683C350.925 101.458 356.566 99.4402 362.8 98.8859C363.981 98.7809 365.234 98.7354 366.222 99.4385C367.842 100.547 367.723 102.93 367.432 104.868C366.537 110.418 371.051 115.818 373.647 120.465C377.265 126.932 381.079 133.382 385.078 139.684C391.472 149.86 396.919 159.79 398.979 171.802C399.903 176.993 400.94 182.701 398.52 187.464C395.764 192.917 392.365 197.833 389.055 203.005C387.14 206.01 388.848 207.374 388.848 207.374L390.36 208.756C390.288 208.696 397.904 198.395 398.431 197.623C401.668 193.117 405.171 189.378 406.115 183.625C406.987 177.813 404.572 172.227 403.076 166.56Z" fill="#D9E2E2"/>
<path d="M336.436 102.878C336.602 103.259 336.702 103.645 336.803 104.032C336.702 103.645 336.602 103.259 336.436 102.878Z" fill="#4A484B"/>
<path d="M366.234 99.5693C365.251 98.9316 363.993 98.9117 362.812 99.0167C356.643 99.5652 350.937 101.589 345.183 103.814C343.135 104.589 340.318 105.631 337.519 106.143C338.283 108.778 338.921 111.49 339.159 114.171C339.462 117.572 339.853 121.228 338.891 124.544C339.003 125.061 349.194 120.661 350.024 120.324C356.262 117.594 364.199 113.131 367.339 106.788C367.286 106.199 367.359 105.534 367.438 104.933C367.735 103.061 367.853 100.678 366.234 99.5693Z" fill="url(#paint6_radial)"/>
<path d="M366.234 99.5693C365.251 98.9316 363.993 98.9117 362.812 99.0167C356.643 99.5652 350.937 101.589 345.183 103.814C343.135 104.589 340.318 105.631 337.519 106.143C338.283 108.778 338.921 111.49 339.159 114.171C339.462 117.572 339.853 121.228 338.891 124.544C339.003 125.061 349.194 120.661 350.024 120.324C356.262 117.594 364.199 113.131 367.339 106.788C367.286 106.199 367.359 105.534 367.438 104.933C367.735 103.061 367.853 100.678 366.234 99.5693Z" fill="#C3D0D0"/>
<path d="M398.991 171.933C396.931 159.921 391.484 149.991 385.09 139.815C381.156 133.508 377.348 127.123 373.659 120.596C371.307 116.454 367.507 111.651 367.339 106.788L367.345 106.853C364.205 113.197 356.268 117.66 350.03 120.389C349.456 120.638 343.916 123.042 340.902 124.101C341.093 124.018 341.784 124.352 341.993 124.466C342.952 124.842 343.852 125.289 344.691 125.808C347.496 127.602 349.589 130.316 350.859 133.433C351.718 135.664 352.416 138.304 352.429 140.676C352.406 142.655 351.805 144.818 350.269 146.141C348.733 147.464 346.305 147.68 344.331 147.79L368.625 175.555C369.143 176.168 369.504 177.257 369.896 177.947C370.431 178.756 371.031 179.56 371.501 180.375C372.279 181.69 372.968 182.749 374.243 183.691C376.857 185.568 380.296 186.316 383.517 186.096C387.067 185.846 390.469 184.687 393.782 183.272C395.883 182.36 398.134 181.632 400.075 180.405C399.95 177.516 399.432 174.662 398.991 171.933Z" fill="#4F4D50"/>
<path d="M398.991 171.933C396.931 159.921 391.484 149.991 385.09 139.815C381.156 133.508 377.348 127.123 373.659 120.596C371.307 116.454 367.507 111.651 367.339 106.788L367.345 106.853C364.205 113.197 356.268 117.66 350.03 120.389C349.456 120.638 343.916 123.042 340.902 124.101C341.093 124.018 341.784 124.352 341.993 124.466C342.952 124.842 343.852 125.289 344.691 125.808C347.496 127.602 349.589 130.316 350.859 133.433C351.718 135.664 352.416 138.304 352.429 140.676C352.406 142.655 351.805 144.818 350.269 146.141C348.733 147.464 346.305 147.68 344.331 147.79L368.625 175.555C369.143 176.168 369.504 177.257 369.896 177.947C370.431 178.756 371.031 179.56 371.501 180.375C372.279 181.69 372.968 182.749 374.243 183.691C376.857 185.568 380.296 186.316 383.517 186.096C387.067 185.846 390.469 184.687 393.782 183.272C395.883 182.36 398.134 181.632 400.075 180.405C399.95 177.516 399.432 174.662 398.991 171.933Z" fill="url(#paint7_radial)"/>
<path d="M398.991 171.933C396.931 159.921 391.484 149.991 385.09 139.815C381.156 133.508 377.348 127.123 373.659 120.596C371.307 116.454 367.507 111.651 367.339 106.788L367.345 106.853C364.205 113.197 356.268 117.66 350.03 120.389C349.456 120.638 343.916 123.042 340.902 124.101C341.093 124.018 341.784 124.352 341.993 124.466C342.952 124.842 343.852 125.289 344.691 125.808C347.496 127.602 349.589 130.316 350.859 133.433C351.718 135.664 352.416 138.304 352.429 140.676C352.406 142.655 351.805 144.818 350.269 146.141C348.733 147.464 346.305 147.68 344.331 147.79L368.625 175.555C369.143 176.168 369.504 177.257 369.896 177.947C370.431 178.756 371.031 179.56 371.501 180.375C372.279 181.69 372.968 182.749 374.243 183.691C376.857 185.568 380.296 186.316 383.517 186.096C387.067 185.846 390.469 184.687 393.782 183.272C395.883 182.36 398.134 181.632 400.075 180.405C399.95 177.516 399.432 174.662 398.991 171.933Z" fill="#CAD7D7"/>
<path d="M367.384 105.07C367.33 105.207 367.348 105.403 367.294 105.539C367.348 105.403 367.396 105.201 367.384 105.07Z" fill="#4F4D50"/>
<path d="M367.334 105.997C367.323 105.866 367.317 105.801 367.371 105.664C367.317 105.801 367.328 105.932 367.334 105.997Z" fill="#4F4D50"/>
<path d="M398.532 187.595C399.826 185.041 400.101 182.183 399.976 179.293C400.005 179.62 400.034 179.947 400.003 180.346C398.062 181.573 395.752 182.371 393.711 183.212C390.457 184.556 387.061 185.781 383.446 186.036C380.225 186.257 376.851 185.502 374.171 183.631C372.897 182.69 372.148 181.702 371.429 180.316C370.96 179.5 370.294 178.703 369.825 177.887C369.67 177.638 369.51 177.322 369.421 177.066C369.794 178.286 370.175 181.086 368.581 186.963C367.757 190.332 366.938 193.766 366.113 197.135C365.336 200.302 364.172 203.57 363.795 206.767C363.564 208.634 363.81 210.655 364.814 212.28C365.747 213.844 367.301 214.959 368.957 215.734C371.984 217.047 375.734 217.571 378.986 216.952C384.195 216.027 387.339 212.716 390.3 208.827L388.854 207.439C388.854 207.439 387.146 206.075 389.061 203.071C392.317 198.035 395.71 193.054 398.532 187.595Z" fill="#C4D1D1"/>
<path d="M350.728 133.445C349.524 130.322 347.371 127.679 344.56 125.819C343.72 125.301 342.815 124.788 341.862 124.477C341.659 124.429 341.028 124.024 340.771 124.113C340.771 124.113 340.771 124.113 340.837 124.107C339.684 124.539 338.909 124.74 338.831 124.615C338.831 124.615 335.088 126.398 331.284 128.252C331.284 128.252 333.849 131.056 333.826 138.243C333.826 138.243 333.256 142.249 335.684 144.999C335.684 144.999 338.551 148.238 342.202 147.649L344.217 147.997C344.14 147.873 344.074 147.878 344.074 147.878C346.055 147.834 348.411 147.559 350.013 146.23C351.548 144.907 352.144 142.679 352.172 140.765C352.285 138.316 351.587 135.675 350.728 133.445Z" fill="url(#paint8_radial)"/>
</g>
<path d="M241.723 152.727C241.296 152.97 240.795 153.047 240.315 152.944L185.146 141.137C183.122 140.703 183.009 137.856 184.993 137.264L290.593 105.758C290.863 105.677 291.148 105.654 291.428 105.692L312.231 108.454C314.13 108.706 314.622 111.227 312.957 112.175L241.723 152.727Z" fill="url(#paint9_linear)"/>
<g filter="url(#filter0_f)">
<path d="M209 172L120.444 140C104.192 140.446 90.2616 140.892 76.3314 142.675C47.1443 146.687 -8.24479 172.109 19.6156 182.809C31.8875 187.489 47.8077 190.164 63.7279 190.833H64.3913C68.3713 191.056 72.0197 195.056 75.9997 194.833L198.718 226.833L209 172Z" fill="url(#paint10_linear)" fill-opacity="0.2"/>
</g>
<path d="M241.743 80.6521L240.852 200.152H136.169L135.501 80.6521H241.743Z" fill="url(#paint11_linear)"/>
<path d="M151.092 221.397C161.56 227.372 175.592 230.47 189.624 230.248C200.984 230.027 212.12 227.814 221.475 223.61C223.034 222.946 224.37 222.282 225.707 221.397C245.975 209.668 245.752 190.858 225.261 179.571C224.147 178.908 222.811 178.244 221.475 177.58C212.12 173.375 200.761 171.162 189.402 170.941C175.815 170.941 162.229 173.596 151.76 179.571C131.492 190.858 130.824 209.668 151.092 221.397Z" fill="url(#paint12_linear)"/>
<path d="M153.542 180.457C173.142 169.613 204.324 169.613 223.702 180.235C243.302 191.079 243.525 209.004 224.147 220.29C204.547 231.576 172.251 231.798 152.874 220.511C133.274 209.225 133.942 191.3 153.542 180.457Z" fill="url(#paint13_linear)"/>
<path d="M220.807 179.35C220.361 176.695 219.247 174.039 217.243 171.605C215.461 169.171 213.011 167.179 210.561 166.294L191.852 158.77C186.952 156.778 183.611 159.434 184.279 164.523C184.724 167.179 185.838 169.835 187.843 172.269C189.624 174.703 192.074 176.695 194.524 177.58L213.234 185.104C218.134 187.096 221.475 184.44 220.807 179.35Z" fill="#5700EB"/>
<path d="M220.807 179.35C220.361 176.694 219.248 174.039 217.243 171.605C215.461 169.17 213.011 167.179 210.561 166.294L201.207 162.531L203.657 181.342L213.011 185.104C218.134 187.095 221.475 184.44 220.807 179.35Z" fill="#5700EB"/>
<path d="M221.698 188.423C218.802 189.751 215.461 190.415 198.534 182.67L206.775 160.983C224.148 167.843 224.816 169.392 226.598 172.269C230.384 177.58 227.043 186.211 221.698 188.423Z" fill="#F05907"/>
<path d="M203.879 181.121C199.647 184.219 195.861 182.67 194.97 177.58C194.302 172.49 197.197 165.63 201.207 162.532C205.438 159.434 209.225 160.983 209.893 166.072C210.784 171.162 208.111 178.022 203.879 181.121Z" fill="#EB6A00"/>
<path d="M198.534 182.67C180.938 175.809 180.493 173.375 179.602 170.941C176.929 163.638 181.829 158.327 184.724 156.999C190.07 154.786 194.302 154.786 206.775 160.983C209.225 162.31 201.207 183.776 198.534 182.67Z" fill="#EB6A00"/>
<path d="M190.515 188.866C191.629 191.079 193.856 193.292 196.306 194.841C198.756 196.39 201.652 197.496 204.325 197.718L224.37 198.603C229.716 198.824 231.943 195.284 229.493 190.636C228.379 188.423 226.152 186.21 223.479 184.661C221.029 183.112 218.134 182.006 215.461 181.784L195.415 180.899C190.515 180.678 188.065 184.219 190.515 188.866Z" fill="#5700EB"/>
<path d="M190.515 188.866C191.629 191.079 193.856 193.292 196.306 194.841C198.756 196.39 201.652 197.496 204.324 197.718L214.347 198.16L205.661 181.342L195.638 180.899C190.515 180.678 188.065 184.219 190.515 188.866Z" fill="#5700EB"/>
<path d="M186.506 180.678C188.733 178.465 191.629 176.695 210.338 178.244L209.893 201.259C191.183 200.595 190.07 199.267 187.397 197.275C182.274 193.734 182.274 184.661 186.506 180.678Z" fill="#F05907"/>
<path d="M205.884 181.563C208.779 177.137 213.011 177.359 215.461 182.006C217.911 186.653 217.466 193.956 214.57 198.382C211.675 202.808 207.443 202.587 204.993 197.939C202.543 193.292 202.988 185.989 205.884 181.563Z" fill="#EB6A00"/>
<path d="M210.338 178.244C229.27 178.908 230.607 180.899 232.166 182.891C237.289 188.866 234.393 195.505 231.943 197.718C227.711 201.701 223.702 203.029 209.893 201.259C207.22 201.037 207.443 178.244 210.338 178.244Z" fill="#EB6A00"/>
<path d="M151.537 78.8817C172.251 68.9233 205.438 68.9233 225.929 78.6604C246.42 88.6187 246.198 104.773 225.707 114.732C204.993 124.69 171.806 124.69 151.315 114.953C130.824 104.995 130.824 88.84 151.537 78.8817Z" fill="url(#paint14_linear)" fill-opacity="0.4"/>
<path d="M189.625 82.4224V228.257C200.984 228.036 212.12 225.823 221.475 221.618V175.588L221.698 82.4224H189.625Z" fill="url(#paint15_linear)" fill-opacity="0.4"/>
<path d="M150.869 102.118C171.583 114.068 205.215 113.846 225.929 101.896C246.643 89.9464 246.866 70.6936 226.152 58.7436C205.438 46.7935 172.029 47.2361 151.092 59.1862C130.378 71.1362 130.155 90.389 150.869 102.118Z" fill="#FF7C00"/>
<path d="M130.601 69.1446L144.188 62.2844C145.301 61.6205 146.415 60.7353 147.751 60.0714C170.47 47.0149 207.22 47.0149 229.939 59.8501C231.275 60.514 232.389 61.3992 233.725 62.2844L246.866 69.1446V83.5289C246.866 91.9382 241.075 100.569 229.716 106.986C206.775 120.043 170.024 120.043 147.306 106.986C135.947 100.569 130.378 91.9382 130.378 83.3076V69.1446H130.601Z" fill="#CAD7D7"/>
<path d="M130.601 60.0714L144.188 53.2112C145.301 52.5473 146.415 51.6621 147.751 50.9982C170.47 37.9417 207.22 37.9417 229.939 50.7769C231.275 51.4408 232.389 52.326 233.725 53.2112L246.866 60.0714V74.4556C246.866 82.8649 241.075 91.4955 229.716 97.9131C206.775 111.191 170.024 111.191 147.306 98.1344C135.947 91.7168 130.378 83.0862 130.378 74.4556V60.0714H130.601Z" fill="#9DB5B5"/>
<path d="M188.694 102.34C220.8 102.167 246.746 87.1656 246.646 68.8327C246.546 50.4999 220.438 35.7784 188.332 35.9513C156.227 36.1242 130.281 51.1261 130.381 69.4589C130.481 87.7917 156.589 102.513 188.694 102.34Z" fill="#F1F4F4"/>
<path d="M129.265 34.8435V70.0297C129.265 73.5704 130.156 77.3325 132.16 80.6519C132.828 81.9797 133.719 83.0862 134.61 84.414C135.724 85.7417 136.837 87.0695 138.174 88.176C139.065 88.8399 139.733 89.7251 140.624 90.389C141.738 91.2742 142.851 92.1593 144.188 92.8232C144.856 93.2658 145.747 93.7084 146.415 94.151C146.415 94.151 146.638 94.151 146.638 94.3723C147.751 95.0362 148.865 95.7001 150.201 96.1427C151.092 96.5853 151.76 97.0279 152.651 97.2492C153.765 97.6918 155.101 98.1344 156.215 98.7982C157.106 99.0195 157.774 99.4621 158.665 99.6834C159.779 100.126 161.115 100.347 162.229 100.79C163.12 101.011 163.788 101.233 164.679 101.454C165.792 101.675 166.906 101.896 168.02 102.118C168.911 102.339 169.801 102.339 170.47 102.56C171.583 102.782 172.697 103.003 173.811 103.224C174.702 103.224 175.37 103.445 176.261 103.445C177.374 103.667 178.488 103.667 179.602 103.667C180.493 103.667 181.383 103.888 182.052 103.888C183.165 103.888 184.279 104.109 185.393 104.109C186.284 104.109 186.952 104.109 187.843 104.109C188.956 104.109 190.07 104.109 191.184 104.109C192.074 104.109 192.743 104.109 193.634 103.888C194.747 103.888 195.861 103.667 196.975 103.667C197.865 103.667 198.534 103.445 199.425 103.445C200.538 103.224 201.652 103.224 202.766 103.003C203.656 102.782 204.547 102.782 205.216 102.56C206.329 102.339 207.443 102.118 208.557 101.896C209.447 101.675 210.116 101.675 211.007 101.454C212.12 101.233 213.234 101.011 214.347 100.569L216.798 99.9047C217.911 99.4621 219.025 99.2408 220.138 98.7982C221.029 98.577 221.698 98.1344 222.588 97.9131C223.702 97.4705 224.816 97.0279 225.929 96.364C226.82 95.9214 227.711 95.4788 228.379 95.0362C229.048 94.8149 229.493 94.3723 229.939 94.151C230.607 93.9297 231.052 93.4871 231.498 93.2658C232.389 92.8232 233.28 92.1593 233.948 91.7168C235.061 90.8316 236.175 89.9464 237.289 89.0612C238.18 88.176 239.071 87.5121 239.739 86.6269C240.852 85.5204 241.966 84.1927 242.857 82.8649L243.08 82.6436C244.193 81.0945 244.861 79.5454 245.53 78.2177C246.643 75.5621 247.312 72.9065 247.312 70.251V34.8435L237.957 44.8019L234.616 48.1213C233.725 47.6787 233.057 47.0148 232.166 46.5722C231.72 46.3509 231.275 45.9083 230.83 45.687C230.161 45.2444 229.493 45.0232 228.825 44.5806C227.934 44.138 227.266 43.6954 226.375 43.2528C225.261 42.8102 224.148 42.3676 223.034 41.7037C222.143 41.4824 221.475 41.0398 220.584 40.8185C219.47 40.3759 218.357 39.9333 217.243 39.712C216.352 39.4907 215.684 39.2694 214.793 39.0481C213.679 38.8268 212.566 38.3843 211.452 38.163C210.561 37.9417 209.893 37.7204 209.002 37.7204C207.888 37.4991 206.775 37.2778 205.661 37.0565C204.77 36.8352 204.102 36.8352 203.211 36.6139C202.097 36.3926 200.984 36.3926 199.87 36.1713C198.979 36.1713 198.311 35.95 197.42 35.95C196.306 35.95 195.193 35.7287 194.079 35.7287C193.188 35.7287 192.52 35.7287 191.629 35.7287C190.515 35.7287 189.402 35.7287 188.288 35.7287C187.397 35.7287 186.729 35.7287 185.838 35.7287C184.724 35.7287 183.611 35.7287 182.497 35.95C181.606 35.95 180.715 35.95 180.047 36.1713C178.933 36.1713 177.82 36.3926 176.706 36.3926C175.815 36.6139 174.924 36.6139 174.256 36.8352C173.142 37.0565 172.029 37.0565 170.915 37.2778C170.024 37.4991 169.133 37.4991 168.465 37.7204C167.351 37.9417 166.238 38.163 165.124 38.3843C164.233 38.6056 163.342 38.8268 162.674 39.0481C161.56 39.2694 160.224 39.712 159.11 40.1546C158.22 40.3759 157.551 40.8185 156.66 41.0398C155.547 41.4824 154.21 41.925 153.097 42.5889C152.206 42.8102 151.538 43.2528 150.647 43.6954C149.533 44.3593 148.197 44.8019 147.083 45.4657C146.192 45.9083 145.301 46.5722 144.633 47.0148C144.188 47.2361 143.965 47.4574 143.519 47.6787L141.069 45.2445L138.619 42.8102L135.056 39.4907L132.606 37.0565L129.265 34.8435Z" fill="#DCE4E4"/>
<path d="M243.748 39.0483V82.4224C244.861 80.8734 245.529 79.3243 246.198 77.9965V36.614L243.748 39.0483Z" fill="#CFDADA"/>
<path d="M237.957 44.8019V88.6187C238.847 87.7335 239.738 87.0696 240.407 86.1844V42.3677L237.957 44.8019Z" fill="#CFDADA"/>
<path d="M232.166 46.5723V92.8233C233.056 92.3807 233.947 91.7168 234.616 91.2742V48.1213C233.725 47.6787 232.834 47.2362 232.166 46.5723Z" fill="#CFDADA"/>
<path d="M226.375 43.4741V96.1427C227.265 95.7001 228.156 95.2575 228.825 94.815V44.8019C227.934 44.3593 227.043 43.9167 226.375 43.4741Z" fill="#CFDADA"/>
<path d="M220.361 41.0398V98.5769C221.252 98.3556 221.92 97.913 222.811 97.6917V41.925C222.143 41.7037 221.252 41.4824 220.361 41.0398Z" fill="#CFDADA"/>
<path d="M214.57 39.2693V100.568L217.02 99.9046V40.1545C216.352 39.7119 215.461 39.4906 214.57 39.2693Z" fill="#CFDADA"/>
<path d="M208.779 37.9417V101.896C209.67 101.675 210.338 101.675 211.229 101.454V38.3842C210.561 38.1629 209.67 37.9417 208.779 37.9417Z" fill="#CFDADA"/>
<path d="M202.988 36.8352V103.003C203.879 102.782 204.77 102.782 205.438 102.56V37.2778C204.77 37.0565 203.879 36.8352 202.988 36.8352Z" fill="#CFDADA"/>
<path d="M197.197 36.1711V103.667C198.088 103.667 198.756 103.445 199.647 103.445V36.3924C198.979 36.3924 198.088 36.3924 197.197 36.1711Z" fill="#CFDADA"/>
<path d="M191.406 35.95V104.109C192.297 104.109 192.965 104.109 193.856 103.888V35.95C193.188 35.95 192.297 35.95 191.406 35.95Z" fill="#CFDADA"/>
<path d="M185.615 35.95V104.109C186.506 104.109 187.174 104.109 188.065 104.109V35.95C187.174 35.95 186.506 35.95 185.615 35.95Z" fill="#CFDADA"/>
<path d="M179.824 36.3924V103.888C180.715 103.888 181.606 104.109 182.274 104.109V36.1711C181.383 36.1711 180.715 36.1711 179.824 36.3924Z" fill="#CFDADA"/>
<path d="M174.033 37.0566V103.224C174.924 103.224 175.592 103.446 176.483 103.446V36.614C175.592 36.8353 174.924 36.8353 174.033 37.0566Z" fill="#CFDADA"/>
<path d="M168.242 37.9416V101.896C169.133 102.118 170.024 102.118 170.692 102.339V37.499C169.801 37.7203 168.91 37.7203 168.242 37.9416Z" fill="#CFDADA"/>
<path d="M162.451 39.4908V100.569C163.342 100.79 164.01 101.011 164.901 101.233V38.8269C164.01 39.0482 163.119 39.2695 162.451 39.4908Z" fill="#CFDADA"/>
<path d="M156.215 41.4824V98.7982C157.106 99.0195 157.774 99.4621 158.665 99.6834V40.5972C157.997 40.8185 157.106 41.0398 156.215 41.4824Z" fill="#CFDADA"/>
<path d="M150.201 44.138V96.1427C151.092 96.5853 151.76 97.0279 152.651 97.2492V43.0315C151.983 43.2528 151.092 43.6954 150.201 44.138Z" fill="#CFDADA"/>
<path d="M144.187 47.4573V92.6018C144.855 93.0444 145.746 93.487 146.414 93.9296C146.414 93.9296 146.637 93.9296 146.637 94.1509V45.9082C145.746 46.5721 144.855 47.0147 144.187 47.4573Z" fill="#CFDADA"/>
<path d="M138.173 43.4741V88.176C139.064 88.8399 139.732 89.7251 140.623 90.389V45.9084L138.173 43.4741Z" fill="#CFDADA"/>
<path d="M131.937 37.499V80.6519C132.605 81.9796 133.496 83.0861 134.387 84.4139V40.1546L131.937 37.499Z" fill="#CFDADA"/>
<path d="M146.415 58.9649C169.579 72.2427 207.22 72.2427 230.384 58.7436C253.548 45.4658 253.771 23.7787 230.607 10.5009C207.443 -2.77687 169.801 -2.77687 146.638 10.7222C123.474 24.2213 123.251 45.6871 146.415 58.9649Z" fill="#EBEFEF"/>
<path d="M151.983 13.8205C172.251 2.09177 205.216 2.09177 225.261 13.5992C245.53 25.1066 245.307 43.9168 225.038 55.6456C204.77 67.3743 171.806 67.3743 151.76 55.8669C131.492 44.3594 131.715 25.5492 151.983 13.8205Z" fill="#E9EDED"/>
<path d="M151.983 13.8205C172.252 2.09177 205.216 2.09177 225.261 13.5992C225.93 14.0418 226.375 14.2631 226.82 14.7057C206.552 5.85382 176.483 6.51771 157.551 16.6974C137.283 27.5409 137.06 45.0233 157.329 55.8669C170.024 62.5058 187.397 65.1613 203.879 63.3909C186.061 66.4891 166.015 64.0548 151.983 56.0882C131.492 44.3594 131.715 25.5492 151.983 13.8205Z" fill="#9DB5B5"/>
<path d="M225.261 19.3528C204.993 7.84538 172.251 7.84538 151.983 19.5741C143.074 24.6639 137.951 31.3028 136.837 37.9417C135.501 29.3111 140.401 20.4593 151.983 14.0417C172.251 2.31296 205.215 2.31296 225.261 13.8204C236.62 20.238 241.52 29.0899 240.184 37.4991C239.07 30.8602 234.17 24.2213 225.261 19.3528Z" fill="#CAD7D7"/>
<path d="M167.574 274.508V277.606C167.352 276.499 167.352 275.393 167.574 274.508Z" fill="#FF6B0D"/>
<path d="M241.521 171.605L240.852 189.751C240.852 191.3 240.63 192.849 240.407 194.177C238.402 198.825 233.502 203.25 226.152 206.791C205.884 216.528 173.588 216.971 152.874 207.676V189.087C173.588 198.382 205.884 197.939 226.152 188.202C233.502 184.661 238.402 180.236 240.407 175.588C241.075 174.261 241.298 172.933 241.521 171.605Z" fill="#CED3E1"/>
<path d="M241.521 124.911L240.852 171.162C240.852 172.711 240.63 174.261 240.407 175.588C238.848 181.563 233.948 187.538 225.929 192.186C224.593 193.071 223.034 193.735 221.698 194.399C212.343 198.824 201.206 201.037 189.847 201.037C176.483 201.259 163.342 198.603 152.874 193.292V142.615C173.588 151.91 205.884 151.467 226.152 141.73C234.393 137.747 239.293 132.878 241.075 127.567C241.298 126.682 241.298 125.797 241.521 124.911Z" fill="#EBEFEF"/>
<path d="M240.852 127.567V130.222C240.852 131.108 240.852 131.772 240.63 132.657C238.625 137.747 233.948 142.394 225.93 146.156C205.661 155.893 173.365 156.335 152.651 147.041V142.394C173.365 151.688 205.661 151.246 225.93 141.509C234.171 137.747 239.071 132.878 240.852 127.567Z" fill="#CED3E1"/>
<path d="M157.329 174.039V191.964C157.329 191.964 165.57 195.505 180.493 196.39C195.415 197.275 197.197 195.947 197.197 195.947V178.908C197.42 178.908 174.256 180.899 157.329 174.039Z" fill="#D1E3D6"/>
<path d="M180.493 173.375C165.57 172.49 157.329 168.949 157.329 168.949V171.605C157.329 171.605 165.57 175.146 180.493 176.031C195.415 176.916 197.197 176.031 197.197 176.031V173.375C197.42 173.375 195.415 174.26 180.493 173.375Z" fill="#D1E3D6"/>
<path d="M239.293 138.41C239.293 138.41 233.947 149.918 213.902 154.122C193.856 158.327 183.388 156.557 183.388 156.557V160.983C183.388 160.983 198.756 162.31 216.797 157.885C234.616 153.459 239.293 143.058 239.293 143.058V138.41Z" fill="#D1E3D6"/>
<path d="M239.293 184.219C239.293 184.219 233.947 195.947 213.902 201.48C193.856 206.791 183.388 205.685 183.388 205.685V210.11C183.388 210.11 198.756 210.553 216.797 205.021C234.616 199.71 239.293 189.087 239.293 189.087V184.219Z" fill="#EBEFEF"/>
<defs>
<filter id="filter0_f" x="0" y="128" width="221" height="110.833" filterUnits="userSpaceOnUse" color-interpolation-filters="sRGB">
<feFlood flood-opacity="0" result="BackgroundImageFix"/>
<feBlend mode="normal" in="SourceGraphic" in2="BackgroundImageFix" result="shape"/>
<feGaussianBlur stdDeviation="6" result="effect1_foregroundBlur"/>
</filter>
<linearGradient id="paint0_linear" x1="157" y1="65" x2="361.274" y2="313.186" gradientUnits="userSpaceOnUse">
<stop stop-color="#57B6FF" stop-opacity="0.2"/>
<stop offset="1" stop-color="#57B6FF" stop-opacity="0"/>
</linearGradient>
<radialGradient id="paint1_radial" cx="0" cy="0" r="1" gradientUnits="userSpaceOnUse" gradientTransform="translate(277.015 96.9886) rotate(35.7406) scale(60.3064 81.8669)">
<stop stop-color="#1F9CFD"/>
<stop offset="1" stop-color="#0F81DA"/>
</radialGradient>
<radialGradient id="paint2_radial" cx="0" cy="0" r="1" gradientUnits="userSpaceOnUse" gradientTransform="translate(281.216 100.159) rotate(39.168) scale(46.0369 61.6559)">
<stop stop-color="#CFDAE3"/>
<stop offset="1" stop-color="#96B3CA"/>
</radialGradient>
<radialGradient id="paint3_radial" cx="0" cy="0" r="1" gradientUnits="userSpaceOnUse" gradientTransform="translate(290.473 98.0038) rotate(34.2977) scale(36.7322 49.4326)">
<stop stop-color="#093C64"/>
<stop offset="1" stop-color="#5A6D7C"/>
</radialGradient>
<radialGradient id="paint4_radial" cx="0" cy="0" r="1" gradientUnits="userSpaceOnUse" gradientTransform="translate(280.709 89.8459) rotate(34.9843) scale(71.0849 96.0911)">
<stop stop-color="#1079CA"/>
<stop offset="1" stop-color="#1075C4"/>
</radialGradient>
<radialGradient id="paint5_radial" cx="0" cy="0" r="1" gradientUnits="userSpaceOnUse" gradientTransform="translate(302.255 98.4876) rotate(46.4445) scale(150.262 200.846)">
<stop stop-color="#88A2B7"/>
<stop offset="1" stop-color="#7A9DB9"/>
</radialGradient>
<radialGradient id="paint6_radial" cx="0" cy="0" r="1" gradientUnits="userSpaceOnUse" gradientTransform="translate(341.018 105.868) rotate(30.3295) scale(31.8731 41.3053)">
<stop stop-color="#1F9CFD"/>
<stop offset="1" stop-color="#0F81DA"/>
</radialGradient>
<radialGradient id="paint7_radial" cx="0" cy="0" r="1" gradientUnits="userSpaceOnUse" gradientTransform="translate(347.713 125.448) rotate(49.097) scale(78.4179 102.121)">
<stop stop-color="#1F9CFD"/>
<stop offset="1" stop-color="#0F81DA"/>
</radialGradient>
<radialGradient id="paint8_radial" cx="0" cy="0" r="1" gradientUnits="userSpaceOnUse" gradientTransform="translate(333.876 129.788) rotate(43.4526) scale(25.4269 34.6228)">
<stop stop-color="#88A2B7"/>
<stop offset="1" stop-color="#7A9DB9"/>
</radialGradient>
<linearGradient id="paint9_linear" x1="245" y1="140" x2="296.5" y2="109.5" gradientUnits="userSpaceOnUse">
<stop offset="0.0683854" stop-color="#FF4539" stop-opacity="0.4"/>
<stop offset="0.357098" stop-color="#FF4539" stop-opacity="0.1"/>
<stop offset="1" stop-color="#FF4539" stop-opacity="0"/>
</linearGradient>
<linearGradient id="paint10_linear" x1="201.407" y1="223.066" x2="41.0679" y2="114.14" gradientUnits="userSpaceOnUse">
<stop offset="0.264041" stop-color="#268C8C"/>
<stop offset="0.565075" stop-color="#268C8C" stop-opacity="0.3"/>
<stop offset="0.863842" stop-color="#268C8C" stop-opacity="0.1"/>
</linearGradient>
<linearGradient id="paint11_linear" x1="135.785" y1="148.547" x2="239.545" y2="148.547" gradientUnits="userSpaceOnUse">
<stop stop-color="#ADEAFF"/>
<stop offset="1" stop-color="#ACFFEE"/>
</linearGradient>
<linearGradient id="paint12_linear" x1="136.5" y1="204.643" x2="238.607" y2="204.643" gradientUnits="userSpaceOnUse">
<stop stop-color="#91E2FF"/>
<stop offset="1" stop-color="#EBFFFB"/>
</linearGradient>
<linearGradient id="paint13_linear" x1="138.771" y1="204.437" x2="236.473" y2="204.437" gradientUnits="userSpaceOnUse">
<stop stop-color="#B2EAFD"/>
<stop offset="1" stop-color="#ECEFEE"/>
</linearGradient>
<linearGradient id="paint14_linear" x1="135.851" y1="87.2493" x2="241.746" y2="87.2493" gradientUnits="userSpaceOnUse">
<stop stop-color="#78DDFF"/>
<stop offset="1" stop-color="#39F2F5"/>
</linearGradient>
<linearGradient id="paint15_linear" x1="189.587" y1="127.926" x2="221.868" y2="127.926" gradientUnits="userSpaceOnUse">
<stop stop-color="#78DDFF"/>
<stop offset="1" stop-color="#39F2F5"/>
</linearGradient>
<clipPath id="clip0">
<rect width="128" height="156" fill="white" transform="translate(268 70.3364) rotate(-5.08105)"/>
</clipPath>
</defs>
</svg>
