<svg width="448" height="303" fill="none" xmlns="http://www.w3.org/2000/svg"><path d="M393.661 119.48c-72.086-41.973-188.545-41.973-260.195 0-71.65 41.972-71.214 110.068.873 152.04 72.086 41.973 188.545 41.973 260.195 0 71.65-41.972 71.214-110.068-.873-152.04z" fill="url(#paint0_linear)"/><g clip-path="url(#clip0)"><path d="M276.193 86.614c12.293-.104 24.239 2.59 34.906 8.761 4.67 2.683 8.738 5.288 11.476 10.054 2.97 5.141 2.755 10.894 3.785 16.537.3 1.885.6 3.77.238 5.648-.362 1.878-1.392 3.683-3.106 4.495-1.331.645-2.923.589-4.396.391-5.277-.586-10.402-2.437-15.384-4.169-5.393-1.894-10.9-3.579-15.921-6.495-4.813-2.802-8.549-6.886-11.353-11.646-2.341-4.01-3.983-8.347-5.434-12.766-.474-1.606-.947-3.211-1.027-4.852-.092-4.013 2.381-5.947 6.216-5.958z" fill="url(#paint1_radial)"/><path d="M276.193 86.614c12.293-.104 24.239 2.59 34.906 8.761 4.67 2.683 8.738 5.288 11.476 10.054 2.97 5.141 2.755 10.894 3.785 16.537.3 1.885.6 3.77.238 5.648-.362 1.878-1.392 3.683-3.106 4.495-1.331.645-2.923.589-4.396.391-5.277-.586-10.402-2.437-15.384-4.169-5.393-1.894-10.9-3.579-15.921-6.495-4.813-2.802-8.549-6.886-11.353-11.646-2.341-4.01-3.983-8.347-5.434-12.766-.474-1.606-.947-3.211-1.027-4.852-.092-4.013 2.381-5.947 6.216-5.958z" fill="#DFE7E7"/><path d="M321.091 112.548c-.596-5.221-4.019-8.014-4.019-8.014-3.873-4.138-10.064-6.818-15.266-8.794a56.454 56.454 0 00-17.377-3.53c-1.73-.11-5.779-.277-7.845 1.027-.562.38-.986.813-1.131 1.419-.403 1.42.351 3.198.866 4.537a81.867 81.867 0 002.046 5.157c1.418 3.302 3.027 6.52 5.263 9.353 2.902 3.631 7.288 5.351 11.519 6.82 5.114 1.721 10.221 3.376 15.274 5.168l3.529 1.004c3.528 1.005 5.701.153 5.701.153 3.182-1.404 2.432-4.633 2.432-4.633l-.992-9.667z" fill="url(#paint2_radial)"/><path d="M314.278 116.252c2.449.77 4.97 1.601 7.42 2.372l-.612-6.142c-.597-5.22-4.02-8.014-4.02-8.014-3.873-4.137-10.064-6.817-15.266-8.793a56.732 56.732 0 00-15.982-3.457c.819 1.773 1.644 3.611 2.463 5.384 1.318 2.915 2.396 6.115 4.155 8.793 2.14 3.237 5.917 4.813 9.457 5.948 4.095 1.416 8.302 2.624 12.385 3.909z" fill="url(#paint3_radial)"/><path d="M336.975 104.478c-.077-.125-.095-.321-.172-.446a53.824 53.824 0 00-10.336-18.065c-4.2-4.834-10.2-7.596-16.394-8.825-7.004-1.42-14.286-1.498-21.114.559-3.479 1.034-6.43 2.813-9.577 4.609a166.705 166.705 0 00-6.817 5.154c1.01-.551 2.179-.787 3.629-.85 12.292-.104 24.238 2.59 34.905 8.761 4.67 2.683 8.738 5.288 11.476 10.054 2.971 5.141 2.755 10.894 3.786 16.537.299 1.885.599 3.77.237 5.648-.308 1.741-1.218 3.404-2.723 4.329l15.028-7.269c1.027-3.321.636-6.977.268-10.372-.362-3.33-1.189-6.684-2.196-9.824z" fill="url(#paint4_radial)"/><path d="M336.975 104.478c-.077-.125-.095-.321-.172-.446a53.824 53.824 0 00-10.336-18.065c-4.2-4.834-10.2-7.596-16.394-8.825-7.004-1.42-14.286-1.498-21.114.559-3.479 1.034-6.43 2.813-9.577 4.609a166.705 166.705 0 00-6.817 5.154c1.01-.551 2.179-.787 3.629-.85 12.292-.104 24.238 2.59 34.905 8.761 4.67 2.683 8.738 5.288 11.476 10.054 2.971 5.141 2.755 10.894 3.786 16.537.299 1.885.599 3.77.237 5.648-.308 1.741-1.218 3.404-2.723 4.329l15.028-7.269c1.027-3.321.636-6.977.268-10.372-.362-3.33-1.189-6.684-2.196-9.824z" fill="#BDCACA"/><path d="M403.076 166.56c-1.65-5.918-3.689-11.735-6.049-17.458-4.781-11.373-10.834-22.173-17.819-32.296-4.405-6.397-9.563-14.574-6.814-22.333 2.593-7.283-.986-14.809-6.76-19.503-13.901-11.288-34.118-11.797-50.861-8.2-6.427 1.363-12.509 3.618-18.403 6.515-2.597 1.285-5.194 2.571-7.786 3.922-.316.16-.997.682-1.75 1.144l2.113-.78c6.828-2.058 14.181-1.92 21.114-.56 6.194 1.23 12.128 3.997 16.394 8.825a52.086 52.086 0 0110.336 18.065c.077.125.095.321.172.446.183.577.367 1.154.545 1.666 2.798-.513 5.681-1.56 7.663-2.33 5.754-2.225 11.395-4.243 17.629-4.797 1.181-.105 2.434-.15 3.422.553 1.62 1.108 1.501 3.491 1.21 5.429-.895 5.55 3.619 10.95 6.215 15.597 3.618 6.467 7.432 12.917 11.431 19.219 6.394 10.176 11.841 20.106 13.901 32.118.924 5.191 1.961 10.899-.459 15.662-2.756 5.453-6.155 10.369-9.465 15.541-1.915 3.005-.207 4.369-.207 4.369l1.512 1.382c-.072-.06 7.544-10.361 8.071-11.133 3.237-4.506 6.74-8.245 7.684-13.998.872-5.812-1.543-11.398-3.039-17.065z" fill="url(#paint5_radial)"/><path d="M403.076 166.56c-1.65-5.918-3.689-11.735-6.049-17.458-4.781-11.373-10.834-22.173-17.819-32.296-4.405-6.397-9.563-14.574-6.814-22.333 2.593-7.283-.986-14.809-6.76-19.503-13.901-11.288-34.118-11.797-50.861-8.2-6.427 1.363-12.509 3.618-18.403 6.515-2.597 1.285-5.194 2.571-7.786 3.922-.316.16-.997.682-1.75 1.144l2.113-.78c6.828-2.058 14.181-1.92 21.114-.56 6.194 1.23 12.128 3.997 16.394 8.825a52.086 52.086 0 0110.336 18.065c.077.125.095.321.172.446.183.577.367 1.154.545 1.666 2.798-.513 5.681-1.56 7.663-2.33 5.754-2.225 11.395-4.243 17.629-4.797 1.181-.105 2.434-.15 3.422.553 1.62 1.108 1.501 3.491 1.21 5.429-.895 5.55 3.619 10.95 6.215 15.597 3.618 6.467 7.432 12.917 11.431 19.219 6.394 10.176 11.841 20.106 13.901 32.118.924 5.191 1.961 10.899-.459 15.662-2.756 5.453-6.155 10.369-9.465 15.541-1.915 3.005-.207 4.369-.207 4.369l1.512 1.382c-.072-.06 7.544-10.361 8.071-11.133 3.237-4.506 6.74-8.245 7.684-13.998.872-5.812-1.543-11.398-3.039-17.065z" fill="#D9E2E2"/><path d="M336.436 102.878c.166.381.266.767.367 1.154-.101-.387-.201-.773-.367-1.154z" fill="#4A484B"/><path d="M366.234 99.57c-.983-.638-2.241-.658-3.422-.553-6.169.548-11.875 2.572-17.629 4.797-2.048.775-4.865 1.817-7.664 2.329.764 2.635 1.402 5.347 1.64 8.028.303 3.401.694 7.057-.268 10.373.112.517 10.303-3.883 11.133-4.22 6.238-2.73 14.175-7.193 17.315-13.536-.053-.589.02-1.254.099-1.855.297-1.872.415-4.255-1.204-5.364z" fill="url(#paint6_radial)"/><path d="M366.234 99.57c-.983-.638-2.241-.658-3.422-.553-6.169.548-11.875 2.572-17.629 4.797-2.048.775-4.865 1.817-7.664 2.329.764 2.635 1.402 5.347 1.64 8.028.303 3.401.694 7.057-.268 10.373.112.517 10.303-3.883 11.133-4.22 6.238-2.73 14.175-7.193 17.315-13.536-.053-.589.02-1.254.099-1.855.297-1.872.415-4.255-1.204-5.364z" fill="#C3D0D0"/><path d="M398.991 171.933c-2.06-12.012-7.507-21.942-13.901-32.118a516.043 516.043 0 01-11.431-19.219c-2.352-4.142-6.152-8.945-6.32-13.808l.006.065c-3.14 6.344-11.077 10.807-17.315 13.536-.574.249-6.114 2.653-9.128 3.712.191-.083.882.251 1.091.365a16.71 16.71 0 012.698 1.342c2.805 1.794 4.898 4.508 6.168 7.625.859 2.231 1.557 4.871 1.57 7.243-.023 1.979-.624 4.142-2.16 5.465-1.536 1.323-3.964 1.539-5.938 1.649l24.294 27.765c.518.613.879 1.702 1.271 2.392.535.809 1.135 1.613 1.605 2.428.778 1.315 1.467 2.374 2.742 3.316 2.614 1.877 6.053 2.625 9.274 2.405 3.55-.25 6.952-1.409 10.265-2.824 2.101-.912 4.352-1.64 6.293-2.867-.125-2.889-.643-5.743-1.084-8.472z" fill="#4F4D50"/><path d="M398.991 171.933c-2.06-12.012-7.507-21.942-13.901-32.118a516.043 516.043 0 01-11.431-19.219c-2.352-4.142-6.152-8.945-6.32-13.808l.006.065c-3.14 6.344-11.077 10.807-17.315 13.536-.574.249-6.114 2.653-9.128 3.712.191-.083.882.251 1.091.365a16.71 16.71 0 012.698 1.342c2.805 1.794 4.898 4.508 6.168 7.625.859 2.231 1.557 4.871 1.57 7.243-.023 1.979-.624 4.142-2.16 5.465-1.536 1.323-3.964 1.539-5.938 1.649l24.294 27.765c.518.613.879 1.702 1.271 2.392.535.809 1.135 1.613 1.605 2.428.778 1.315 1.467 2.374 2.742 3.316 2.614 1.877 6.053 2.625 9.274 2.405 3.55-.25 6.952-1.409 10.265-2.824 2.101-.912 4.352-1.64 6.293-2.867-.125-2.889-.643-5.743-1.084-8.472z" fill="url(#paint7_radial)"/><path d="M398.991 171.933c-2.06-12.012-7.507-21.942-13.901-32.118a516.043 516.043 0 01-11.431-19.219c-2.352-4.142-6.152-8.945-6.32-13.808l.006.065c-3.14 6.344-11.077 10.807-17.315 13.536-.574.249-6.114 2.653-9.128 3.712.191-.083.882.251 1.091.365a16.71 16.71 0 012.698 1.342c2.805 1.794 4.898 4.508 6.168 7.625.859 2.231 1.557 4.871 1.57 7.243-.023 1.979-.624 4.142-2.16 5.465-1.536 1.323-3.964 1.539-5.938 1.649l24.294 27.765c.518.613.879 1.702 1.271 2.392.535.809 1.135 1.613 1.605 2.428.778 1.315 1.467 2.374 2.742 3.316 2.614 1.877 6.053 2.625 9.274 2.405 3.55-.25 6.952-1.409 10.265-2.824 2.101-.912 4.352-1.64 6.293-2.867-.125-2.889-.643-5.743-1.084-8.472z" fill="#CAD7D7"/><path d="M367.384 105.07c-.054.137-.036.333-.09.469.054-.136.102-.338.09-.469zm-.05.927c-.011-.131-.017-.196.037-.333a.712.712 0 00-.037.333z" fill="#4F4D50"/><path d="M398.532 187.595c1.294-2.554 1.569-5.412 1.444-8.302.029.327.058.654.027 1.053-1.941 1.227-4.251 2.025-6.292 2.866-3.254 1.344-6.65 2.569-10.265 2.824-3.221.221-6.595-.534-9.275-2.405-1.274-.941-2.023-1.929-2.742-3.315-.469-.816-1.135-1.613-1.604-2.429a4.49 4.49 0 01-.404-.821c.373 1.22.754 4.02-.84 9.897-.824 3.369-1.643 6.803-2.468 10.172-.777 3.167-1.941 6.435-2.318 9.632-.231 1.867.015 3.888 1.019 5.513.933 1.564 2.487 2.679 4.143 3.454 3.027 1.313 6.777 1.837 10.029 1.218 5.209-.925 8.353-4.236 11.314-8.125l-1.446-1.388s-1.708-1.364.207-4.368c3.256-5.036 6.649-10.017 9.471-15.476z" fill="#C4D1D1"/><path d="M350.728 133.445c-1.204-3.123-3.357-5.766-6.168-7.626-.84-.518-1.745-1.031-2.698-1.342-.203-.048-.834-.453-1.091-.364l.066-.006c-1.153.432-1.928.633-2.006.508 0 0-3.743 1.783-7.547 3.637 0 0 2.565 2.804 2.542 9.991 0 0-.57 4.006 1.858 6.756 0 0 2.867 3.239 6.518 2.65l2.015.348c-.077-.124-.143-.119-.143-.119 1.981-.044 4.337-.319 5.939-1.648 1.535-1.323 2.131-3.551 2.159-5.465.113-2.449-.585-5.09-1.444-7.32z" fill="url(#paint8_radial)"/></g><path d="M241.723 152.727c-.427.243-.928.32-1.408.217l-55.169-11.807c-2.024-.434-2.137-3.281-.153-3.873l105.6-31.506a1.98 1.98 0 01.835-.066l20.803 2.762c1.899.252 2.391 2.773.726 3.721l-71.234 40.552z" fill="url(#paint9_linear)"/><g filter="url(#filter0_f)"><path d="M209 172l-88.556-32c-16.252.446-30.182.892-44.113 2.675-29.187 4.012-84.576 29.434-56.715 40.134 12.271 4.68 28.192 7.355 44.112 8.024h.663c3.98.223 7.629 4.223 11.609 4l122.718 32L209 172z" fill="url(#paint10_linear)" fill-opacity=".2"/></g><path d="M241.743 80.652l-.891 119.5H136.169l-.668-119.5h106.242z" fill="url(#paint11_linear)"/><path d="M151.092 221.397c10.468 5.975 24.5 9.073 38.532 8.851 11.36-.221 22.496-2.434 31.851-6.638 1.559-.664 2.895-1.328 4.232-2.213 20.268-11.729 20.045-30.539-.446-41.826-1.114-.663-2.45-1.327-3.786-1.991-9.355-4.205-20.714-6.418-32.073-6.639-13.587 0-27.173 2.655-37.642 8.63-20.268 11.287-20.936 30.097-.668 41.826z" fill="url(#paint12_linear)"/><path d="M153.542 180.457c19.6-10.844 50.782-10.844 70.16-.222 19.6 10.844 19.823 28.769.445 40.055-19.6 11.286-51.896 11.508-71.273.221-19.6-11.286-18.932-29.211.668-40.054z" fill="url(#paint13_linear)"/><path d="M220.807 179.35c-.446-2.655-1.56-5.311-3.564-7.745-1.782-2.434-4.232-4.426-6.682-5.311l-18.709-7.524c-4.9-1.992-8.241.664-7.573 5.753.445 2.656 1.559 5.312 3.564 7.746 1.781 2.434 4.231 4.426 6.681 5.311l18.71 7.524c4.9 1.992 8.241-.664 7.573-5.754z" fill="#5700EB"/><path d="M220.807 179.35c-.446-2.656-1.559-5.311-3.564-7.745-1.782-2.435-4.232-4.426-6.682-5.311l-9.354-3.763 2.45 18.811 9.354 3.762c5.123 1.991 8.464-.664 7.796-5.754z" fill="#5700EB"/><path d="M221.698 188.423c-2.896 1.328-6.237 1.992-23.164-5.753l8.241-21.687c17.373 6.86 18.041 8.409 19.823 11.286 3.786 5.311.445 13.942-4.9 16.154z" fill="#F05907"/><path d="M203.879 181.121c-4.232 3.098-8.018 1.549-8.909-3.541-.668-5.09 2.227-11.95 6.237-15.048 4.231-3.098 8.018-1.549 8.686 3.54.891 5.09-1.782 11.95-6.014 15.049z" fill="#EB6A00"/><path d="M198.534 182.67c-17.596-6.861-18.041-9.295-18.932-11.729-2.673-7.303 2.227-12.614 5.122-13.942 5.346-2.213 9.578-2.213 22.051 3.984 2.45 1.327-5.568 22.793-8.241 21.687z" fill="#EB6A00"/><path d="M190.515 188.866c1.114 2.213 3.341 4.426 5.791 5.975 2.45 1.549 5.346 2.655 8.019 2.877l20.045.885c5.346.221 7.573-3.319 5.123-7.967-1.114-2.213-3.341-4.426-6.014-5.975-2.45-1.549-5.345-2.655-8.018-2.877l-20.046-.885c-4.9-.221-7.35 3.32-4.9 7.967z" fill="#5700EB"/><path d="M190.515 188.866c1.114 2.213 3.341 4.426 5.791 5.975 2.45 1.549 5.346 2.655 8.018 2.877l10.023.442-8.686-16.818-10.023-.443c-5.123-.221-7.573 3.32-5.123 7.967z" fill="#5700EB"/><path d="M186.506 180.678c2.227-2.213 5.123-3.983 23.832-2.434l-.445 23.015c-18.71-.664-19.823-1.992-22.496-3.984-5.123-3.541-5.123-12.614-.891-16.597z" fill="#F05907"/><path d="M205.884 181.563c2.895-4.426 7.127-4.204 9.577.443 2.45 4.647 2.005 11.95-.891 16.376-2.895 4.426-7.127 4.205-9.577-.443-2.45-4.647-2.005-11.95.891-16.376z" fill="#EB6A00"/><path d="M210.338 178.244c18.932.664 20.269 2.655 21.828 4.647 5.123 5.975 2.227 12.614-.223 14.827-4.232 3.983-8.241 5.311-22.05 3.541-2.673-.222-2.45-23.015.445-23.015z" fill="#EB6A00"/><path d="M151.537 78.882c20.714-9.959 53.901-9.959 74.392-.222 20.491 9.959 20.269 26.113-.222 36.072-20.714 9.958-53.901 9.958-74.392.221-20.491-9.958-20.491-26.113.222-36.071z" fill="url(#paint14_linear)" fill-opacity=".4"/><path d="M189.625 82.422v145.835c11.359-.221 22.495-2.434 31.85-6.639v-46.03l.223-93.166h-32.073z" fill="url(#paint15_linear)" fill-opacity=".4"/><path d="M150.869 102.118c20.714 11.95 54.346 11.728 75.06-.222 20.714-11.95 20.937-31.202.223-43.152-20.714-11.95-54.123-11.508-75.06.442-20.714 11.95-20.937 31.203-.223 42.932z" fill="#FF7C00"/><path d="M130.601 69.145l13.587-6.86c1.113-.664 2.227-1.55 3.563-2.214 22.719-13.056 59.469-13.056 82.188-.22 1.336.663 2.45 1.548 3.786 2.433l13.141 6.86V83.53c0 8.41-5.791 17.04-17.15 23.457-22.941 13.057-59.692 13.057-82.41 0-11.359-6.417-16.928-15.048-16.928-23.678V69.145h.223z" fill="#CAD7D7"/><path d="M130.601 60.071l13.587-6.86c1.113-.664 2.227-1.549 3.563-2.213 22.719-13.056 59.469-13.056 82.188-.221 1.336.664 2.45 1.549 3.786 2.434l13.141 6.86v14.385c0 8.409-5.791 17.04-17.15 23.457-22.941 13.278-59.692 13.278-82.41.221-11.359-6.417-16.928-15.048-16.928-23.678V60.07h.223z" fill="#9DB5B5"/><path d="M188.694 102.34c32.106-.173 58.052-15.174 57.952-33.507-.1-18.333-26.208-33.055-58.314-32.882-32.105.173-58.051 15.175-57.951 33.508.1 18.333 26.208 33.054 58.313 32.881z" fill="#F1F4F4"/><path d="M129.265 34.843V70.03c0 3.54.891 7.302 2.895 10.622.668 1.328 1.559 2.434 2.45 3.762 1.114 1.328 2.227 2.656 3.564 3.762.891.664 1.559 1.55 2.45 2.213 1.114.885 2.227 1.77 3.564 2.434.668.443 1.559.885 2.227 1.328 0 0 .223 0 .223.221 1.113.664 2.227 1.328 3.563 1.77.891.443 1.559.886 2.45 1.107 1.114.443 2.45.885 3.564 1.55.891.22 1.559.663 2.45.884 1.114.443 2.45.664 3.564 1.107.891.221 1.559.443 2.45.664l3.341.664c.891.221 1.781.221 2.45.442l3.341.664c.891 0 1.559.221 2.45.221 1.113.222 2.227.222 3.341.222.891 0 1.781.221 2.45.221 1.113 0 2.227.221 3.341.221h5.791c.89 0 1.559 0 2.45-.221 1.113 0 2.227-.221 3.341-.221.89 0 1.559-.222 2.45-.222 1.113-.221 2.227-.221 3.341-.442.89-.221 1.781-.221 2.45-.443l3.341-.664c.89-.221 1.559-.221 2.45-.442 1.113-.221 2.227-.443 3.34-.885l2.451-.664c1.113-.443 2.227-.664 3.34-1.107.891-.221 1.56-.664 2.45-.885 1.114-.442 2.228-.885 3.341-1.549.891-.443 1.782-.885 2.45-1.328.669-.221 1.114-.664 1.56-.885.668-.221 1.113-.664 1.559-.885.891-.443 1.782-1.107 2.45-1.55l3.341-2.655c.891-.885 1.782-1.549 2.45-2.434a25.553 25.553 0 003.118-3.762l.223-.221c1.113-1.55 1.781-3.099 2.45-4.426 1.113-2.656 1.782-5.312 1.782-7.967V34.843l-9.355 9.959-3.341 3.32c-.891-.443-1.559-1.107-2.45-1.55-.446-.221-.891-.664-1.336-.885-.669-.443-1.337-.664-2.005-1.106-.891-.443-1.559-.886-2.45-1.328-1.114-.443-2.227-.885-3.341-1.55-.891-.22-1.559-.663-2.45-.885-1.114-.442-2.227-.885-3.341-1.106-.891-.221-1.559-.443-2.45-.664-1.114-.221-2.227-.664-3.341-.885-.891-.221-1.559-.443-2.45-.443-1.114-.22-2.227-.442-3.341-.663-.891-.222-1.559-.222-2.45-.443-1.114-.221-2.227-.221-3.341-.443-.891 0-1.559-.221-2.45-.221-1.114 0-2.227-.221-3.341-.221h-8.241c-1.114 0-2.227 0-3.341.221-.891 0-1.782 0-2.45.221-1.114 0-2.227.222-3.341.222-.891.22-1.782.22-2.45.442-1.114.221-2.227.221-3.341.443-.891.221-1.782.221-2.45.442l-3.341.664c-.891.222-1.782.443-2.45.664-1.114.221-2.45.664-3.564 1.107-.89.22-1.559.663-2.45.885-1.113.442-2.45.885-3.563 1.549-.891.221-1.559.664-2.45 1.106-1.114.664-2.45 1.107-3.564 1.77-.891.443-1.782 1.107-2.45 1.55-.445.221-.668.442-1.114.664l-2.45-2.434-2.45-2.435-3.563-3.32-2.45-2.434-3.341-2.212z" fill="#DCE4E4"/><path d="M243.748 39.048v43.374c1.113-1.549 1.781-3.098 2.45-4.425V36.613l-2.45 2.434zm-5.791 5.754v43.817c.89-.885 1.781-1.55 2.45-2.435V42.368l-2.45 2.434zm-5.791 1.77v46.251c.89-.442 1.781-1.106 2.45-1.549V48.121c-.891-.442-1.782-.885-2.45-1.549zm-5.791-3.098v52.669c.89-.443 1.781-.886 2.45-1.328V44.802c-.891-.443-1.782-.885-2.45-1.328zm-6.014-2.434v57.537c.891-.221 1.559-.664 2.45-.885V41.925c-.668-.221-1.559-.443-2.45-.885zm-5.791-1.77v61.298l2.45-.663v-59.75c-.668-.443-1.559-.664-2.45-.886zm-5.791-1.328v63.954c.891-.221 1.559-.221 2.45-.442v-63.07c-.668-.221-1.559-.442-2.45-.442zm-5.791-1.107v66.168c.891-.221 1.782-.221 2.45-.443V37.278c-.668-.221-1.559-.443-2.45-.443zm-5.791-.664v67.496c.891 0 1.559-.222 2.45-.222V36.392c-.668 0-1.559 0-2.45-.22zm-5.791-.221v68.159c.891 0 1.559 0 2.45-.221V35.95h-2.45zm-5.791 0v68.159h2.45V35.95h-2.45zm-5.791.442v67.496c.891 0 1.782.221 2.45.221V36.171c-.891 0-1.559 0-2.45.221zm-5.791.665v66.167c.891 0 1.559.222 2.45.222V36.614c-.891.221-1.559.221-2.45.443zm-5.791.885v63.954c.891.222 1.782.222 2.45.443v-64.84c-.891.221-1.782.221-2.45.443zm-5.791 1.548v61.079c.891.221 1.559.442 2.45.664V38.827c-.891.221-1.782.443-2.45.664zm-6.236 1.992v57.316c.891.221 1.559.664 2.45.885V40.597c-.668.221-1.559.443-2.45.885zm-6.014 2.656v52.005c.891.442 1.559.885 2.45 1.106V43.032c-.668.22-1.559.663-2.45 1.106zm-6.014 3.319v45.145c.668.442 1.559.885 2.227 1.328 0 0 .223 0 .223.22V45.909c-.891.664-1.782 1.107-2.45 1.55zm-6.014-3.983v44.702c.891.664 1.559 1.55 2.45 2.213v-44.48l-2.45-2.435zm-6.236-5.975v43.153c.668 1.328 1.559 2.434 2.45 3.762v-44.26l-2.45-2.655z" fill="#CFDADA"/><path d="M146.415 58.965c23.164 13.278 60.805 13.278 83.969-.221 23.164-13.278 23.387-34.965.223-48.243-23.164-13.278-60.806-13.278-83.969.221-23.164 13.5-23.387 34.965-.223 48.243z" fill="#EBEFEF"/><path d="M151.983 13.82c20.268-11.728 53.233-11.728 73.278-.22 20.269 11.507 20.046 30.317-.223 42.046-20.268 11.728-53.232 11.728-73.278.22-20.268-11.507-20.045-30.317.223-42.046z" fill="#E9EDED"/><path d="M151.983 13.82c20.269-11.728 53.233-11.728 73.278-.22.669.442 1.114.663 1.559 1.106-20.268-8.852-50.337-8.188-69.269 1.991-20.268 10.844-20.491 28.326-.222 39.17 12.695 6.639 30.068 9.294 46.55 7.524-17.818 3.098-37.864.664-51.896-7.303-20.491-11.729-20.268-30.539 0-42.268z" fill="#9DB5B5"/><path d="M225.261 19.353c-20.268-11.508-53.01-11.508-73.278.221-8.909 5.09-14.032 11.729-15.146 18.368-1.336-8.63 3.564-17.483 15.146-23.9 20.268-11.729 53.232-11.729 73.278-.222 11.359 6.418 16.259 15.27 14.923 23.68-1.114-6.64-6.014-13.279-14.923-18.147z" fill="#CAD7D7"/><path d="M167.574 274.508v3.098c-.222-1.107-.222-2.213 0-3.098z" fill="#FF6B0D"/><path d="M241.521 171.605l-.669 18.146c0 1.549-.222 3.098-.445 4.426-2.005 4.648-6.905 9.073-14.255 12.614-20.268 9.737-52.564 10.18-73.278.885v-18.589c20.714 9.295 53.01 8.852 73.278-.885 7.35-3.541 12.25-7.966 14.255-12.614.668-1.327.891-2.655 1.114-3.983z" fill="#CED3E1"/><path d="M241.521 124.911l-.669 46.251c0 1.549-.222 3.099-.445 4.426-1.559 5.975-6.459 11.95-14.478 16.598-1.336.885-2.895 1.549-4.231 2.213-9.355 4.425-20.492 6.638-31.851 6.638-13.364.222-26.505-2.434-36.973-7.745v-50.677c20.714 9.295 53.01 8.852 73.278-.885 8.241-3.983 13.141-8.852 14.923-14.163.223-.885.223-1.77.446-2.656z" fill="#EBEFEF"/><path d="M240.852 127.567v2.655c0 .886 0 1.55-.222 2.435-2.005 5.09-6.682 9.737-14.7 13.499-20.269 9.737-52.565 10.179-73.279.885v-4.647c20.714 9.294 53.01 8.852 73.279-.885 8.241-3.762 13.141-8.631 14.922-13.942z" fill="#CED3E1"/><path d="M157.329 174.039v17.925s8.241 3.541 23.164 4.426c14.922.885 16.704-.443 16.704-.443v-17.039c.223 0-22.941 1.991-39.868-4.869zm23.164-.664c-14.923-.885-23.164-4.426-23.164-4.426v2.656s8.241 3.541 23.164 4.426c14.922.885 16.704 0 16.704 0v-2.656c.223 0-1.782.885-16.704 0zm58.8-34.965s-5.346 11.508-25.391 15.712c-20.046 4.205-30.514 2.435-30.514 2.435v4.426s15.368 1.327 33.409-3.098c17.819-4.426 22.496-14.827 22.496-14.827v-4.648z" fill="#D1E3D6"/><path d="M239.293 184.219s-5.346 11.728-25.391 17.261c-20.046 5.311-30.514 4.205-30.514 4.205v4.425s15.368.443 33.409-5.089c17.819-5.311 22.496-15.934 22.496-15.934v-4.868z" fill="#EBEFEF"/><defs><radialGradient id="paint1_radial" cx="0" cy="0" r="1" gradientUnits="userSpaceOnUse" gradientTransform="matrix(48.94889 35.22596 -47.8198 66.4489 277.015 96.989)"><stop stop-color="#1F9CFD"/><stop offset="1" stop-color="#0F81DA"/></radialGradient><radialGradient id="paint2_radial" cx="0" cy="0" r="1" gradientUnits="userSpaceOnUse" gradientTransform="rotate(39.168 -.156 445.302) scale(46.0369 61.6559)"><stop stop-color="#CFDAE3"/><stop offset="1" stop-color="#96B3CA"/></radialGradient><radialGradient id="paint3_radial" cx="0" cy="0" r="1" gradientUnits="userSpaceOnUse" gradientTransform="matrix(30.34513 20.6985 -27.85513 40.83716 290.475 98.005)"><stop stop-color="#093C64"/><stop offset="1" stop-color="#5A6D7C"/></radialGradient><radialGradient id="paint4_radial" cx="0" cy="0" r="1" gradientUnits="userSpaceOnUse" gradientTransform="matrix(58.24072 40.75636 -55.0936 78.7286 280.707 89.844)"><stop stop-color="#1079CA"/><stop offset="1" stop-color="#1075C4"/></radialGradient><radialGradient id="paint5_radial" cx="0" cy="0" r="1" gradientUnits="userSpaceOnUse" gradientTransform="matrix(103.53812 108.89686 -145.55576 138.39305 302.258 98.49)"><stop stop-color="#88A2B7"/><stop offset="1" stop-color="#7A9DB9"/></radialGradient><radialGradient id="paint6_radial" cx="0" cy="0" r="1" gradientUnits="userSpaceOnUse" gradientTransform="rotate(30.329 -24.795 682.04) scale(31.8731 41.3053)"><stop stop-color="#1F9CFD"/><stop offset="1" stop-color="#0F81DA"/></radialGradient><radialGradient id="paint7_radial" cx="0" cy="0" r="1" gradientUnits="userSpaceOnUse" gradientTransform="matrix(51.3465 59.26975 -77.18501 66.86683 347.713 125.448)"><stop stop-color="#1F9CFD"/><stop offset="1" stop-color="#0F81DA"/></radialGradient><radialGradient id="paint8_radial" cx="0" cy="0" r="1" gradientUnits="userSpaceOnUse" gradientTransform="rotate(43.453 4.084 483.83) scale(25.4269 34.6228)"><stop stop-color="#88A2B7"/><stop offset="1" stop-color="#7A9DB9"/></radialGradient><linearGradient id="paint0_linear" x1="157" y1="65" x2="361.274" y2="313.186" gradientUnits="userSpaceOnUse"><stop stop-color="#57B6FF" stop-opacity=".2"/><stop offset="1" stop-color="#57B6FF" stop-opacity="0"/></linearGradient><linearGradient id="paint9_linear" x1="245" y1="140" x2="296.5" y2="109.5" gradientUnits="userSpaceOnUse"><stop offset=".068" stop-color="#FF4539" stop-opacity=".4"/><stop offset=".357" stop-color="#FF4539" stop-opacity=".1"/><stop offset="1" stop-color="#FF4539" stop-opacity="0"/></linearGradient><linearGradient id="paint10_linear" x1="201.407" y1="223.066" x2="41.068" y2="114.14" gradientUnits="userSpaceOnUse"><stop offset=".264" stop-color="#268C8C"/><stop offset=".565" stop-color="#268C8C" stop-opacity=".3"/><stop offset=".864" stop-color="#268C8C" stop-opacity=".1"/></linearGradient><linearGradient id="paint11_linear" x1="135.785" y1="148.547" x2="239.545" y2="148.547" gradientUnits="userSpaceOnUse"><stop stop-color="#ADEAFF"/><stop offset="1" stop-color="#ACFFEE"/></linearGradient><linearGradient id="paint12_linear" x1="136.5" y1="204.643" x2="238.607" y2="204.643" gradientUnits="userSpaceOnUse"><stop stop-color="#91E2FF"/><stop offset="1" stop-color="#EBFFFB"/></linearGradient><linearGradient id="paint13_linear" x1="138.771" y1="204.437" x2="236.473" y2="204.437" gradientUnits="userSpaceOnUse"><stop stop-color="#B2EAFD"/><stop offset="1" stop-color="#ECEFEE"/></linearGradient><linearGradient id="paint14_linear" x1="135.851" y1="87.249" x2="241.746" y2="87.249" gradientUnits="userSpaceOnUse"><stop stop-color="#78DDFF"/><stop offset="1" stop-color="#39F2F5"/></linearGradient><linearGradient id="paint15_linear" x1="189.587" y1="127.926" x2="221.868" y2="127.926" gradientUnits="userSpaceOnUse"><stop stop-color="#78DDFF"/><stop offset="1" stop-color="#39F2F5"/></linearGradient><clipPath id="clip0"><path fill="#fff" transform="rotate(-5.081 926.62 -2984.917)" d="M0 0h128v156H0z"/></clipPath><filter id="filter0_f" x="0" y="128" width="221" height="110.833" filterUnits="userSpaceOnUse" color-interpolation-filters="sRGB"><feFlood flood-opacity="0" result="BackgroundImageFix"/><feBlend in="SourceGraphic" in2="BackgroundImageFix" result="shape"/><feGaussianBlur stdDeviation="6" result="effect1_foregroundBlur"/></filter></defs></svg>