<svg width="1133" height="354" viewBox="0 0 1133 354" fill="none" xmlns="http://www.w3.org/2000/svg">
<mask id="mask0" mask-type="alpha" maskUnits="userSpaceOnUse" x="0" y="0" width="1135" height="354">
<rect width="1135" height="354" fill="#C4C4C4"/>
</mask>
<g mask="url(#mask0)">
<path opacity="0.3" d="M931.371 194.702L961.068 246.14C962.388 248.426 962.684 250.923 961.955 253.63C961.226 256.337 959.716 258.352 957.424 259.675L905.863 289.444C903.571 290.767 901.071 291.067 898.362 290.345C895.654 289.623 893.639 288.119 892.319 285.832L862.622 234.394C861.302 232.108 861.006 229.612 861.735 226.905C862.464 224.198 863.974 222.183 866.266 220.86L917.827 191.091C920.119 189.768 922.619 189.467 925.328 190.189C928.036 190.912 930.051 192.416 931.371 194.702ZM925.016 26.9108C929.47 34.6265 932.526 42.483 934.183 50.4802C935.841 58.4775 936.49 65.3899 936.13 71.2175C935.771 77.045 934.286 83.5699 931.677 90.7919C929.067 98.014 926.743 103.499 924.706 107.247C922.669 110.995 919.764 116.054 915.993 122.422C912.019 129.099 909.794 136.575 909.32 144.85C908.846 153.125 909.64 159.049 911.703 162.621C913.105 165.05 913.586 167.868 913.146 171.075C912.706 174.282 911.34 176.547 909.049 177.87L857.487 207.639C855.338 208.879 852.749 208.612 849.719 206.837C846.689 205.062 844.39 202.817 842.823 200.102L837.255 190.458C830.408 178.598 828.608 164.73 831.854 148.853C835.1 132.976 840.866 119.312 849.15 107.861C855.373 99.1247 859.079 91.6509 860.267 85.44C861.456 79.2291 860.111 72.7658 856.234 66.0503C852.769 60.0492 846.387 56.6851 837.087 55.958C827.787 55.2309 818.769 57.3895 810.032 62.4337C800.722 67.8087 794.184 74.3459 790.418 82.0453C787.467 88.5116 784.548 101.151 781.66 119.965C781.118 123.326 779.558 125.751 776.98 127.239C775.261 128.231 773.141 128.694 770.619 128.625L719.918 122.177C717.231 121.823 715.089 120.678 713.494 118.742C711.899 116.805 711.137 114.577 711.211 112.058C712.184 60.8204 734.441 22.6324 777.982 -2.50604C789.44 -9.12141 802.248 -13.5634 816.407 -15.8321C830.566 -18.1008 844.445 -18.2076 858.044 -16.1527C871.644 -14.0977 884.494 -9.37155 896.594 -1.97422C908.695 5.42312 918.169 15.0515 925.016 26.9108Z" fill="url(#paint0_linear)"/>
<path opacity="0.3" d="M320.99 313.718L303.209 354.369C302.419 356.176 301.048 357.46 299.097 358.221C297.146 358.981 295.265 358.966 293.454 358.174L252.706 340.35C250.895 339.558 249.606 338.187 248.841 336.238C248.075 334.289 248.087 332.411 248.878 330.605L266.658 289.954C267.449 288.147 268.819 286.863 270.77 286.102C272.721 285.342 274.602 285.357 276.413 286.149L317.162 303.973C318.973 304.765 320.261 306.136 321.027 308.085C321.792 310.034 321.78 311.912 320.99 313.718ZM419.094 235.559C416.426 241.657 413.055 246.975 408.979 251.515C404.903 256.055 401.033 259.508 397.369 261.873C393.705 264.239 389.123 266.237 383.623 267.867C378.123 269.497 373.794 270.529 370.637 270.965C367.48 271.4 363.151 271.894 357.65 272.447C351.874 273.015 346.392 274.989 341.205 278.37C336.017 281.751 332.806 284.853 331.572 287.676C330.732 289.596 329.25 291.133 327.126 292.29C325.003 293.446 323.035 293.628 321.224 292.835L280.476 275.012C278.778 274.269 277.792 272.594 277.517 269.985C277.242 267.376 277.574 264.999 278.512 262.853L281.846 255.231C285.946 245.859 293.489 238.632 304.477 233.551C315.464 228.469 326.237 225.884 336.794 225.793C344.806 225.665 350.943 224.583 355.205 222.546C359.467 220.509 362.759 216.837 365.08 211.53C367.155 206.788 366.35 201.458 362.668 195.543C358.985 189.627 353.691 185.159 346.787 182.139C339.429 178.921 332.601 177.885 326.301 179.031C321.105 180.121 312.209 183.965 299.614 190.563C297.353 191.726 295.203 191.862 293.166 190.971C291.807 190.377 290.59 189.306 289.514 187.759L270.93 154.408C269.952 152.635 269.692 150.84 270.15 149.022C270.608 147.204 271.611 145.76 273.158 144.688C304.407 122.573 337.236 119.041 371.646 134.092C380.701 138.053 389.047 143.789 396.684 151.299C404.322 158.81 410.535 167.11 415.324 176.2C420.113 185.29 422.963 195.113 423.875 205.668C424.787 216.223 423.193 226.187 419.094 235.559Z" fill="url(#paint1_linear)"/>
<path opacity="0.3" d="M206.004 102.437L211.354 122.403C211.592 123.291 211.466 124.157 210.977 125.001C210.489 125.845 209.799 126.387 208.91 126.625L188.895 131.988C188.006 132.226 187.138 132.102 186.293 131.615C185.447 131.129 184.905 130.441 184.668 129.554L179.318 109.587C179.08 108.7 179.205 107.834 179.694 106.99C180.183 106.145 180.872 105.604 181.762 105.366L201.776 100.003C202.666 99.7644 203.534 99.8886 204.379 100.375C205.225 100.862 205.766 101.549 206.004 102.437ZM218.981 45.4586C219.784 48.4536 220.104 51.37 219.94 54.2076C219.777 57.0453 219.373 59.4275 218.727 61.3541C218.081 63.2808 216.994 65.3405 215.467 67.5332C213.939 69.726 212.664 71.3606 211.641 72.4371C210.619 73.5136 209.187 74.9524 207.345 76.7536C205.408 78.64 203.987 80.9528 203.082 83.6919C202.177 86.431 201.91 88.4939 202.282 89.8805C202.535 90.8233 202.443 91.814 202.006 92.8524C201.569 93.8909 200.906 94.5293 200.016 94.7676L180.001 100.131C179.168 100.354 178.321 100.031 177.462 99.1613C176.604 98.2916 176.033 97.3299 175.751 96.2761L174.748 92.5323C173.514 87.9289 174.158 83.1047 176.68 78.0599C179.201 73.015 182.37 68.941 186.186 65.8378C189.065 63.4614 190.984 61.2827 191.943 59.3019C192.902 57.321 193.032 55.0272 192.334 52.4204C191.71 50.091 189.867 48.3852 186.807 47.3031C183.746 46.221 180.52 46.1343 177.128 47.043C173.514 48.0113 170.728 49.62 168.768 51.869C167.194 53.7769 165.074 57.7631 162.408 63.8274C161.923 64.9084 161.181 65.583 160.18 65.8512C159.513 66.0299 158.758 65.9943 157.917 65.7443L141.453 59.0096C140.582 58.6486 139.965 58.0708 139.603 57.2761C139.242 56.4814 139.186 55.6639 139.438 54.8237C144.38 37.687 155.302 26.8542 172.203 22.3255C176.651 21.1338 181.357 20.7942 186.321 21.3069C191.285 21.8196 195.96 23.0339 200.347 24.9497C204.734 26.8654 208.628 29.6117 212.029 33.1884C215.431 36.7651 217.748 40.8551 218.981 45.4586Z" fill="url(#paint2_linear)"/>
<path opacity="0.3" d="M49.5575 351.197L46.013 381.681C45.8555 383.036 45.2084 384.162 44.0717 385.06C42.935 385.957 41.6876 386.327 40.3295 386.169L9.77278 382.616C8.4147 382.458 7.28546 381.812 6.38506 380.678C5.48465 379.543 5.11321 378.298 5.27075 376.944L8.81525 346.46C8.97278 345.105 9.6199 343.979 10.7566 343.081C11.8933 342.184 13.1407 341.814 14.4988 341.972L45.0555 345.525C46.4136 345.683 47.5428 346.329 48.4432 347.463C49.3436 348.598 49.7151 349.843 49.5575 351.197ZM98.6518 279.667C98.1201 284.239 96.9651 288.439 95.1867 292.266C93.4083 296.093 91.5463 299.159 89.6007 301.464C87.6551 303.77 85.028 306.018 81.7194 308.208C78.4108 310.397 75.7563 311.955 73.756 312.881C71.7558 313.807 68.9922 315.009 65.4653 316.487C61.7587 318.03 58.5316 320.444 55.7839 323.729C53.0362 327.014 51.5392 329.715 51.2931 331.832C51.1257 333.272 50.4564 334.588 49.2853 335.782C48.1141 336.976 46.8495 337.494 45.4914 337.337L14.9347 333.784C13.6615 333.636 12.6704 332.726 11.9613 331.056C11.2522 329.386 10.9912 327.747 11.1782 326.138L11.8428 320.422C12.66 313.394 16.1891 307.089 22.4299 301.507C28.6708 295.924 35.2738 292.036 42.239 289.843C47.5128 288.139 51.3534 286.182 53.7609 283.973C56.1685 281.764 57.6036 278.67 58.0664 274.69C58.4799 271.134 56.8707 267.771 53.2389 264.603C49.607 261.434 45.2023 259.549 40.0246 258.947C34.5074 258.305 29.7812 259 25.8458 261.032C22.6289 262.803 17.5217 267.144 10.5242 274.054C9.26322 275.281 7.86882 275.805 6.34099 275.627C5.32243 275.509 4.30082 275.047 3.27615 274.241L-15.7582 255.937C-16.7632 254.961 -17.2979 253.827 -17.3624 252.532C-17.4269 251.237 -17.0557 250.079 -16.2486 249.057C-0.048883 228.112 20.9527 219.14 46.7562 222.14C53.5465 222.93 60.2267 225.037 66.7968 228.461C73.3668 231.885 79.1544 236.12 84.1597 241.165C89.1648 246.209 93.0358 252.13 95.7725 258.928C98.5092 265.726 99.469 272.639 98.6518 279.667Z" fill="url(#paint3_linear)"/>
<path opacity="0.3" d="M200.558 249.899L204.327 265.198C204.494 265.878 204.385 266.536 203.999 267.171C203.614 267.807 203.08 268.209 202.399 268.377L187.063 272.155C186.382 272.323 185.723 272.215 185.086 271.83C184.449 271.446 184.047 270.914 183.879 270.235L180.111 254.936C179.943 254.256 180.052 253.598 180.438 252.962C180.824 252.326 181.357 251.924 182.039 251.756L197.374 247.979C198.056 247.811 198.715 247.919 199.352 248.303C199.988 248.687 200.391 249.219 200.558 249.899ZM211.328 206.679C211.894 208.973 212.092 211.201 211.924 213.361C211.756 215.521 211.411 217.33 210.889 218.788C210.367 220.246 209.507 221.799 208.309 223.447C207.11 225.094 206.113 226.32 205.318 227.125C204.522 227.929 203.408 229.003 201.977 230.348C200.471 231.755 199.353 233.496 198.621 235.569C197.889 237.643 197.654 239.21 197.916 240.273C198.094 240.995 198.008 241.749 197.659 242.533C197.31 243.318 196.795 243.794 196.114 243.962L180.778 247.74C180.139 247.897 179.499 247.638 178.858 246.962C178.217 246.286 177.797 245.544 177.598 244.737L176.892 241.868C176.023 238.341 176.588 234.675 178.588 230.869C180.587 227.064 183.065 224.008 186.021 221.702C188.252 219.936 189.748 218.305 190.51 216.81C191.271 215.316 191.406 213.569 190.914 211.572C190.474 209.787 189.096 208.459 186.78 207.587C184.465 206.715 182.007 206.599 179.409 207.239C176.64 207.921 174.492 209.104 172.963 210.788C171.734 212.217 170.057 215.222 167.932 219.802C167.546 220.619 166.969 221.121 166.203 221.31C165.691 221.436 165.117 221.397 164.479 221.194L152.037 215.807C151.379 215.519 150.918 215.069 150.654 214.458C150.391 213.846 150.362 213.223 150.566 212.586C154.597 199.603 163.088 191.517 176.038 188.327C179.446 187.487 183.037 187.301 186.812 187.769C190.587 188.236 194.131 189.234 197.445 190.761C200.758 192.289 203.683 194.442 206.22 197.22C208.757 199.999 210.459 203.151 211.328 206.679Z" fill="url(#paint4_linear)"/>
<path opacity="0.3" d="M54.3879 130.039L48.4366 140.057C48.1721 140.502 47.7733 140.792 47.2401 140.928C46.707 141.063 46.2173 140.998 45.771 140.733L35.7286 134.767C35.2823 134.502 34.991 134.103 34.8546 133.57C34.7182 133.037 34.7823 132.548 35.0468 132.103L40.9982 122.085C41.2627 121.639 41.6615 121.349 42.1946 121.214C42.7277 121.079 43.2175 121.144 43.6638 121.409L53.7061 127.375C54.1524 127.64 54.4438 128.039 54.5802 128.572C54.7165 129.105 54.6524 129.594 54.3879 130.039ZM82.4888 112.848C81.5961 114.351 80.545 115.628 79.3357 116.679C78.1263 117.73 77.0058 118.504 75.9742 119.002C74.9425 119.5 73.6836 119.872 72.1973 120.119C70.7111 120.365 69.5496 120.494 68.7127 120.505C67.8758 120.516 66.7316 120.505 65.2799 120.471C63.756 120.431 62.2633 120.768 60.8019 121.481C59.3404 122.194 58.4031 122.899 57.9898 123.594C57.7087 124.068 57.2727 124.42 56.6817 124.653C56.0908 124.885 55.5721 124.869 55.1258 124.604L45.0834 118.638C44.665 118.39 44.4623 117.921 44.4752 117.232C44.4881 116.543 44.6516 115.934 44.9657 115.406L46.0816 113.527C47.4537 111.218 49.6539 109.579 52.6822 108.61C55.7105 107.642 58.6018 107.317 61.3563 107.636C63.4485 107.862 65.0829 107.779 66.2597 107.386C67.4365 106.993 68.4134 106.143 69.1904 104.835C69.8847 103.666 69.8478 102.251 69.0797 100.59C68.3116 98.9292 67.0767 97.5932 65.3751 96.5824C63.5619 95.5053 61.8158 95.0139 60.1369 95.1084C58.7473 95.2241 56.3043 95.9377 52.808 97.2491C52.1809 97.4789 51.6163 97.4447 51.1141 97.1464C50.7794 96.9476 50.4968 96.6291 50.2664 96.1911L46.5038 86.8967C46.3065 86.403 46.297 85.9267 46.4752 85.4678C46.6534 85.009 46.9616 84.6649 47.3997 84.4357C56.2603 79.6848 64.9308 79.8281 73.4109 84.8658C75.6426 86.1915 77.6319 87.9568 79.379 90.1618C81.126 92.3667 82.4763 94.7313 83.4299 97.2555C84.3834 99.7798 84.808 102.432 84.7036 105.213C84.5991 107.993 83.8609 110.538 82.4888 112.848Z" fill="url(#paint5_linear)"/>
<path opacity="0.3" d="M356.492 53.7647L368.342 63.7766C368.869 64.2215 369.162 64.8089 369.223 65.5385C369.283 66.2682 369.09 66.897 368.644 67.4249L358.608 79.3032C358.162 79.8311 357.575 80.1261 356.845 80.1884C356.115 80.2506 355.487 80.0592 354.961 79.6142L343.111 69.6024C342.584 69.1574 342.291 68.5701 342.23 67.8404C342.17 67.1108 342.363 66.482 342.809 65.954L352.845 54.0758C353.291 53.5479 353.878 53.2528 354.608 53.1906C355.337 53.1284 355.966 53.3198 356.492 53.7647ZM340.082 13.0955C341.859 14.5973 343.305 16.2574 344.42 18.0759C345.535 19.8945 346.306 21.5356 346.734 22.9995C347.161 24.4633 347.374 26.198 347.372 28.2037C347.37 30.2093 347.284 31.7628 347.115 32.8641C346.946 33.9655 346.68 35.4655 346.317 37.3641C345.931 39.3565 346.046 41.3905 346.662 43.4659C347.278 45.5413 347.997 46.9266 348.82 47.6219C349.38 48.0947 349.747 48.7446 349.923 49.5716C350.099 50.3986 349.963 51.076 349.517 51.604L339.481 63.4822C339.063 63.9771 338.403 64.1406 337.502 63.9725C336.6 63.8045 335.837 63.4562 335.211 62.9278L332.989 61.0506C330.257 58.7423 328.588 55.4938 327.98 51.305C327.373 47.1163 327.581 43.2484 328.603 39.7014C329.359 37.0038 329.608 34.8393 329.351 33.2079C329.093 31.5766 328.191 30.1073 326.644 28.8002C325.261 27.6322 323.395 27.3703 321.045 28.0146C318.696 28.659 316.671 29.9875 314.97 32.0002C313.158 34.1449 312.13 36.3299 311.886 38.5552C311.733 40.4052 312.134 43.7696 313.09 48.6482C313.254 49.5221 313.085 50.256 312.583 50.8499C312.249 51.2459 311.769 51.5471 311.143 51.7535L298.113 54.6558C297.422 54.8066 296.794 54.7147 296.231 54.3801C295.667 54.0454 295.283 53.5653 295.078 52.9398C290.783 40.263 292.873 28.9093 301.348 18.8788C303.578 16.2392 306.332 14.0141 309.611 12.2037C312.889 10.3932 316.29 9.13868 319.814 8.44015C323.337 7.74162 326.913 7.76582 330.541 8.51272C334.17 9.25962 337.35 10.7872 340.082 13.0955Z" fill="url(#paint6_linear)"/>
<path opacity="0.3" d="M1071.32 289.718L1066.89 323.177C1066.7 324.664 1065.97 325.892 1064.72 326.861C1063.46 327.83 1062.1 328.217 1060.62 328.021L1027.41 323.631C1025.93 323.436 1024.71 322.707 1023.75 321.445C1022.79 320.184 1022.41 318.809 1022.61 317.322L1027.03 283.863C1027.23 282.376 1027.95 281.148 1029.21 280.179C1030.46 279.211 1031.83 278.824 1033.3 279.019L1066.52 283.41C1067.99 283.605 1069.21 284.333 1070.17 285.595C1071.13 286.856 1071.51 288.231 1071.32 289.718ZM1126.11 211.852C1125.44 216.871 1124.11 221.47 1122.1 225.649C1120.09 229.828 1118.01 233.17 1115.85 235.674C1113.68 238.178 1110.78 240.607 1107.14 242.962C1103.49 245.318 1100.57 246.989 1098.38 247.975C1096.18 248.961 1093.15 250.239 1089.28 251.808C1085.22 253.446 1081.66 256.048 1078.6 259.617C1075.55 263.185 1073.87 266.131 1073.56 268.454C1073.35 270.034 1072.6 271.471 1071.3 272.765C1070.01 274.06 1068.62 274.609 1067.14 274.414L1033.93 270.023C1032.55 269.84 1031.48 268.825 1030.74 266.978C1030 265.13 1029.75 263.323 1029.98 261.558L1030.81 255.284C1031.83 247.57 1035.79 240.694 1042.69 234.655C1049.59 228.617 1056.85 224.447 1064.48 222.145C1070.25 220.355 1074.47 218.265 1077.14 215.875C1079.8 213.485 1081.42 210.105 1082 205.737C1082.51 201.833 1080.82 198.111 1076.92 194.57C1073.03 191.028 1068.26 188.886 1062.64 188.142C1056.64 187.349 1051.48 188.038 1047.16 190.209C1043.62 192.106 1037.98 196.797 1030.23 204.284C1028.83 205.612 1027.3 206.167 1025.64 205.947C1024.54 205.801 1023.43 205.277 1022.33 204.374L1001.94 183.948C1000.86 182.86 1000.3 181.603 1000.25 180.179C1000.21 178.754 1000.63 177.486 1001.53 176.376C1019.56 153.605 1042.6 144.073 1070.65 147.781C1078.03 148.757 1085.27 151.179 1092.36 155.048C1099.45 158.918 1105.67 163.665 1111.03 169.291C1116.39 174.916 1120.5 181.488 1123.35 189.005C1126.21 196.522 1127.13 204.138 1126.11 211.852Z" fill="url(#paint7_linear)"/>
<path opacity="0.3" d="M794.395 304.955L791.165 317.012C791.021 317.548 790.695 317.963 790.187 318.257C789.678 318.552 789.157 318.628 788.623 318.484L776.604 315.264C776.07 315.121 775.656 314.795 775.363 314.285C775.07 313.776 774.996 313.254 775.139 312.718L778.37 300.661C778.513 300.125 778.839 299.71 779.348 299.415C779.856 299.121 780.377 299.045 780.911 299.188L792.931 302.409C793.465 302.552 793.878 302.878 794.171 303.387C794.464 303.897 794.539 304.419 794.395 304.955ZM818.297 279.053C817.812 280.862 817.1 282.484 816.161 283.919C815.222 285.355 814.294 286.479 813.379 287.293C812.463 288.106 811.278 288.857 809.823 289.544C808.369 290.231 807.214 290.702 806.358 290.958C805.503 291.213 804.325 291.534 802.825 291.922C801.25 292.326 799.815 293.108 798.52 294.269C797.225 295.429 796.465 296.428 796.241 297.265C796.088 297.835 795.742 298.325 795.203 298.737C794.663 299.149 794.126 299.283 793.592 299.14L781.573 295.919C781.072 295.785 780.729 295.361 780.545 294.648C780.36 293.934 780.353 293.259 780.523 292.623L781.129 290.363C781.874 287.583 783.661 285.253 786.491 283.373C789.321 281.493 792.195 280.315 795.113 279.841C797.325 279.465 798.979 278.902 800.073 278.155C801.168 277.407 801.927 276.246 802.348 274.672C802.725 273.266 802.281 271.819 801.016 270.331C799.751 268.843 798.1 267.827 796.063 267.281C793.893 266.699 791.96 266.702 790.264 267.288C788.871 267.813 786.569 269.26 783.358 271.63C782.78 272.049 782.191 272.179 781.59 272.018C781.189 271.91 780.808 271.664 780.445 271.28L773.915 262.8C773.571 262.349 773.424 261.861 773.475 261.336C773.526 260.811 773.744 260.367 774.127 260.003C781.856 252.526 790.796 250.147 800.945 252.867C803.616 253.582 806.165 254.822 808.591 256.584C811.017 258.347 813.082 260.39 814.785 262.713C816.489 265.036 817.686 267.645 818.377 270.541C819.069 273.436 819.042 276.274 818.297 279.053Z" fill="url(#paint8_linear)"/>
<path opacity="0.3" d="M1055.88 69.438L1052.94 83.0792C1052.81 83.6855 1052.47 84.1672 1051.92 84.5243C1051.37 84.8814 1050.79 84.9949 1050.19 84.8647L1036.59 81.9366C1035.99 81.8064 1035.51 81.4652 1035.15 80.9129C1034.8 80.3606 1034.68 79.7813 1034.81 79.175L1037.75 65.5338C1037.88 64.9276 1038.22 64.4459 1038.77 64.0888C1039.32 63.7317 1039.9 63.6182 1040.51 63.7483L1054.11 66.6765C1054.71 66.8066 1055.19 67.1478 1055.54 67.7002C1055.9 68.2525 1056.01 68.8318 1055.88 69.438ZM1081.13 39.1905C1080.69 41.2367 1079.98 43.0872 1079.02 44.742C1078.05 46.3969 1077.07 47.7039 1076.1 48.6631C1075.12 49.6223 1073.84 50.526 1072.25 51.374C1070.67 52.222 1069.4 52.8123 1068.46 53.1449C1067.52 53.4775 1066.22 53.902 1064.57 54.4184C1062.83 54.9565 1061.28 55.9094 1059.89 57.2772C1058.51 58.645 1057.72 59.8025 1057.52 60.7498C1057.38 61.394 1057.02 61.9609 1056.44 62.4507C1055.86 62.9404 1055.27 63.1202 1054.66 62.99L1041.06 60.0619C1040.5 59.9399 1040.09 59.4857 1039.84 58.6993C1039.6 57.9129 1039.55 57.1597 1039.71 56.4397L1040.26 53.882C1040.94 50.737 1042.8 48.0362 1045.86 45.7799C1048.91 43.5235 1052.06 42.0494 1055.29 41.3576C1057.74 40.8144 1059.55 40.095 1060.73 39.1995C1061.91 38.304 1062.7 36.9657 1063.08 35.1848C1063.42 33.5933 1062.85 32.0022 1061.35 30.4114C1059.86 28.8207 1057.96 27.7772 1055.65 27.2811C1053.2 26.7524 1051.04 26.8626 1049.18 27.6117C1047.65 28.2743 1045.16 30.018 1041.71 32.8426C1041.09 33.3432 1040.43 33.5202 1039.75 33.3738C1039.3 33.2762 1038.86 33.023 1038.44 32.6141L1030.67 23.5084C1030.26 23.0238 1030.07 22.4871 1030.1 21.8984C1030.13 21.3097 1030.35 20.8015 1030.76 20.374C1038.97 11.5961 1048.82 8.44345 1060.3 10.9161C1063.32 11.5668 1066.24 12.8089 1069.04 14.6424C1071.85 16.4759 1074.27 18.6422 1076.3 21.1412C1078.33 23.6403 1079.81 26.487 1080.75 29.6814C1081.68 32.8757 1081.81 36.0454 1081.13 39.1905Z" fill="url(#paint9_linear)"/>
</g>
<defs>
<linearGradient id="paint0_linear" x1="776.253" y1="-1.50782" x2="969.486" y2="333.183" gradientUnits="userSpaceOnUse">
<stop stop-color="#57B6FF"/>
<stop offset="1" stop-color="#57B6FF" stop-opacity="0"/>
</linearGradient>
<linearGradient id="paint1_linear" x1="370.279" y1="133.494" x2="254.586" y2="397.995" gradientUnits="userSpaceOnUse">
<stop stop-color="#57B6FF"/>
<stop offset="1" stop-color="#57B6FF" stop-opacity="0"/>
</linearGradient>
<linearGradient id="paint2_linear" x1="171.532" y1="22.5054" x2="206.344" y2="152.422" gradientUnits="userSpaceOnUse">
<stop stop-color="#57B6FF"/>
<stop offset="1" stop-color="#57B6FF" stop-opacity="0"/>
</linearGradient>
<linearGradient id="paint3_linear" x1="45.7315" y1="222.021" x2="22.6687" y2="420.367" gradientUnits="userSpaceOnUse">
<stop stop-color="#57B6FF"/>
<stop offset="1" stop-color="#57B6FF" stop-opacity="0"/>
</linearGradient>
<linearGradient id="paint4_linear" x1="175.524" y1="188.453" x2="200.044" y2="287.997" gradientUnits="userSpaceOnUse">
<stop stop-color="#57B6FF"/>
<stop offset="1" stop-color="#57B6FF" stop-opacity="0"/>
</linearGradient>
<linearGradient id="paint5_linear" x1="73.0742" y1="84.6657" x2="34.3507" y2="149.851" gradientUnits="userSpaceOnUse">
<stop stop-color="#57B6FF"/>
<stop offset="1" stop-color="#57B6FF" stop-opacity="0"/>
</linearGradient>
<linearGradient id="paint6_linear" x1="301.011" y1="19.2771" x2="378.113" y2="84.4207" gradientUnits="userSpaceOnUse">
<stop stop-color="#57B6FF"/>
<stop offset="1" stop-color="#57B6FF" stop-opacity="0"/>
</linearGradient>
<linearGradient id="paint7_linear" x1="1069.53" y1="147.634" x2="1040.75" y2="365.34" gradientUnits="userSpaceOnUse">
<stop stop-color="#57B6FF"/>
<stop offset="1" stop-color="#57B6FF" stop-opacity="0"/>
</linearGradient>
<linearGradient id="paint8_linear" x1="800.542" y1="252.759" x2="779.522" y2="331.208" gradientUnits="userSpaceOnUse">
<stop stop-color="#57B6FF"/>
<stop offset="1" stop-color="#57B6FF" stop-opacity="0"/>
</linearGradient>
<linearGradient id="paint9_linear" x1="1059.85" y1="10.8179" x2="1040.73" y2="99.5765" gradientUnits="userSpaceOnUse">
<stop stop-color="#57B6FF"/>
<stop offset="1" stop-color="#57B6FF" stop-opacity="0"/>
</linearGradient>
</defs>
</svg>
