<svg width="1133" height="354" fill="none" xmlns="http://www.w3.org/2000/svg"><mask id="a" maskUnits="userSpaceOnUse" x="0" y="0" width="1135" height="354"><path fill="#C4C4C4" d="M0 0h1135v354H0z"/></mask><g mask="url(#a)"><path opacity=".3" d="M931.371 194.702l29.697 51.438c1.32 2.286 1.616 4.783.887 7.49-.729 2.707-2.239 4.722-4.531 6.045l-51.561 29.769c-2.292 1.323-4.792 1.623-7.501.901-2.708-.722-4.723-2.226-6.043-4.513l-29.697-51.438c-1.32-2.286-1.616-4.782-.887-7.489.729-2.707 2.239-4.722 4.531-6.045l51.561-29.769c2.292-1.323 4.792-1.624 7.501-.902 2.708.723 4.723 2.227 6.043 4.513zm-6.355-167.791c4.454 7.715 7.51 15.572 9.167 23.57 1.658 7.996 2.307 14.909 1.947 20.736-.359 5.828-1.844 12.353-4.453 19.575-2.61 7.222-4.934 12.707-6.971 16.455-2.037 3.748-4.942 8.807-8.713 15.175-3.974 6.677-6.199 14.153-6.673 22.428-.474 8.275.32 14.199 2.383 17.771 1.402 2.429 1.883 5.247 1.443 8.454-.44 3.207-1.806 5.472-4.097 6.795l-51.562 29.769c-2.149 1.24-4.738.973-7.768-.802-3.03-1.775-5.329-4.02-6.896-6.735l-5.568-9.644c-6.847-11.86-8.647-25.728-5.401-41.605 3.246-15.877 9.012-29.541 17.296-40.992 6.223-8.736 9.929-16.21 11.117-22.421 1.189-6.21-.156-12.674-4.033-19.39-3.465-6-9.847-9.365-19.147-10.092-9.3-.727-18.318 1.431-27.055 6.476-9.31 5.375-15.848 11.912-19.614 19.611-2.951 6.467-5.87 19.106-8.758 37.92-.542 3.361-2.102 5.786-4.68 7.274-1.719.992-3.839 1.455-6.361 1.386l-50.701-6.448c-2.687-.354-4.829-1.499-6.424-3.435-1.595-1.937-2.357-4.165-2.283-6.684.973-51.238 23.23-89.426 66.771-114.564 11.458-6.615 24.266-11.057 38.425-13.326 14.159-2.269 28.038-2.376 41.637-.32 13.6 2.054 26.45 6.78 38.55 14.178 12.101 7.397 21.575 17.025 28.422 28.885z" fill="url(#paint0_linear)"/><path opacity=".3" d="M320.99 313.718l-17.781 40.651c-.79 1.807-2.161 3.091-4.112 3.852-1.951.76-3.832.745-5.643-.047l-40.748-17.824c-1.811-.792-3.1-2.163-3.865-4.112-.766-1.949-.754-3.827.037-5.633l17.78-40.651c.791-1.807 2.161-3.091 4.112-3.852 1.951-.76 3.832-.745 5.643.047l40.749 17.824c1.811.792 3.099 2.163 3.865 4.112.765 1.949.753 3.827-.037 5.633zm98.104-78.159c-2.668 6.098-6.039 11.416-10.115 15.956-4.076 4.54-7.946 7.993-11.61 10.358-3.664 2.366-8.246 4.364-13.746 5.994s-9.829 2.662-12.986 3.098c-3.157.435-7.486.929-12.987 1.482-5.776.568-11.258 2.542-16.445 5.923-5.188 3.381-8.399 6.483-9.633 9.306-.84 1.92-2.322 3.457-4.446 4.614-2.123 1.156-4.091 1.338-5.902.545l-40.748-17.823c-1.698-.743-2.684-2.418-2.959-5.027-.275-2.609.057-4.986.995-7.132l3.334-7.622c4.1-9.372 11.643-16.599 22.631-21.68 10.987-5.082 21.76-7.667 32.317-7.758 8.012-.128 14.149-1.21 18.411-3.247 4.262-2.037 7.554-5.709 9.875-11.016 2.075-4.742 1.27-10.072-2.412-15.987-3.683-5.916-8.977-10.384-15.881-13.404-7.358-3.218-14.186-4.254-20.486-3.108-5.196 1.09-14.092 4.934-26.687 11.532-2.261 1.163-4.411 1.299-6.448.408-1.359-.594-2.576-1.665-3.652-3.212l-18.584-33.351c-.978-1.773-1.238-3.568-.78-5.386.458-1.818 1.461-3.262 3.008-4.334 31.249-22.115 64.078-25.647 98.488-10.596 9.055 3.961 17.401 9.697 25.038 17.207 7.638 7.511 13.851 15.811 18.64 24.901s7.639 18.913 8.551 29.468c.912 10.555-.682 20.519-4.781 29.891z" fill="url(#paint1_linear)"/><path opacity=".3" d="M206.004 102.437l5.35 19.966c.238.888.112 1.754-.377 2.598-.488.844-1.178 1.386-2.067 1.624l-20.015 5.363c-.889.238-1.757.114-2.602-.373-.846-.486-1.388-1.174-1.625-2.061l-5.35-19.967c-.238-.887-.113-1.753.376-2.597.489-.845 1.178-1.386 2.068-1.624l20.014-5.363c.89-.239 1.758-.114 2.603.372.846.487 1.387 1.174 1.625 2.062zm12.977-56.978c.803 2.995 1.123 5.911.959 8.749-.163 2.837-.567 5.22-1.213 7.146-.646 1.927-1.733 3.987-3.26 6.18-1.528 2.192-2.803 3.827-3.826 4.903-1.022 1.077-2.454 2.515-4.296 4.317-1.937 1.886-3.358 4.199-4.263 6.938-.905 2.739-1.172 4.802-.8 6.189.253.942.161 1.933-.276 2.971-.437 1.039-1.1 1.677-1.99 1.916l-20.015 5.363c-.833.223-1.68-.1-2.539-.97-.858-.87-1.429-1.831-1.711-2.885l-1.003-3.744c-1.234-4.603-.59-9.427 1.932-14.472 2.521-5.045 5.69-9.119 9.506-12.222 2.879-2.377 4.798-4.555 5.757-6.536.959-1.981 1.089-4.275.391-6.882-.624-2.329-2.467-4.035-5.527-5.117-3.061-1.082-6.287-1.169-9.679-.26-3.614.968-6.4 2.577-8.36 4.826-1.574 1.908-3.694 5.894-6.36 11.958-.485 1.081-1.227 1.756-2.228 2.024-.667.179-1.422.143-2.263-.107l-16.464-6.734c-.871-.361-1.488-.94-1.85-1.734a3.392 3.392 0 01-.165-2.452c4.942-17.137 15.864-27.97 32.765-32.498 4.448-1.192 9.154-1.532 14.118-1.02 4.964.514 9.639 1.728 14.026 3.644 4.387 1.915 8.281 4.662 11.682 8.238 3.402 3.577 5.719 7.667 6.952 12.27z" fill="url(#paint2_linear)"/><path opacity=".3" d="M49.557 351.197l-3.544 30.484c-.157 1.355-.805 2.481-1.941 3.379-1.137.897-2.384 1.267-3.742 1.109l-30.557-3.553c-1.358-.158-2.488-.804-3.388-1.938-.9-1.135-1.272-2.38-1.114-3.734l3.544-30.484c.158-1.355.805-2.481 1.942-3.379 1.136-.897 2.384-1.267 3.742-1.109l30.556 3.553c1.359.158 2.488.804 3.388 1.938.9 1.135 1.272 2.38 1.114 3.734zm49.095-71.53c-.532 4.572-1.687 8.772-3.465 12.599-1.779 3.827-3.64 6.893-5.586 9.198-1.946 2.306-4.573 4.554-7.882 6.744-3.308 2.189-5.963 3.747-7.963 4.673-2 .926-4.764 2.128-8.29 3.606-3.707 1.543-6.934 3.957-9.682 7.242s-4.245 5.986-4.49 8.103c-.168 1.44-.838 2.756-2.009 3.95-1.17 1.194-2.435 1.712-3.794 1.555l-30.556-3.553c-1.274-.148-2.265-1.058-2.974-2.728-.709-1.67-.97-3.309-.783-4.918l.665-5.716c.817-7.028 4.346-13.333 10.587-18.915 6.24-5.583 12.844-9.471 19.809-11.664 5.274-1.704 9.114-3.661 11.522-5.87 2.407-2.209 3.843-5.303 4.305-9.283.414-3.556-1.195-6.919-4.827-10.087-3.632-3.169-8.037-5.054-13.214-5.656-5.518-.642-10.244.053-14.18 2.085-3.216 1.771-8.323 6.112-15.32 13.022-1.262 1.227-2.656 1.751-4.184 1.573-1.019-.118-2.04-.58-3.065-1.386l-19.034-18.304c-1.005-.976-1.54-2.11-1.604-3.405-.065-1.295.306-2.453 1.113-3.475 16.2-20.945 37.202-29.917 63.005-26.917 6.79.79 13.47 2.897 20.04 6.321 6.57 3.424 12.358 7.659 17.364 12.704 5.005 5.044 8.876 10.965 11.612 17.763 2.737 6.798 3.697 13.711 2.88 20.739z" fill="url(#paint3_linear)"/><path opacity=".3" d="M200.558 249.899l3.769 15.299c.167.68.058 1.338-.328 1.973-.385.636-.919 1.038-1.6 1.206l-15.336 3.778c-.681.168-1.34.06-1.977-.325-.637-.384-1.039-.916-1.207-1.595l-3.768-15.299c-.168-.68-.059-1.338.327-1.974.386-.636.919-1.038 1.601-1.206l15.335-3.777c.682-.168 1.341-.06 1.978.324.636.384 1.039.916 1.206 1.596zm10.77-43.22c.566 2.294.764 4.522.596 6.682-.168 2.16-.513 3.969-1.035 5.427-.522 1.458-1.382 3.011-2.58 4.659-1.199 1.647-2.196 2.873-2.991 3.678a136.94 136.94 0 01-3.341 3.223c-1.506 1.407-2.624 3.148-3.356 5.221-.732 2.074-.967 3.641-.705 4.704.178.722.092 1.476-.257 2.26-.349.785-.864 1.261-1.545 1.429l-15.336 3.778c-.639.157-1.279-.102-1.92-.778s-1.061-1.418-1.26-2.225l-.706-2.869c-.869-3.527-.304-7.193 1.696-10.999 1.999-3.805 4.477-6.861 7.433-9.167 2.231-1.766 3.727-3.397 4.489-4.892.761-1.494.896-3.241.404-5.238-.44-1.785-1.818-3.113-4.134-3.985-2.315-.872-4.773-.988-7.371-.348-2.769.682-4.917 1.865-6.446 3.549-1.229 1.429-2.906 4.434-5.031 9.014-.386.817-.963 1.319-1.729 1.508-.512.126-1.086.087-1.724-.116l-12.442-5.387c-.658-.288-1.119-.738-1.383-1.349a2.591 2.591 0 01-.088-1.872c4.031-12.983 12.522-21.069 25.472-24.259 3.408-.84 6.999-1.026 10.774-.558 3.775.467 7.319 1.465 10.633 2.992 3.313 1.528 6.238 3.681 8.775 6.459 2.537 2.779 4.239 5.931 5.108 9.459z" fill="url(#paint4_linear)"/><path opacity=".3" d="M54.388 130.039l-5.951 10.018c-.265.445-.664.735-1.197.871-.533.135-1.023.07-1.469-.195l-10.042-5.966c-.447-.265-.738-.664-.874-1.197-.137-.533-.073-1.022.192-1.467l5.951-10.018c.265-.446.663-.736 1.197-.871.533-.135 1.023-.07 1.469.195l10.042 5.966c.446.265.738.664.874 1.197.137.533.072 1.022-.192 1.467zm28.1-17.191c-.892 1.503-1.943 2.78-3.152 3.831-1.21 1.051-2.33 1.825-3.362 2.323s-2.29.87-3.777 1.117c-1.486.246-2.647.375-3.484.386-.837.011-1.981 0-3.433-.034-1.524-.04-3.017.297-4.478 1.01-1.462.713-2.399 1.418-2.812 2.113-.281.474-.717.826-1.308 1.059-.591.232-1.11.216-1.556-.049l-10.043-5.966c-.418-.248-.62-.717-.608-1.406.013-.689.177-1.298.49-1.826l1.117-1.879c1.372-2.309 3.572-3.948 6.6-4.917 3.029-.968 5.92-1.293 8.674-.974 2.093.226 3.727.143 4.904-.25 1.176-.393 2.153-1.243 2.93-2.551.695-1.169.658-2.584-.11-4.245-.768-1.66-2.003-2.997-3.705-4.008-1.813-1.077-3.56-1.568-5.238-1.474-1.39.116-3.833.83-7.329 2.141-.627.23-1.192.196-1.694-.103-.335-.198-.617-.517-.848-.955l-3.762-9.294c-.197-.494-.207-.97-.029-1.43a1.91 1.91 0 01.925-1.031c8.86-4.751 17.53-4.608 26.01.43 2.233 1.326 4.222 3.09 5.969 5.296 1.747 2.205 3.097 4.57 4.05 7.093.954 2.525 1.379 5.177 1.275 7.958-.105 2.78-.843 5.325-2.215 7.635z" fill="url(#paint5_linear)"/><path opacity=".3" d="M356.492 53.765l11.85 10.012c.527.445.82 1.032.881 1.761.06.73-.133 1.359-.579 1.887l-10.036 11.878c-.446.528-1.033.823-1.763.885-.73.063-1.358-.129-1.884-.574l-11.85-10.012c-.527-.445-.82-1.032-.881-1.762-.06-.73.133-1.358.579-1.886l10.036-11.878c.446-.528 1.033-.823 1.763-.885.729-.063 1.358.129 1.884.574zm-16.41-40.67c1.777 1.502 3.223 3.162 4.338 4.98 1.115 1.82 1.886 3.46 2.314 4.925.427 1.463.64 3.198.638 5.204-.002 2.005-.088 3.559-.257 4.66a131.935 131.935 0 01-.798 4.5c-.386 1.992-.271 4.027.345 6.102s1.335 3.46 2.158 4.156c.56.473.927 1.123 1.103 1.95.176.827.04 1.504-.406 2.032l-10.036 11.878c-.418.495-1.078.659-1.979.49-.902-.168-1.665-.516-2.291-1.044l-2.222-1.877c-2.732-2.309-4.401-5.557-5.009-9.746-.607-4.189-.399-8.057.623-11.604.756-2.697 1.005-4.862.748-6.493-.258-1.631-1.16-3.1-2.707-4.408-1.383-1.168-3.249-1.43-5.599-.785-2.349.644-4.374 1.973-6.075 3.985-1.812 2.145-2.84 4.33-3.084 6.555-.153 1.85.248 5.215 1.204 10.093.164.874-.005 1.608-.507 2.202-.334.396-.814.697-1.44.904l-13.03 2.902c-.691.15-1.319.059-1.882-.276a2.543 2.543 0 01-1.153-1.44c-4.295-12.677-2.205-24.03 6.27-34.061 2.23-2.64 4.984-4.865 8.263-6.675 3.278-1.81 6.679-3.065 10.203-3.764 3.523-.698 7.099-.674 10.727.073 3.629.747 6.809 2.274 9.541 4.582z" fill="url(#paint6_linear)"/><path opacity=".3" d="M1071.32 289.718l-4.43 33.459c-.19 1.487-.92 2.715-2.17 3.684-1.26.969-2.62 1.356-4.1 1.16l-33.21-4.39c-1.48-.195-2.7-.924-3.66-2.186-.96-1.261-1.34-2.636-1.14-4.123l4.42-33.459c.2-1.487.92-2.715 2.18-3.684 1.25-.968 2.62-1.355 4.09-1.16l33.22 4.391c1.47.195 2.69.923 3.65 2.185.96 1.261 1.34 2.636 1.15 4.123zm54.79-77.866c-.67 5.019-2 9.618-4.01 13.797s-4.09 7.521-6.25 10.025c-2.17 2.504-5.07 4.933-8.71 7.288-3.65 2.356-6.57 4.027-8.76 5.013-2.2.986-5.23 2.264-9.1 3.833-4.06 1.638-7.62 4.24-10.68 7.809-3.05 3.568-4.73 6.514-5.04 8.837-.21 1.58-.96 3.017-2.26 4.311-1.29 1.295-2.68 1.844-4.16 1.649l-33.21-4.391c-1.38-.183-2.45-1.198-3.19-3.045-.74-1.848-.99-3.655-.76-5.42l.83-6.274c1.02-7.714 4.98-14.59 11.88-20.629 6.9-6.038 14.16-10.208 21.79-12.51 5.77-1.79 9.99-3.88 12.66-6.27 2.66-2.39 4.28-5.77 4.86-10.138.51-3.904-1.18-7.626-5.08-11.167-3.89-3.542-8.66-5.684-14.28-6.428-6-.793-11.16-.104-15.48 2.067-3.54 1.897-9.18 6.588-16.93 14.075-1.4 1.328-2.93 1.883-4.59 1.663-1.1-.146-2.21-.67-3.31-1.573l-20.39-20.426c-1.08-1.088-1.64-2.345-1.69-3.769-.04-1.425.38-2.693 1.28-3.803 18.03-22.771 41.07-32.303 69.12-28.595 7.38.976 14.62 3.398 21.71 7.267 7.09 3.87 13.31 8.617 18.67 14.243 5.36 5.625 9.47 12.197 12.32 19.714 2.86 7.517 3.78 15.133 2.76 22.847z" fill="url(#paint7_linear)"/><path opacity=".3" d="M794.395 304.955l-3.23 12.057c-.144.536-.47.951-.978 1.245-.509.295-1.03.371-1.564.227l-12.019-3.22c-.534-.143-.948-.469-1.241-.979-.293-.509-.367-1.031-.224-1.567l3.231-12.057c.143-.536.469-.951.978-1.246.508-.294 1.029-.37 1.563-.227l12.02 3.221c.534.143.947.469 1.24.978.293.51.368 1.032.224 1.568zm23.902-25.902c-.485 1.809-1.197 3.431-2.136 4.866-.939 1.436-1.867 2.56-2.782 3.374-.916.813-2.101 1.564-3.556 2.251-1.454.687-2.609 1.158-3.465 1.414-.855.255-2.033.576-3.533.964-1.575.404-3.01 1.186-4.305 2.347-1.295 1.16-2.055 2.159-2.279 2.996-.153.57-.499 1.06-1.038 1.472-.54.412-1.077.546-1.611.403l-12.019-3.221c-.501-.134-.844-.558-1.028-1.271-.185-.714-.192-1.389-.022-2.025l.606-2.26c.745-2.78 2.532-5.11 5.362-6.99s5.704-3.058 8.622-3.532c2.212-.376 3.866-.939 4.96-1.686 1.095-.748 1.854-1.909 2.275-3.483.377-1.406-.067-2.853-1.332-4.341-1.265-1.488-2.916-2.504-4.953-3.05-2.17-.582-4.103-.579-5.799.007-1.393.525-3.695 1.972-6.906 4.342-.578.419-1.167.549-1.768.388-.401-.108-.782-.354-1.145-.738l-6.53-8.48c-.344-.451-.491-.939-.44-1.464.051-.525.269-.969.652-1.333 7.729-7.477 16.669-9.856 26.818-7.136 2.671.715 5.22 1.955 7.646 3.717 2.426 1.763 4.491 3.806 6.194 6.129 1.704 2.323 2.901 4.932 3.592 7.828.692 2.895.665 5.733-.08 8.512z" fill="url(#paint8_linear)"/><path opacity=".3" d="M1055.88 69.438l-2.94 13.641c-.13.607-.47 1.088-1.02 1.445s-1.13.47-1.73.34l-13.6-2.927c-.6-.13-1.08-.472-1.44-1.024-.35-.552-.47-1.132-.34-1.738l2.94-13.641c.13-.606.47-1.088 1.02-1.445s1.13-.47 1.74-.34l13.6 2.928c.6.13 1.08.47 1.43 1.023.36.552.47 1.132.34 1.738zm25.25-30.248c-.44 2.047-1.15 3.897-2.11 5.552-.97 1.655-1.95 2.962-2.92 3.921-.98.96-2.26 1.863-3.85 2.711-1.58.848-2.85 1.438-3.79 1.77-.94.334-2.24.758-3.89 1.274-1.74.538-3.29 1.491-4.68 2.86-1.38 1.367-2.17 2.525-2.37 3.472-.14.644-.5 1.21-1.08 1.7-.58.49-1.17.67-1.78.54l-13.6-2.928c-.56-.122-.97-.576-1.22-1.363-.24-.786-.29-1.54-.13-2.26l.55-2.557c.68-3.145 2.54-5.846 5.6-8.102 3.05-2.257 6.2-3.73 9.43-4.422 2.45-.544 4.26-1.263 5.44-2.158 1.18-.896 1.97-2.234 2.35-4.015.34-1.592-.23-3.183-1.73-4.774-1.49-1.59-3.39-2.634-5.7-3.13-2.45-.529-4.61-.418-6.47.33-1.53.663-4.02 2.407-7.47 5.232-.62.5-1.28.677-1.96.53-.45-.097-.89-.35-1.31-.759l-7.77-9.106c-.41-.484-.6-1.02-.57-1.61.03-.588.25-1.096.66-1.524 8.21-8.778 18.06-11.93 29.54-9.458 3.02.65 5.94 1.893 8.74 3.726 2.81 1.834 5.23 4 7.26 6.5 2.03 2.498 3.51 5.345 4.45 8.54.93 3.194 1.06 6.363.38 9.509z" fill="url(#paint9_linear)"/></g><defs><linearGradient id="paint0_linear" x1="776.253" y1="-1.508" x2="969.486" y2="333.183" gradientUnits="userSpaceOnUse"><stop stop-color="#57B6FF"/><stop offset="1" stop-color="#57B6FF" stop-opacity="0"/></linearGradient><linearGradient id="paint1_linear" x1="370.279" y1="133.494" x2="254.586" y2="397.995" gradientUnits="userSpaceOnUse"><stop stop-color="#57B6FF"/><stop offset="1" stop-color="#57B6FF" stop-opacity="0"/></linearGradient><linearGradient id="paint2_linear" x1="171.532" y1="22.505" x2="206.344" y2="152.422" gradientUnits="userSpaceOnUse"><stop stop-color="#57B6FF"/><stop offset="1" stop-color="#57B6FF" stop-opacity="0"/></linearGradient><linearGradient id="paint3_linear" x1="45.731" y1="222.021" x2="22.669" y2="420.367" gradientUnits="userSpaceOnUse"><stop stop-color="#57B6FF"/><stop offset="1" stop-color="#57B6FF" stop-opacity="0"/></linearGradient><linearGradient id="paint4_linear" x1="175.524" y1="188.453" x2="200.044" y2="287.997" gradientUnits="userSpaceOnUse"><stop stop-color="#57B6FF"/><stop offset="1" stop-color="#57B6FF" stop-opacity="0"/></linearGradient><linearGradient id="paint5_linear" x1="73.074" y1="84.666" x2="34.351" y2="149.851" gradientUnits="userSpaceOnUse"><stop stop-color="#57B6FF"/><stop offset="1" stop-color="#57B6FF" stop-opacity="0"/></linearGradient><linearGradient id="paint6_linear" x1="301.011" y1="19.277" x2="378.113" y2="84.421" gradientUnits="userSpaceOnUse"><stop stop-color="#57B6FF"/><stop offset="1" stop-color="#57B6FF" stop-opacity="0"/></linearGradient><linearGradient id="paint7_linear" x1="1069.53" y1="147.634" x2="1040.75" y2="365.34" gradientUnits="userSpaceOnUse"><stop stop-color="#57B6FF"/><stop offset="1" stop-color="#57B6FF" stop-opacity="0"/></linearGradient><linearGradient id="paint8_linear" x1="800.542" y1="252.759" x2="779.522" y2="331.208" gradientUnits="userSpaceOnUse"><stop stop-color="#57B6FF"/><stop offset="1" stop-color="#57B6FF" stop-opacity="0"/></linearGradient><linearGradient id="paint9_linear" x1="1059.85" y1="10.818" x2="1040.73" y2="99.576" gradientUnits="userSpaceOnUse"><stop stop-color="#57B6FF"/><stop offset="1" stop-color="#57B6FF" stop-opacity="0"/></linearGradient></defs></svg>