<svg width="189" height="189" fill="none" xmlns="http://www.w3.org/2000/svg"><path d="M15 15h6.075v159H15V15z" fill="#fff"/><path d="M174 167.924V174H15v-6.076h159zM21.075 27.153h6.075v6.076h-6.075v-6.076zm0 12.153h6.075v6.076h-6.075v-6.076zm12.15 0H39.3v6.076h-6.075v-6.076zm6.075 6.076h6.075v6.077H39.3v-6.077zM39.3 15h6.075v6.076H39.3V15zm0 18.23h6.075v6.076H39.3v-6.077zM21.075 51.459h6.075v6.076h-6.075v-6.076zm12.15 0H39.3v6.076h-6.075v-6.076zm0 37.471H39.3v6.076h-6.075V88.93zM39.3 57.535h6.075v6.077H39.3v-6.077zm0 25.318h6.075v6.077H39.3v-6.077zm12.15 12.153h6.075v6.077H51.45v-6.077zm6.075-6.076H63.6v6.076h-6.075V88.93zm0-6.077h12.15v6.077h-12.15v-6.077zM39.3 107.159h6.075v6.077H39.3v-6.077zm42.525 6.077H87.9v6.076h-6.075v-6.076zm0-18.23H87.9v6.077h-6.075v-6.077zm6.075 6.077h6.075v6.076H87.9v-6.076zm18.225 0h6.075v6.076h-6.075v-6.076zm-6.075 18.229h6.075v6.077h-6.075v-6.077zm-6.075 0h6.075v12.153h-6.075v-12.153zm0-12.153h6.075v6.077h-6.075v-6.077zm6.075 0h12.15v6.077h-12.15v-6.077zm37.463 0h19.237v6.077h-19.237v-6.077zm-7.088 6.077h12.15v6.076h-12.15v-6.076zm-12.15-12.153h19.238v6.076h-19.238v-6.076zm0 6.076h6.075v6.077h-6.075v-6.077zm0-18.229h19.238v6.076h-19.238V88.93zm36.45 0h19.238v6.076h-19.238V88.93zm0-6.077h12.15v6.077h-12.15v-6.077zm7.087 12.153h12.151v6.077h-12.151v-6.077zm0 12.153h12.151v6.077h-12.151v-6.077zm-61.762 6.077h12.15v6.076h-12.15v-6.076zm-6.075-18.23h6.075v6.077h-6.075v-6.077zM87.9 57.535h6.075v6.077H87.9v-6.077z" fill="#fff"/><path d="M93.975 51.459h6.075v6.076h-6.075v-6.076zm6.075 6.076h6.075v12.153h-6.075V57.535zm12.15 0h6.075v12.153H112.2V57.535z" fill="#fff"/><path d="M124.35 63.611v6.077H112.2V63.61h12.15zm-6.075 13.166v6.076H112.2v-6.076h6.075zm6.075-25.318v6.076h-6.075v-6.076h6.075zm0-24.306v6.076h-6.075v-6.076h6.075zM130.425 15v6.076h-6.075V15h6.075zm6.075 6.076v6.077h-6.075v-6.077h6.075zM142.575 15v6.076H136.5V15h6.075zm6.075 6.076V33.23h-6.075V21.076h6.075zM154.725 15v12.153h-6.075V15h6.075zm12.15 0v12.153H160.8V15h6.075z" fill="#fff"/><path d="M172.95 27.153H160.8v-6.077h12.15v6.077zM160.8 33.23h-6.075v-6.077h6.075v6.076zm12.15 6.076H160.8v-6.077h12.15v6.077zm-6.075 6.076H160.8v-6.076h6.075v6.076zm6.075 6.077h-6.075v-6.077h6.075v6.077zm-18.225 0h-6.075v-6.077h6.075v6.077zm-6.075-6.077h-6.075v-6.076h6.075v6.076zm-6.075 0H136.5v-6.076h6.075v6.076zm-6.075 0h-6.075v-6.076h6.075v6.076zm6.075 12.153h-12.15v-6.076h12.15v6.076zM136.5 39.306h-6.075v-6.077h6.075v6.077z" fill="#fff"/><path d="M136.5 33.23h-6.075v-6.077h6.075v6.076zm18.225 12.152h-6.075v-6.076h6.075v6.076zM100.05 88.93h6.075v12.153h-6.075V88.93zm-6.075-19.242h6.075v13.165h-6.075V69.689z" fill="#fff"/><path d="M87.9 82.853h6.075v6.077H87.9v-6.077z" fill="#fff"/><path d="M93.975 82.853h12.15v6.077h-12.15v-6.077zM87.9 33.23h6.075v6.076H87.9v-6.077zm60.75 25.318h6.075v6.076h-6.075v-6.076zm18.225 0h6.075v24.305h-6.075V58.548zM148.65 70.7h6.075v6.077h-6.075v-6.076zm12.15 0h6.075v6.077H160.8v-6.076zM87.9 15h6.075v6.076H87.9V15zm6.075 6.076h6.075v6.077h-6.075v-6.077zM75.75 15h6.075v6.076H75.75V15zm6.075 110.389H87.9v6.076h-6.075v-6.076zm-12.15 0h6.075v6.076h-6.075v-6.076zm-6.075-18.23h6.075v6.077H63.6v-6.077zm0-12.153h6.075v12.153H63.6V95.006zm6.075-6.076h6.075v12.153h-6.075V88.93zm0-12.153h6.075v6.076h-6.075v-6.076zm-12.15-25.318H63.6v6.076h-6.075v-6.076zm24.3 12.152H87.9v19.242h-6.075V63.612zM75.75 45.382h6.075v18.23H75.75v-18.23zm60.75 24.306h6.075v18.23H136.5v-18.23zm-30.375-30.382h6.075v18.229h-6.075v-18.23zM112.2 15h6.075v24.306H112.2V15zM81.825 27.153H87.9v18.23h-6.075v-18.23zm60.75 24.306h6.075v18.229h-6.075v-18.23zM100.05 15h6.075v24.306h-6.075V15z" fill="#fff"/><path d="M87.9 51.459v6.076H69.675v-6.076H87.9zm60.75 24.305v6.077h-18.225v-6.077h18.225zm-30.375-30.382v6.077H100.05v-6.077h18.225zm-60.75 18.229h24.3v6.077h-24.3V63.61zM75.75 82.853h6.075v6.077H75.75v-6.077z" fill="#fff"/><path d="M63.6 57.535h6.075v6.077H63.6v-6.077zm-12.15 0h6.075v6.077H51.45v-6.077zM63.6 45.382h6.075v6.077H63.6v-6.077zm-12.15 0h6.075v6.077H51.45v-6.077zm0-6.076H63.6v6.076H51.45v-6.076zM63.6 33.23h12.15v6.076H63.6v-6.077zm6.075-6.077h6.075v6.076h-6.075v-6.076zm-12.15 0H63.6v6.076h-6.075v-6.076zM51.45 15h6.075v12.153H51.45V15zm12.15 0h6.075v12.153H63.6V15zM33.225 149.694H39.3v6.077h-6.075v-6.077zm-6.075-6.076h6.075v6.076H27.15v-6.076zm0 12.153h6.075v6.076H27.15v-6.076zm-6.075 6.076h6.075v6.077h-6.075v-6.077zm12.15 0H39.3v6.077h-6.075v-6.077zm12.15 0h6.075v6.077h-6.075v-6.077zm6.075-12.153h6.075v6.077H51.45v-6.077zm36.45 0h6.075v6.077H87.9v-6.077zm0-12.153h6.075v6.077H87.9v-6.077z" fill="#fff"/><path d="M93.975 137.541h6.075v6.077h-6.075v-6.077zm6.075 0h6.075v6.077h-6.075v-6.077zm6.075-12.152h6.075v18.229h-6.075v-18.229zm6.075 0h6.075v6.076H112.2v-6.076zm0-6.077h12.15v6.077H112.2v-6.077zm-30.375 42.535H87.9v6.077h-6.075v-6.077zm12.15-6.076h6.075v6.076h-6.075v-6.076zm49.613 6.076h6.075v6.077h-6.075v-6.077zm12.15 0h6.074v6.077h-6.074v-6.077zm6.074-12.153h6.076v6.077h-6.076v-6.077zm6.076 6.077h6.075v6.076h-6.075v-6.076zm0-12.153h6.075v6.076h-6.075v-6.076zm-6.076-30.382h6.076v6.076h-6.076v-6.076zm0 12.153h6.076v6.076h-6.076v-6.076zm-25.312 0h6.075v6.076H136.5v-6.076zm6.075 0h6.075v12.152h-6.075v-12.152zm6.075 12.152h6.075v12.153h-6.075v-12.153zm6.075 0h13.163v6.077h-13.163v-6.077zm7.087-6.076h12.151v6.076h-12.151v-6.076zm-31.387-12.153h43.538v6.077h-43.538v-6.077zm-5.062 42.535h12.15v6.077h-12.15v-6.077zm0-12.153h12.15v6.077h-12.15v-6.077zm-7.088-12.153h12.15v6.077h-12.15v-6.077zm6.075 0v-12.152h6.075v12.152h-6.075zm6.075 6.077v-12.153h6.075v12.153h-6.075zm7.088 12.153v-12.153h6.075v12.153h-6.075zm6.075 6.076v-12.153h18.224v12.153h-18.224zM75.75 137.541h6.075v6.077H75.75v-6.077zm-18.225 0H63.6v12.153h-6.075v-12.153zm6.075 6.077h6.075v12.153H63.6v-12.153zm6.075 0h48.6v6.076h-48.6v-6.076zm-12.15 18.229h12.15v6.077h-12.15v-6.077zM39.3 119.312h6.075v12.153H39.3v-12.153zm12.15 0H63.6v12.153H51.45v-12.153zm12.15-6.076h18.225v12.153H63.6v-12.153zm-24.3 24.305h6.075v12.153H39.3v-12.153zm0 12.153h6.075v12.153H39.3v-12.153zm6.075 6.077h36.45v6.076h-36.45v-6.076zm-12.15-24.306H39.3v12.153h-6.075v-12.153zm12.15-24.306h6.075v30.382h-6.075v-30.382zm-6.075-55.7h6.075v6.076H39.3v-6.076zm6.075 0h6.075v6.076h-6.075v-6.076zm-24.3 25.318h6.075v6.076h-6.075v-6.076zm6.075 6.076h6.075v6.077H27.15v-6.077zm0-49.623h6.075v18.229H27.15v-18.23zm0-18.23h6.075v12.153H27.15V15z" fill="#fff"/><path d="M33.225 21.076H39.3V33.23h-6.075V21.076zm12.15 6.077h6.075v12.153h-6.075V27.153zm-12.15 37.471H39.3v18.23h-6.075v-18.23zm12.15 5.064h6.075v25.318h-6.075V69.688zm6.075 0h6.075V88.93H51.45V69.688zm-18.225 37.471H39.3v13.166h-6.075v-13.166zM21.075 88.93h6.075v18.229h-6.075v-18.23zm0 36.459h6.075v6.076h-6.075v-6.076z" fill="#fff"/><path d="M27.15 95.006h6.075v36.459H27.15V95.006zm79.987 54.688h18.226v18.23h-18.226v-18.23z" fill="#fff"/><path d="M48.877 3H9a6 6 0 00-6 6v39.877m45.877 137.538H9a6 6 0 01-6-6v-39.878M140.123 3H180a6 6 0 016 6v39.877m-45.877 137.538H180a6 6 0 006-6v-39.878" stroke="#fff" stroke-width="5" stroke-linecap="round"/></svg>