<svg width="132" height="132" fill="none" xmlns="http://www.w3.org/2000/svg"><path d="M124.5 65.834c-3.314 0-5.965 2.695-6.341 5.987a52.667 52.667 0 11-52.326-58.654c3.78 0 7.486.413 11.06 1.184 2.13.459 4.38-.099 5.92-1.64l1.476-1.476c3.027-3.027 1.977-8.136-2.17-9.2A64.662 64.662 0 0065.834 0a65.834 65.834 0 1065.561 71.826c.301-3.3-2.414-5.992-5.727-5.992H124.5zM43.165 57.45a6 6 0 00-8.5.015l-.827.833a6 6 0 00.015 8.47l21.154 21.155a6 6 0 008.486 0l57.363-57.363a6 6 0 00.015-8.47l-.828-.833a6 6 0 00-8.5-.015l-48.05 48.05a6 6 0 01-8.486 0L43.165 57.451z" fill="url(#paint0_linear)"/><defs><linearGradient id="paint0_linear" x1="65.833" y1="0" x2="65.833" y2="160.634" gradientUnits="userSpaceOnUse"><stop stop-color="#fff"/><stop offset="1" stop-color="#fff" stop-opacity="0"/></linearGradient></defs></svg>